{
.appVersion = "1141";
DisplayStrings = (
"/quotedblright",

glyphs = (
{
glyphname = A;
lastChange = "2018-04-18 21:24:17 +0000";
layers = (
{
anchors = (
{
name = bottom;
position = "{316, 0}";
},
{
name = ogonek;
position = "{569, 10}";
},
{
name = top;
position = "{316, 665}";
}
);
layerId = "E1ADDF7C-A343-4E6D-B630-136BDFE64807";
paths = (
{
closed = 1;
nodes = (
"366 664 LINE",
"266 664 LINE",
"35 0 LINE",
"130 0 LINE",
"212 234 LINE",
"420 234 LINE",
"502 0 LINE",
"597 0 LINE"
);
},
{
closed = 1;
nodes = (
"240 318 LINE",
"316 535 LINE",
"391 318 LINE"
);
}
);
width = 632;
}
);
note = A;
unicode = 0041;
},
{
glyphname = AE;
lastChange = "2018-04-11 02:41:41 +0000";
layers = (
{
anchors = (
{
name = bottom;
position = "{321, 0}";
},
{
name = ogonek;
position = "{574, 10}";
},
{
name = top;
position = "{321, 665}";
}
);
components = (
{
alignment = -1;
name = E;
transform = "{1, 0, 0, 1, 352, -1}";
}
);
layerId = "E1ADDF7C-A343-4E6D-B630-136BDFE64807";
paths = (
{
closed = 1;
nodes = (
"365 664 LINE",
"271 664 LINE",
"40 0 LINE",
"135 0 LINE",
"217 234 LINE"
);
},
{
closed = 1;
nodes = (
"275 576 LINE",
"716 576 LINE",
"716 664 LINE",
"275 664 LINE"
);
},
{
closed = 1;
nodes = (
"185 234 LINE",
"441 234 LINE",
"441 322 LINE",
"185 322 LINE"
);
}
);
width = 806;
}
);
unicode = 00C6;
},
{
glyphname = B;
lastChange = "2018-03-18 23:39:20 +0000";
layers = (
{
layerId = "E1ADDF7C-A343-4E6D-B630-136BDFE64807";
paths = (
{
closed = 1;
nodes = (
"50 666 LINE",
"50 0 LINE",
"268 0 LINE SMOOTH",
"319 0 OFFCURVE",
"366 21 OFFCURVE",
"399 55 CURVE SMOOTH",
"432 89 OFFCURVE",
"453 136 OFFCURVE",
"453 188 CURVE SMOOTH",
"453 253 OFFCURVE",
"423 308 OFFCURVE",
"376 343 CURVE",
"409 378 OFFCURVE",
"430 425 OFFCURVE",
"430 478 CURVE SMOOTH",
"430 530 OFFCURVE",
"409 579 OFFCURVE",
"376 615 CURVE SMOOTH",
"343 650 OFFCURVE",
"296 665 OFFCURVE",
"245 666 CURVE"
);
},
{
closed = 1;
nodes = (
"272 576 OFFCURVE",
"296 566 OFFCURVE",
"314 548 CURVE SMOOTH",
"332 530 OFFCURVE",
"342 505 OFFCURVE",
"342 478 CURVE SMOOTH",
"342 450 OFFCURVE",
"332 425 OFFCURVE",
"314 407 CURVE SMOOTH",
"296 389 OFFCURVE",
"272 378 OFFCURVE",
"245 378 CURVE SMOOTH",
"138 378 LINE",
"138 576 LINE",
"245 576 LINE SMOOTH"
);
},
{
closed = 1;
nodes = (
"295 288 OFFCURVE",
"320 277 OFFCURVE",
"337 259 CURVE SMOOTH",
"354 241 OFFCURVE",
"365 216 OFFCURVE",
"365 188 CURVE SMOOTH",
"365 133 OFFCURVE",
"323 90 OFFCURVE",
"268 90 CURVE SMOOTH",
"138 90 LINE",
"138 288 LINE",
"268 288 LINE SMOOTH"
);
}
);
width = 493;
}
);
note = B;
unicode = 0042;
},
{
glyphname = C;
lastChange = "2018-04-11 02:23:04 +0000";
layers = (
{
anchors = (
{
name = bottom;
position = "{376, 0}";
},
{
name = top;
position = "{376, 665}";
}
);
layerId = "E1ADDF7C-A343-4E6D-B630-136BDFE64807";
paths = (
{
closed = 1;
nodes = (
"473 -4 OFFCURVE",
"564 39 OFFCURVE",
"636 123 CURVE",
"568 181 LINE",
"512 117 OFFCURVE",
"446 87 OFFCURVE",
"374 87 CURVE SMOOTH",
"307 87 OFFCURVE",
"246 115 OFFCURVE",
"202 159 CURVE SMOOTH",
"158 203 OFFCURVE",
"130 264 OFFCURVE",
"130 332 CURVE SMOOTH",
"130 400 OFFCURVE",
"158 461 OFFCURVE",
"202 505 CURVE SMOOTH",
"246 549 OFFCURVE",
"307 577 OFFCURVE",
"374 577 CURVE SMOOTH",
"446 577 OFFCURVE",
"512 547 OFFCURVE",
"568 483 CURVE",
"636 541 LINE",
"564 626 OFFCURVE",
"473 668 OFFCURVE",
"374 668 CURVE SMOOTH",
"282 668 OFFCURVE",
"198 630 OFFCURVE",
"138 570 CURVE SMOOTH",
"77 509 OFFCURVE",
"40 425 OFFCURVE",
"40 332 CURVE SMOOTH",
"40 239 OFFCURVE",
"77 155 OFFCURVE",
"138 95 CURVE SMOOTH",
"198 34 OFFCURVE",
"282 -4 OFFCURVE",
"374 -4 CURVE SMOOTH"
);
}
);
width = 671;
}
);
note = C;
unicode = 0043;
},
{
glyphname = D;
lastChange = "2018-04-11 02:23:15 +0000";
layers = (
{
anchors = (
{
name = bottom;
position = "{296, 0}";
},
{
name = center;
position = "{212, 333}";
},
{
name = top;
position = "{296, 665}";
}
);
layerId = "E1ADDF7C-A343-4E6D-B630-136BDFE64807";
paths = (
{
closed = 1;
nodes = (
"313 0 OFFCURVE",
"395 37 OFFCURVE",
"455 98 CURVE SMOOTH",
"514 158 OFFCURVE",
"551 241 OFFCURVE",
"551 333 CURVE SMOOTH",
"551 425 OFFCURVE",
"514 508 OFFCURVE",
"455 569 CURVE SMOOTH",
"395 629 OFFCURVE",
"313 666 OFFCURVE",
"222 666 CURVE SMOOTH",
"50 666 LINE",
"50 0 LINE",
"222 0 LINE SMOOTH"
);
},
{
closed = 1;
nodes = (
"287 576 OFFCURVE",
"348 549 OFFCURVE",
"392 505 CURVE SMOOTH",
"435 461 OFFCURVE",
"462 400 OFFCURVE",
"462 333 CURVE SMOOTH",
"462 266 OFFCURVE",
"435 205 OFFCURVE",
"392 161 CURVE SMOOTH",
"348 117 OFFCURVE",
"287 90 OFFCURVE",
"222 90 CURVE SMOOTH",
"140 90 LINE",
"140 576 LINE",
"222 576 LINE SMOOTH"
);
}
);
width = 591;
}
);
note = D;
unicode = 0044;
},
{
glyphname = E;
lastChange = "2018-04-18 21:24:46 +0000";
layers = (
{
anchors = (
{
name = bottom;
position = "{232, 0}";
},
{
name = ogonek;
position = "{388, 10}";
},
{
name = top;
position = "{232, 665}";
},
{
name = topleft;
position = "{20, 665}";
}
);
layerId = "E1ADDF7C-A343-4E6D-B630-136BDFE64807";
paths = (
{
closed = 1;
nodes = (
"414 90 LINE",
"137 90 LINE",
"137 291 LINE",
"323 291 LINE",
"323 373 LINE",
"137 373 LINE",
"137 575 LINE",
"414 575 LINE",
"414 665 LINE",
"50 665 LINE",
"50 0 LINE",
"414 0 LINE"
);
}
);
width = 464;
}
);
note = E;
unicode = 0045;
},
{
glyphname = F;
lastChange = "2018-03-18 23:32:31 +0000";
layers = (
{
layerId = "E1ADDF7C-A343-4E6D-B630-136BDFE64807";
paths = (
{
closed = 1;
nodes = (
"414 665 LINE",
"50 665 LINE",
"50 0 LINE",
"136 0 LINE",
"136 287 LINE",
"323 287 LINE",
"323 377 LINE",
"136 377 LINE",
"136 575 LINE",
"414 575 LINE"
);
}
);
width = 454;
}
);
note = F;
unicode = 0046;
},
{
glyphname = G;
lastChange = "2018-04-11 02:23:32 +0000";
layers = (
{
anchors = (
{
name = bottom;
position = "{347, 0}";
},
{
name = top;
position = "{347, 665}";
}
);
layerId = "E1ADDF7C-A343-4E6D-B630-136BDFE64807";
paths = (
{
closed = 1;
nodes = (
"599 83 OFFCURVE",
"622 107 OFFCURVE",
"643 136 CURVE",
"643 326 LINE",
"462 326 LINE",
"462 236 LINE",
"554 236 LINE",
"554 169 LINE",
"507 117 OFFCURVE",
"443 87 OFFCURVE",
"372 87 CURVE SMOOTH",
"319 87 OFFCURVE",
"266 105 OFFCURVE",
"225 137 CURVE SMOOTH",
"181 171 OFFCURVE",
"152 214 OFFCURVE",
"139 266 CURVE SMOOTH",
"123 323 OFFCURVE",
"129 385 OFFCURVE",
"156 437 CURVE SMOOTH",
"179 484 OFFCURVE",
"214 522 OFFCURVE",
"258 545 CURVE SMOOTH",
"323 580 OFFCURVE",
"397 580 OFFCURVE",
"461 556 CURVE",
"497 541 OFFCURVE",
"529 518 OFFCURVE",
"564 479 CURVE",
"633 537 LINE",
"602 573 OFFCURVE",
"568 601 OFFCURVE",
"532 622 CURVE SMOOTH",
"460 662 OFFCURVE",
"384 672 OFFCURVE",
"312 658 CURVE SMOOTH",
"240 644 OFFCURVE",
"177 608 OFFCURVE",
"130 558 CURVE SMOOTH",
"83 508 OFFCURVE",
"51 441 OFFCURVE",
"43 366 CURVE SMOOTH",
"34 291 OFFCURVE",
"51 224 OFFCURVE",
"79 173 CURVE SMOOTH",
"122 92 OFFCURVE",
"194 35 OFFCURVE",
"275 11 CURVE SMOOTH",
"356 -14 OFFCURVE",
"448 -8 OFFCURVE",
"528 35 CURVE SMOOTH",
"545 44 OFFCURVE",
"559 53 OFFCURVE",
"574 64 CURVE SMOOTH"
);
}
);
width = 693;
}
);
note = G;
unicode = 0047;
},
{
glyphname = H;
lastChange = "2018-04-11 02:24:04 +0000";
layers = (
{
anchors = (
{
name = bottom;
position = "{273, 0}";
},
{
name = center;
position = "{273, 544}";
},
{
name = top;
position = "{273, 665}";
},
{
name = topleft;
position = "{20, 665}";
}
);
layerId = "E1ADDF7C-A343-4E6D-B630-136BDFE64807";
paths = (
{
closed = 1;
nodes = (
"495 665 LINE",
"408 665 LINE",
"408 377 LINE",
"138 377 LINE",
"138 665 LINE",
"50 665 LINE",
"50 0 LINE",
"138 0 LINE",
"138 287 LINE",
"408 287 LINE",
"408 0 LINE",
"495 0 LINE"
);
}
);
width = 545;
}
);
note = H;
unicode = 0048;
},
{
glyphname = I;
lastChange = "2018-04-16 03:14:54 +0000";
layers = (
{
anchors = (
{
name = bottom;
position = "{92, 0}";
},
{
name = ogonek;
position = "{100, 9}";
},
{
name = top;
position = "{92, 665}";
},
{
name = topleft;
position = "{19, 665}";
}
);
layerId = "E1ADDF7C-A343-4E6D-B630-136BDFE64807";
paths = (
{
closed = 1;
nodes = (
"134 90 LINE",
"134 665 LINE",
"50 665 LINE",
"50 0 LINE",
"134 0 LINE"
);
}
);
width = 184;
}
);
note = I;
unicode = 0049;
},
{
glyphname = J;
lastChange = "2018-03-18 23:38:46 +0000";
layers = (
{
anchors = (
{
name = bottom;
position = "{137, 0}";
},
{
name = top;
position = "{137, 665}";
}
);
layerId = "E1ADDF7C-A343-4E6D-B630-136BDFE64807";
paths = (
{
closed = 1;
nodes = (
"93 0 OFFCURVE",
"139 21 OFFCURVE",
"172 55 CURVE SMOOTH",
"204 89 OFFCURVE",
"223 136 OFFCURVE",
"223 188 CURVE SMOOTH",
"223 665 LINE",
"141 665 LINE",
"141 188 LINE SMOOTH",
"141 133 OFFCURVE",
"100 90 OFFCURVE",
"40 90 CURVE",
"40 0 LINE"
);
}
);
width = 273;
}
);
note = J;
unicode = 004A;
},
{
glyphname = K;
lastChange = "2018-03-18 23:38:51 +0000";
layers = (
{
anchors = (
{
name = bottom;
position = "{249, 0}";
},
{
name = top;
position = "{249, 665}";
}
);
layerId = "E1ADDF7C-A343-4E6D-B630-136BDFE64807";
paths = (
{
closed = 1;
nodes = (
"184 327 LINE",
"465 664 LINE",
"349 664 LINE",
"138 411 LINE",
"138 664 LINE",
"50 664 LINE",
"50 0 LINE",
"138 0 LINE",
"138 245 LINE",
"353 0 LINE",
"472 0 LINE"
);
}
);
width = 497;
}
);
note = K;
unicode = 004B;
},
{
glyphname = L;
lastChange = "2018-03-18 23:39:42 +0000";
layers = (
{
anchors = (
{
name = bottom;
position = "{188, 0}";
},
{
name = center;
position = "{188, 333}";
},
{
name = top;
position = "{188, 665}";
},
{
name = topright;
position = "{356, 665}";
}
);
layerId = "E1ADDF7C-A343-4E6D-B630-136BDFE64807";
paths = (
{
closed = 1;
nodes = (
"336 90 LINE",
"136 90 LINE",
"136 665 LINE",
"50 665 LINE",
"50 0 LINE",
"336 0 LINE"
);
}
);
width = 376;
}
);
note = L;
unicode = 004C;
},
{
glyphname = M;
lastChange = "2018-03-18 23:39:53 +0000";
layers = (
{
layerId = "E1ADDF7C-A343-4E6D-B630-136BDFE64807";
paths = (
{
closed = 1;
nodes = (
"693 665 LINE",
"593 665 LINE",
"371 344 LINE",
"149 665 LINE",
"50 665 LINE",
"50 0 LINE",
"140 0 LINE",
"140 521 LINE",
"337 235 LINE",
"405 235 LINE",
"603 521 LINE",
"603 0 LINE",
"693 0 LINE"
);
}
);
width = 743;
}
);
note = M;
unicode = 004D;
},
{
glyphname = N;
lastChange = "2018-03-18 23:40:16 +0000";
layers = (
{
anchors = (
{
name = bottom;
position = "{293, 0}";
},
{
name = top;
position = "{293, 665}";
}
);
layerId = "E1ADDF7C-A343-4E6D-B630-136BDFE64807";
paths = (
{
closed = 1;
nodes = (
"535 665 LINE",
"447 665 LINE",
"447 163 LINE",
"137 665 LINE",
"50 665 LINE",
"50 0 LINE",
"139 0 LINE",
"139 488 LINE",
"439 0 LINE",
"535 0 LINE"
);
}
);
width = 585;
}
);
note = N;
unicode = 004E;
},
{
glyphname = O;
lastChange = "2018-03-18 23:40:12 +0000";
layers = (
{
anchors = (
{
name = bottom;
position = "{374, 0}";
},
{
name = center;
position = "{374, 333}";
},
{
name = ogonek;
position = "{672, 10}";
},
{
name = top;
position = "{374, 665}";
},
{
name = topleft;
position = "{20, 665}";
},
{
name = topright;
position = "{727, 665}";
}
);
layerId = "E1ADDF7C-A343-4E6D-B630-136BDFE64807";
paths = (
{
closed = 1;
nodes = (
"465 -5 OFFCURVE",
"549 32 OFFCURVE",
"609 93 CURVE SMOOTH",
"669 153 OFFCURVE",
"707 238 OFFCURVE",
"707 330 CURVE SMOOTH",
"707 422 OFFCURVE",
"669 506 OFFCURVE",
"609 566 CURVE SMOOTH",
"549 626 OFFCURVE",
"465 664 OFFCURVE",
"373 664 CURVE SMOOTH",
"281 664 OFFCURVE",
"198 626 OFFCURVE",
"138 566 CURVE SMOOTH",
"77 505 OFFCURVE",
"40 422 OFFCURVE",
"40 330 CURVE SMOOTH",
"40 238 OFFCURVE",
"77 153 OFFCURVE",
"138 93 CURVE SMOOTH",
"198 32 OFFCURVE",
"281 -5 OFFCURVE",
"373 -5 CURVE SMOOTH"
);
},
{
closed = 1;
nodes = (
"440 573 OFFCURVE",
"501 546 OFFCURVE",
"545 502 CURVE SMOOTH",
"589 458 OFFCURVE",
"616 397 OFFCURVE",
"616 330 CURVE SMOOTH",
"616 263 OFFCURVE",
"589 200 OFFCURVE",
"545 156 CURVE SMOOTH",
"501 112 OFFCURVE",
"440 85 OFFCURVE",
"373 85 CURVE SMOOTH",
"306 85 OFFCURVE",
"245 112 OFFCURVE",
"201 156 CURVE SMOOTH",
"157 200 OFFCURVE",
"130 263 OFFCURVE",
"130 330 CURVE SMOOTH",
"130 397 OFFCURVE",
"157 458 OFFCURVE",
"201 502 CURVE SMOOTH",
"245 546 OFFCURVE",
"306 573 OFFCURVE",
"373 573 CURVE SMOOTH"
);
}
);
width = 747;
}
);
note = O;
unicode = 004F;
},
{
glyphname = P;
lastChange = "2018-03-18 23:32:31 +0000";
layers = (
{
layerId = "E1ADDF7C-A343-4E6D-B630-136BDFE64807";
paths = (
{
closed = 1;
nodes = (
"294 231 OFFCURVE",
"348 255 OFFCURVE",
"387 295 CURVE SMOOTH",
"426 334 OFFCURVE",
"450 388 OFFCURVE",
"450 448 CURVE SMOOTH",
"450 508 OFFCURVE",
"426 562 OFFCURVE",
"387 602 CURVE SMOOTH",
"348 641 OFFCURVE",
"294 665 OFFCURVE",
"237 665 CURVE SMOOTH",
"50 665 LINE",
"50 0 LINE",
"138 0 LINE",
"138 231 LINE",
"237 231 LINE SMOOTH"
);
},
{
closed = 1;
nodes = (
"272 574 OFFCURVE",
"302 560 OFFCURVE",
"325 537 CURVE SMOOTH",
"348 514 OFFCURVE",
"362 483 OFFCURVE",
"362 448 CURVE SMOOTH",
"362 412 OFFCURVE",
"348 381 OFFCURVE",
"325 358 CURVE SMOOTH",
"302 334 OFFCURVE",
"272 320 OFFCURVE",
"237 320 CURVE SMOOTH",
"138 320 LINE",
"138 574 LINE",
"237 574 LINE SMOOTH"
);
}
);
width = 490;
}
);
note = P;
unicode = 0050;
},
{
glyphname = Thorn;
lastChange = "2018-04-11 02:36:46 +0000";
layers = (
{
layerId = "E1ADDF7C-A343-4E6D-B630-136BDFE64807";
paths = (
{
closed = 1;
nodes = (
"294 71 OFFCURVE",
"347 95 OFFCURVE",
"387 135 CURVE SMOOTH",
"426 174 OFFCURVE",
"450 228 OFFCURVE",
"450 288 CURVE SMOOTH",
"450 348 OFFCURVE",
"427 402 OFFCURVE",
"387 442 CURVE SMOOTH",
"348 481 OFFCURVE",
"294 505 OFFCURVE",
"237 505 CURVE SMOOTH",
"50 505 LINE",
"50 -109 LINE",
"138 -109 LINE",
"138 71 LINE",
"237 71 LINE SMOOTH"
);
},
{
closed = 1;
nodes = (
"272 414 OFFCURVE",
"302 400 OFFCURVE",
"325 377 CURVE SMOOTH",
"348 354 OFFCURVE",
"362 323 OFFCURVE",
"362 288 CURVE SMOOTH",
"362 252 OFFCURVE",
"348 221 OFFCURVE",
"325 198 CURVE SMOOTH",
"301 174 OFFCURVE",
"272 160 OFFCURVE",
"237 160 CURVE SMOOTH",
"138 160 LINE",
"138 414 LINE",
"237 414 LINE SMOOTH"
);
},
{
closed = 1;
nodes = (
"50 407 LINE",
"138 407 LINE",
"138 658 LINE",
"50 658 LINE"
);
}
);
width = 490;
}
);
unicode = 00DE;
},
{
glyphname = Q;
lastChange = "2018-03-18 23:40:27 +0000";
layers = (
{
layerId = "E1ADDF7C-A343-4E6D-B630-136BDFE64807";
paths = (
{
closed = 1;
nodes = (
"707 88 LINE",
"601 88 LINE",
"666 148 OFFCURVE",
"707 235 OFFCURVE",
"707 331 CURVE SMOOTH",
"707 423 OFFCURVE",
"669 509 OFFCURVE",
"609 569 CURVE SMOOTH",
"549 629 OFFCURVE",
"465 667 OFFCURVE",
"373 667 CURVE SMOOTH",
"281 667 OFFCURVE",
"198 629 OFFCURVE",
"138 569 CURVE SMOOTH",
"77 509 OFFCURVE",
"40 423 OFFCURVE",
"40 331 CURVE SMOOTH",
"40 239 OFFCURVE",
"77 156 OFFCURVE",
"138 96 CURVE SMOOTH",
"199 36 OFFCURVE",
"281 -2 OFFCURVE",
"373 -2 CURVE SMOOTH",
"376 -2 LINE",
"707 -2 LINE"
);
},
{
closed = 1;
nodes = (
"440 576 OFFCURVE",
"501 549 OFFCURVE",
"545 505 CURVE SMOOTH",
"589 461 OFFCURVE",
"616 398 OFFCURVE",
"616 331 CURVE SMOOTH",
"616 264 OFFCURVE",
"589 203 OFFCURVE",
"545 159 CURVE SMOOTH",
"501 115 OFFCURVE",
"440 88 OFFCURVE",
"373 88 CURVE SMOOTH",
"306 88 OFFCURVE",
"245 115 OFFCURVE",
"201 159 CURVE SMOOTH",
"157 203 OFFCURVE",
"130 264 OFFCURVE",
"130 331 CURVE SMOOTH",
"130 398 OFFCURVE",
"157 461 OFFCURVE",
"201 505 CURVE SMOOTH",
"245 549 OFFCURVE",
"306 576 OFFCURVE",
"373 576 CURVE SMOOTH"
);
}
);
width = 747;
}
);
note = Q;
unicode = 0051;
},
{
glyphname = R;
lastChange = "2018-04-11 02:43:39 +0000";
layers = (
{
anchors = (
{
name = bottom;
position = "{236, 0}";
},
{
name = top;
position = "{236, 665}";
}
);
layerId = "E1ADDF7C-A343-4E6D-B630-136BDFE64807";
paths = (
{
closed = 1;
nodes = (
"296 237 OFFCURVE",
"344 264 OFFCURVE",
"378 302 CURVE SMOOTH",
"412 340 OFFCURVE",
"432 391 OFFCURVE",
"432 447 CURVE SMOOTH",
"432 507 OFFCURVE",
"409 561 OFFCURVE",
"371 601 CURVE SMOOTH",
"333 640 OFFCURVE",
"280 664 OFFCURVE",
"221 664 CURVE SMOOTH",
"50 664 LINE",
"50 0 LINE",
"138 0 LINE",
"138 227 LINE",
"329 0 LINE",
"447 0 LINE",
"244 232 LINE"
);
},
{
closed = 1;
nodes = (
"254 574 OFFCURVE",
"287 560 OFFCURVE",
"309 537 CURVE SMOOTH",
"331 513 OFFCURVE",
"345 482 OFFCURVE",
"345 447 CURVE SMOOTH",
"345 412 OFFCURVE",
"331 380 OFFCURVE",
"309 357 CURVE SMOOTH",
"287 334 OFFCURVE",
"254 320 OFFCURVE",
"221 320 CURVE SMOOTH",
"138 320 LINE",
"138 574 LINE",
"221 574 LINE SMOOTH"
);
}
);
width = 472;
}
);
note = R;
unicode = 0052;
},
{
glyphname = S;
lastChange = "2018-03-19 02:55:28 +0000";
layers = (
{
anchors = (
{
name = bottom;
position = "{268, 0}";
},
{
name = top;
position = "{268, 665}";
}
);
layerId = "E1ADDF7C-A343-4E6D-B630-136BDFE64807";
paths = (
{
closed = 1;
nodes = (
"494 460 LINE",
"487 515 OFFCURVE",
"468 565 OFFCURVE",
"432 604 CURVE SMOOTH",
"396 643 OFFCURVE",
"343 667 OFFCURVE",
"270 667 CURVE SMOOTH",
"203 667 OFFCURVE",
"151 648 OFFCURVE",
"114 611 CURVE SMOOTH",
"79 576 OFFCURVE",
"61 528 OFFCURVE",
"61 472 CURVE SMOOTH",
"61 357 OFFCURVE",
"129 296 OFFCURVE",
"254 285 CURVE SMOOTH",
"322 280 OFFCURVE",
"360 268 OFFCURVE",
"381 252 CURVE SMOOTH",
"402 235 OFFCURVE",
"407 213 OFFCURVE",
"407 188 CURVE SMOOTH",
"407 132 OFFCURVE",
"363 89 OFFCURVE",
"288 85 CURVE SMOOTH",
"232 81 OFFCURVE",
"192 95 OFFCURVE",
"165 120 CURVE SMOOTH",
"147 137 OFFCURVE",
"135 160 OFFCURVE",
"129 199 CURVE",
"41 199 LINE",
"39 198 LINE",
"47 134 OFFCURVE",
"69 89 OFFCURVE",
"104 54 CURVE SMOOTH",
"146 14 OFFCURVE",
"202 -6 OFFCURVE",
"273 -6 CURVE SMOOTH",
"332 -6 OFFCURVE",
"394 11 OFFCURVE",
"439 55 CURVE SMOOTH",
"475 90 OFFCURVE",
"496 137 OFFCURVE",
"496 188 CURVE SMOOTH",
"496 253 OFFCURVE",
"472 301 OFFCURVE",
"423 332 CURVE SMOOTH",
"384 356 OFFCURVE",
"336 369 OFFCURVE",
"261 376 CURVE SMOOTH",
"229 379 OFFCURVE",
"202 384 OFFCURVE",
"182 398 CURVE SMOOTH",
"162 412 OFFCURVE",
"150 433 OFFCURVE",
"150 472 CURVE SMOOTH",
"150 491 OFFCURVE",
"153 524 OFFCURVE",
"176 547 CURVE SMOOTH",
"194 566 OFFCURVE",
"226 576 OFFCURVE",
"271 576 CURVE SMOOTH",
"327 576 OFFCURVE",
"360 559 OFFCURVE",
"383 524 CURVE SMOOTH",
"395 505 OFFCURVE",
"401 483 OFFCURVE",
"404 460 CURVE"
);
}
);
width = 536;
}
);
note = S;
unicode = 0053;
},
{
glyphname = T;
lastChange = "2018-04-18 21:25:13 +0000";
layers = (
{
anchors = (
{
name = bottom;
position = "{245, 0}";
},
{
name = center;
position = "{245, 333}";
},
{
name = top;
position = "{245, 665}";
}
);
layerId = "E1ADDF7C-A343-4E6D-B630-136BDFE64807";
paths = (
{
closed = 1;
nodes = (
"450 665 LINE",
"40 665 LINE",
"40 580 LINE",
"201 580 LINE",
"201 0 LINE",
"289 0 LINE",
"289 580 LINE",
"450 580 LINE"
);
}
);
width = 490;
}
);
note = T;
unicode = 0054;
},
{
glyphname = U;
lastChange = "2018-04-16 03:19:32 +0000";
layers = (
{
anchors = (
{
name = bottom;
position = "{282, 0}";
},
{
name = ogonek;
position = "{318, 10}";
},
{
name = top;
position = "{282, 665}";
},
{
name = topright;
position = "{544, 665}";
}
);
layerId = "E1ADDF7C-A343-4E6D-B630-136BDFE64807";
paths = (
{
closed = 1;
nodes = (
"346 -7 OFFCURVE",
"404 19 OFFCURVE",
"446 63 CURVE SMOOTH",
"488 106 OFFCURVE",
"514 165 OFFCURVE",
"514 229 CURVE SMOOTH",
"514 663 LINE",
"430 663 LINE",
"430 229 LINE SMOOTH",
"430 188 OFFCURVE",
"414 151 OFFCURVE",
"387 124 CURVE SMOOTH",
"359 96 OFFCURVE",
"322 80 OFFCURVE",
"282 80 CURVE SMOOTH",
"242 80 OFFCURVE",
"205 96 OFFCURVE",
"178 124 CURVE SMOOTH",
"151 151 OFFCURVE",
"135 188 OFFCURVE",
"135 229 CURVE SMOOTH",
"135 663 LINE",
"50 663 LINE",
"50 229 LINE SMOOTH",
"50 165 OFFCURVE",
"76 106 OFFCURVE",
"118 63 CURVE SMOOTH",
"160 19 OFFCURVE",
"218 -7 OFFCURVE",
"282 -7 CURVE SMOOTH"
);
}
);
width = 564;
}
);
note = U;
unicode = 0055;
},
{
glyphname = V;
lastChange = "2018-03-18 23:32:31 +0000";
layers = (
{
layerId = "E1ADDF7C-A343-4E6D-B630-136BDFE64807";
paths = (
{
closed = 1;
nodes = (
"502 666 LINE",
"316 131 LINE",
"130 666 LINE",
"35 666 LINE",
"265 1 LINE",
"366 1 LINE",
"596 666 LINE"
);
}
);
width = 631;
}
);
note = V;
unicode = 0056;
},
{
glyphname = W;
lastChange = "2018-03-19 02:57:09 +0000";
layers = (
{
anchors = (
{
name = bottom;
position = "{463, 0}";
},
{
name = top;
position = "{463, 665}";
}
);
layerId = "E1ADDF7C-A343-4E6D-B630-136BDFE64807";
paths = (
{
closed = 1;
nodes = (
"794 666 LINE",
"612 145 LINE",
"511 422 LINE",
"423 666 LINE",
"326 666 LINE",
"416 418 LINE",
"320 145 LINE",
"132 666 LINE",
"35 666 LINE",
"276 0 LINE",
"366 0 LINE",
"465 283 LINE",
"568 0 LINE",
"657 0 LINE",
"891 666 LINE"
);
}
);
width = 926;
}
);
note = W;
unicode = 0057;
},
{
glyphname = X;
lastChange = "2018-03-18 23:32:31 +0000";
layers = (
{
layerId = "E1ADDF7C-A343-4E6D-B630-136BDFE64807";
paths = (
{
closed = 1;
nodes = (
"337 333 LINE",
"539 665 LINE",
"435 665 LINE",
"285 418 LINE",
"135 665 LINE",
"31 665 LINE",
"233 332 LINE",
"31 0 LINE",
"135 0 LINE",
"285 246 LINE",
"434 0 LINE",
"539 0 LINE"
);
}
);
width = 570;
}
);
note = X;
unicode = 0058;
},
{
glyphname = Y;
lastChange = "2018-03-18 23:41:50 +0000";
layers = (
{
anchors = (
{
name = bottom;
position = "{280, 0}";
},
{
name = top;
position = "{280, 665}";
},
{
name = topleft;
position = "{20, 665}";
}
);
layerId = "E1ADDF7C-A343-4E6D-B630-136BDFE64807";
paths = (
{
closed = 1;
nodes = (
"428 665 LINE",
"280 357 LINE",
"132 665 LINE",
"33 665 LINE",
"236 243 LINE",
"236 0 LINE",
"325 0 LINE",
"325 245 LINE",
"527 665 LINE"
);
}
);
width = 560;
}
);
note = Y;
unicode = 0059;
},
{
glyphname = Z;
lastChange = "2018-03-18 23:41:55 +0000";
layers = (
{
anchors = (
{
name = bottom;
position = "{266, 0}";
},
{
name = top;
position = "{266, 665}";
}
);
layerId = "E1ADDF7C-A343-4E6D-B630-136BDFE64807";
paths = (
{
closed = 1;
nodes = (
"492 91 LINE",
"155 91 LINE",
"492 584 LINE",
"492 665 LINE",
"40 665 LINE",
"40 575 LINE",
"378 575 LINE",
"40 79 LINE",
"40 0 LINE",
"492 0 LINE"
);
}
);
width = 532;
}
);
note = Z;
unicode = 005A;
},
{
glyphname = a;
lastChange = "2018-04-11 02:43:30 +0000";
layers = (
{
anchors = (
{
name = bottom;
position = "{298, 0}";
},
{
name = ogonek;
position = "{519, 10}";
},
{
name = top;
position = "{298, 500}";
}
);
layerId = "E1ADDF7C-A343-4E6D-B630-136BDFE64807";
paths = (
{
closed = 1;
nodes = (
"545 488 LINE",
"455 488 LINE",
"455 422 LINE",
"415 470 OFFCURVE",
"356 498 OFFCURVE",
"292 498 CURVE SMOOTH",
"221 498 OFFCURVE",
"160 471 OFFCURVE",
"114 425 CURVE SMOOTH",
"68 379 OFFCURVE",
"40 315 OFFCURVE",
"40 246 CURVE SMOOTH",
"40 177 OFFCURVE",
"68 113 OFFCURVE",
"114 68 CURVE SMOOTH",
"160 23 OFFCURVE",
"221 -5 OFFCURVE",
"292 -5 CURVE SMOOTH",
"356 -5 OFFCURVE",
"414 28 OFFCURVE",
"455 76 CURVE",
"455 0 LINE",
"545 0 LINE"
);
},
{
closed = 1;
nodes = (
"337 409 OFFCURVE",
"378 391 OFFCURVE",
"407 362 CURVE SMOOTH",
"436 333 OFFCURVE",
"454 291 OFFCURVE",
"454 246 CURVE SMOOTH",
"454 201 OFFCURVE",
"436 160 OFFCURVE",
"407 131 CURVE SMOOTH",
"378 102 OFFCURVE",
"337 84 OFFCURVE",
"292 84 CURVE SMOOTH",
"247 84 OFFCURVE",
"205 102 OFFCURVE",
"176 131 CURVE SMOOTH",
"147 160 OFFCURVE",
"129 201 OFFCURVE",
"129 246 CURVE SMOOTH",
"129 291 OFFCURVE",
"147 333 OFFCURVE",
"176 362 CURVE SMOOTH",
"205 391 OFFCURVE",
"247 409 OFFCURVE",
"292 409 CURVE SMOOTH"
);
}
);
width = 595;
}
);
leftKerningGroup = "rounded-low";
note = a;
unicode = 0061;
},
{
glyphname = b;
lastChange = "2018-04-11 02:43:30 +0000";
layers = (
{
anchors = (
{
name = bottom;
position = "{299, 0}";
},
{
name = top;
position = "{299, 500}";
}
);
layerId = "E1ADDF7C-A343-4E6D-B630-136BDFE64807";
paths = (
{
closed = 1;
nodes = (
"373 -5 OFFCURVE",
"438 23 OFFCURVE",
"483 70 CURVE SMOOTH",
"528 117 OFFCURVE",
"557 180 OFFCURVE",
"557 251 CURVE SMOOTH",
"557 322 OFFCURVE",
"528 385 OFFCURVE",
"483 432 CURVE SMOOTH",
"438 479 OFFCURVE",
"373 507 OFFCURVE",
"304 507 CURVE SMOOTH",
"220 507 OFFCURVE",
"163 463 OFFCURVE",
"138 428 CURVE",
"138 664 LINE",
"50 664 LINE",
"50 0 LINE",
"138 0 LINE",
"138 77 LINE",
"179 28 OFFCURVE",
"240 -5 OFFCURVE",
"304 -5 CURVE SMOOTH"
);
},
{
closed = 1;
nodes = (
"349 416 OFFCURVE",
"390 398 OFFCURVE",
"419 368 CURVE SMOOTH",
"448 338 OFFCURVE",
"467 296 OFFCURVE",
"467 251 CURVE SMOOTH",
"467 204 OFFCURVE",
"448 164 OFFCURVE",
"419 134 CURVE SMOOTH",
"390 104 OFFCURVE",
"349 85 OFFCURVE",
"304 85 CURVE SMOOTH",
"259 85 OFFCURVE",
"217 104 OFFCURVE",
"188 134 CURVE SMOOTH",
"159 164 OFFCURVE",
"140 204 OFFCURVE",
"140 251 CURVE SMOOTH",
"140 296 OFFCURVE",
"159 338 OFFCURVE",
"188 368 CURVE SMOOTH",
"217 398 OFFCURVE",
"259 416 OFFCURVE",
"304 416 CURVE SMOOTH"
);
}
);
width = 597;
}
);
leftKerningGroup = "vert-low";
note = b;
unicode = 0062;
},
{
glyphname = c;
lastChange = "2018-04-11 02:43:30 +0000";
layers = (
{
anchors = (
{
name = bottom;
position = "{262, 0}";
},
{
name = top;
position = "{262, 500}";
}
);
layerId = "E1ADDF7C-A343-4E6D-B630-136BDFE64807";
paths = (
{
closed = 1;
nodes = (
"368 -5 OFFCURVE",
"435 28 OFFCURVE",
"490 95 CURVE",
"412 140 LINE",
"377 103 OFFCURVE",
"337 85 OFFCURVE",
"290 85 CURVE SMOOTH",
"246 85 OFFCURVE",
"205 103 OFFCURVE",
"176 132 CURVE SMOOTH",
"147 161 OFFCURVE",
"128 202 OFFCURVE",
"128 247 CURVE SMOOTH",
"128 292 OFFCURVE",
"147 333 OFFCURVE",
"176 362 CURVE SMOOTH",
"205 391 OFFCURVE",
"246 409 OFFCURVE",
"290 409 CURVE SMOOTH",
"337 409 OFFCURVE",
"377 391 OFFCURVE",
"412 354 CURVE",
"490 399 LINE",
"435 466 OFFCURVE",
"368 499 OFFCURVE",
"290 499 CURVE SMOOTH",
"221 499 OFFCURVE",
"158 470 OFFCURVE",
"113 425 CURVE SMOOTH",
"68 380 OFFCURVE",
"40 316 OFFCURVE",
"40 247 CURVE SMOOTH",
"40 178 OFFCURVE",
"68 114 OFFCURVE",
"113 69 CURVE SMOOTH",
"158 24 OFFCURVE",
"221 -5 OFFCURVE",
"290 -5 CURVE SMOOTH"
);
}
);
width = 524;
}
);
leftKerningGroup = "rounded-low";
note = c;
unicode = 0063;
},
{
glyphname = d;
lastChange = "2018-04-16 03:18:31 +0000";
layers = (
{
anchors = (
{
name = bottom;
position = "{299, 0}";
},
{
name = center;
position = "{385, 250}";
},
{
name = top;
position = "{299, 665}";
},
{
name = topright;
position = "{577, 500}";
}
);
layerId = "E1ADDF7C-A343-4E6D-B630-136BDFE64807";
paths = (
{
closed = 1;
nodes = (
"547 664 LINE",
"459 664 LINE",
"459 428 LINE",
"421 476 OFFCURVE",
"364 507 OFFCURVE",
"293 507 CURVE SMOOTH",
"222 507 OFFCURVE",
"159 479 OFFCURVE",
"114 432 CURVE SMOOTH",
"69 385 OFFCURVE",
"40 322 OFFCURVE",
"40 251 CURVE SMOOTH",
"40 180 OFFCURVE",
"69 117 OFFCURVE",
"114 70 CURVE SMOOTH",
"159 23 OFFCURVE",
"222 -5 OFFCURVE",
"293 -5 CURVE SMOOTH",
"357 -5 OFFCURVE",
"418 28 OFFCURVE",
"459 77 CURVE",
"459 0 LINE",
"547 0 LINE"
);
},
{
closed = 1;
nodes = (
"338 416 OFFCURVE",
"380 398 OFFCURVE",
"409 368 CURVE SMOOTH",
"438 338 OFFCURVE",
"457 296 OFFCURVE",
"457 251 CURVE SMOOTH",
"457 204 OFFCURVE",
"438 164 OFFCURVE",
"409 134 CURVE SMOOTH",
"380 104 OFFCURVE",
"338 85 OFFCURVE",
"293 85 CURVE SMOOTH",
"248 85 OFFCURVE",
"207 104 OFFCURVE",
"178 134 CURVE SMOOTH",
"149 164 OFFCURVE",
"130 204 OFFCURVE",
"130 251 CURVE SMOOTH",
"130 296 OFFCURVE",
"149 338 OFFCURVE",
"178 368 CURVE SMOOTH",
"207 398 OFFCURVE",
"248 416 OFFCURVE",
"293 416 CURVE SMOOTH"
);
}
);
width = 597;
}
);
leftKerningGroup = "rounded-low";
note = d;
unicode = 0064;
},
{
glyphname = eth;
lastChange = "2018-04-11 02:39:09 +0000";
layers = (
{
components = (
{
name = six;
transform = "{-1, 0, 0, 1, 484, 0}";
}
);
layerId = "E1ADDF7C-A343-4E6D-B630-136BDFE64807";
paths = (
{
closed = 1;
nodes = (
"138 509 LINE",
"395 564 LINE",
"383 619 LINE",
"126 564 LINE"
);
}
);
width = 484;
}
);
unicode = 00F0;
},
{
glyphname = e;
lastChange = "2018-04-18 21:53:06 +0000";
layers = (
{
anchors = (
{
name = bottom;
position = "{292, 0}";
},
{
name = ogonek;
position = "{350, 24}";
},
{
name = top;
position = "{292, 499}";
}
);
layerId = "E1ADDF7C-A343-4E6D-B630-136BDFE64807";
paths = (
{
closed = 1;
nodes = (
"553 293 OFFCURVE",
"527 368 OFFCURVE",
"470 426 CURVE SMOOTH",
"425 472 OFFCURVE",
"361 499 OFFCURVE",
"292 499 CURVE SMOOTH",
"223 499 OFFCURVE",
"159 472 OFFCURVE",
"114 426 CURVE SMOOTH",
"69 380 OFFCURVE",
"40 316 OFFCURVE",
"40 247 CURVE SMOOTH",
"40 178 OFFCURVE",
"69 114 OFFCURVE",
"114 69 CURVE SMOOTH",
"159 24 OFFCURVE",
"223 -5 OFFCURVE",
"292 -5 CURVE SMOOTH",
"384 -5 OFFCURVE",
"462 43 OFFCURVE",
"513 126 CURVE",
"437 171 LINE",
"400 114 OFFCURVE",
"352 85 OFFCURVE",
"292 85 CURVE SMOOTH",
"255 85 OFFCURVE",
"221 97 OFFCURVE",
"194 118 CURVE SMOOTH",
"166 139 OFFCURVE",
"136 177 OFFCURVE",
"136 212 CURVE",
"541 212 LINE"
);
},
{
closed = 1;
nodes = (
"377 417 OFFCURVE",
"448 355 OFFCURVE",
"448 289 CURVE",
"136 289 LINE",
"136 355 OFFCURVE",
"208 417 OFFCURVE",
"292 417 CURVE SMOOTH"
);
}
);
width = 584;
}
);
leftKerningGroup = "rounded-low";
note = e;
unicode = 0065;
},
{
glyphname = f;
lastChange = "2018-04-11 02:43:30 +0000";
layers = (
{
layerId = "E1ADDF7C-A343-4E6D-B630-136BDFE64807";
paths = (
{
closed = 1;
nodes = (
"285 500 LINE",
"184 500 LINE",
"187 547 OFFCURVE",
"228 583 OFFCURVE",
"285 580 CURVE",
"285 666 LINE",
"185 666 OFFCURVE",
"102 598 OFFCURVE",
"98 500 CURVE",
"50 500 LINE",
"50 416 LINE",
"97 416 LINE",
"97 0 LINE",
"181 0 LINE",
"181 416 LINE",
"285 416 LINE"
);
}
);
width = 315;
}
);
leftKerningGroup = "vert-low";
note = f;
unicode = 0066;
},
{
glyphname = g;
lastChange = "2018-04-11 02:43:30 +0000";
layers = (
{
anchors = (
{
name = bottom;
position = "{297, 0}";
},
{
name = top;
position = "{297, 500}";
}
);
layerId = "E1ADDF7C-A343-4E6D-B630-136BDFE64807";
paths = (
{
closed = 1;
nodes = (
"361 -213 OFFCURVE",
"425 -184 OFFCURVE",
"470 -138 CURVE SMOOTH",
"515 -92 OFFCURVE",
"544 -29 OFFCURVE",
"544 42 CURVE SMOOTH",
"544 491 LINE",
"454 491 LINE",
"454 422 LINE",
"430 454 OFFCURVE",
"372 500 OFFCURVE",
"291 500 CURVE SMOOTH",
"222 500 OFFCURVE",
"159 472 OFFCURVE",
"114 428 CURVE SMOOTH",
"69 383 OFFCURVE",
"40 320 OFFCURVE",
"40 251 CURVE SMOOTH",
"40 183 OFFCURVE",
"68 118 OFFCURVE",
"113 70 CURVE SMOOTH",
"158 21 OFFCURVE",
"222 -10 OFFCURVE",
"291 -10 CURVE SMOOTH",
"355 -10 OFFCURVE",
"410 17 OFFCURVE",
"454 66 CURVE",
"454 42 LINE SMOOTH",
"454 -3 OFFCURVE",
"436 -44 OFFCURVE",
"407 -74 CURVE SMOOTH",
"378 -104 OFFCURVE",
"337 -123 OFFCURVE",
"292 -123 CURVE SMOOTH",
"243 -123 OFFCURVE",
"201 -102 OFFCURVE",
"165 -60 CURVE",
"86 -107 LINE",
"142 -175 OFFCURVE",
"212 -213 OFFCURVE",
"292 -213 CURVE SMOOTH"
);
},
{
closed = 1;
nodes = (
"336 409 OFFCURVE",
"377 391 OFFCURVE",
"406 361 CURVE SMOOTH",
"435 331 OFFCURVE",
"453 289 OFFCURVE",
"453 244 CURVE SMOOTH",
"453 199 OFFCURVE",
"435 157 OFFCURVE",
"406 128 CURVE SMOOTH",
"377 99 OFFCURVE",
"336 80 OFFCURVE",
"291 80 CURVE SMOOTH",
"246 80 OFFCURVE",
"205 99 OFFCURVE",
"176 128 CURVE SMOOTH",
"147 157 OFFCURVE",
"128 199 OFFCURVE",
"128 244 CURVE SMOOTH",
"128 289 OFFCURVE",
"147 331 OFFCURVE",
"176 361 CURVE SMOOTH",
"205 391 OFFCURVE",
"246 409 OFFCURVE",
"291 409 CURVE SMOOTH"
);
}
);
width = 594;
}
);
leftKerningGroup = "rounded-low";
note = g;
unicode = 0067;
},
{
glyphname = h;
lastChange = "2018-04-11 02:43:30 +0000";
layers = (
{
anchors = (
{
name = bottom;
position = "{249, 0}";
},
{
name = center;
position = "{212, 582}";
},
{
name = top;
position = "{249, 665}";
}
);
layerId = "E1ADDF7C-A343-4E6D-B630-136BDFE64807";
paths = (
{
closed = 1;
nodes = (
"447 307 LINE SMOOTH",
"447 363 OFFCURVE",
"425 414 OFFCURVE",
"389 451 CURVE SMOOTH",
"353 487 OFFCURVE",
"304 510 OFFCURVE",
"249 510 CURVE SMOOTH",
"209 510 OFFCURVE",
"170 495 OFFCURVE",
"138 465 CURVE",
"138 667 LINE",
"50 667 LINE",
"50 0 LINE",
"138 0 LINE",
"138 307 LINE SMOOTH",
"138 339 OFFCURVE",
"151 367 OFFCURVE",
"171 387 CURVE SMOOTH",
"191 407 OFFCURVE",
"218 420 OFFCURVE",
"249 420 CURVE SMOOTH",
"278 420 OFFCURVE",
"306 407 OFFCURVE",
"326 387 CURVE SMOOTH",
"346 367 OFFCURVE",
"359 339 OFFCURVE",
"359 307 CURVE SMOOTH",
"359 0 LINE",
"447 0 LINE"
);
}
);
width = 497;
}
);
leftKerningGroup = "vert-low";
note = h;
unicode = 0068;
},
{
glyphname = i;
lastChange = "2018-04-11 02:43:30 +0000";
layers = (
{
components = (
{
name = idotless;
}
);
layerId = "E1ADDF7C-A343-4E6D-B630-136BDFE64807";
paths = (
{
closed = 1;
nodes = (
"121 572 OFFCURVE",
"142 592 OFFCURVE",
"142 618 CURVE SMOOTH",
"142 643 OFFCURVE",
"121 664 OFFCURVE",
"96 664 CURVE SMOOTH",
"70 664 OFFCURVE",
"50 643 OFFCURVE",
"50 618 CURVE SMOOTH",
"50 592 OFFCURVE",
"70 572 OFFCURVE",
"96 572 CURVE SMOOTH"
);
}
);
width = 192;
}
);
leftKerningGroup = "vert-low";
note = i;
unicode = 0069;
},
{
glyphname = idotless;
lastChange = "2018-04-16 03:16:44 +0000";
layers = (
{
anchors = (
{
name = bottom;
position = "{96, 0}";
},
{
name = ogonek;
position = "{106, 10}";
},
{
name = top;
position = "{96, 500}";
}
);
layerId = "E1ADDF7C-A343-4E6D-B630-136BDFE64807";
paths = (
{
closed = 1;
nodes = (
"139 500 LINE",
"55 500 LINE",
"55 0 LINE",
"139 0 LINE"
);
}
);
width = 192;
}
);
leftKerningGroup = "vert-low";
unicode = 0131;
},
{
glyphname = j;
lastChange = "2018-04-11 00:42:28 +0000";
layers = (
{
components = (
{
name = jdotless;
}
);
layerId = "E1ADDF7C-A343-4E6D-B630-136BDFE64807";
paths = (
{
closed = 1;
nodes = (
"168 573 OFFCURVE",
"189 593 OFFCURVE",
"189 619 CURVE SMOOTH",
"189 644 OFFCURVE",
"168 665 OFFCURVE",
"143 665 CURVE SMOOTH",
"117 665 OFFCURVE",
"97 644 OFFCURVE",
"97 619 CURVE SMOOTH",
"97 593 OFFCURVE",
"117 573 OFFCURVE",
"143 573 CURVE SMOOTH"
);
}
);
width = 244;
}
);
note = j;
unicode = 006A;
},
{
glyphname = jdotless;
lastChange = "2018-04-11 00:42:19 +0000";
layers = (
{
layerId = "E1ADDF7C-A343-4E6D-B630-136BDFE64807";
paths = (
{
closed = 1;
nodes = (
"53 -213 OFFCURVE",
"100 -191 OFFCURVE",
"133 -157 CURVE SMOOTH",
"166 -123 OFFCURVE",
"185 -75 OFFCURVE",
"185 -23 CURVE SMOOTH",
"185 500 LINE",
"102 500 LINE",
"102 -23 LINE SMOOTH",
"102 -79 OFFCURVE",
"63 -123 OFFCURVE",
"0 -123 CURVE",
"0 -213 LINE"
);
}
);
width = 244;
}
);
unicode = 0237;
},
{
glyphname = k;
lastChange = "2018-04-16 03:21:22 +0000";
layers = (
{
layerId = "E1ADDF7C-A343-4E6D-B630-136BDFE64807";
paths = (
{
closed = 1;
nodes = (
"168 286 LINE",
"405 506 LINE",
"274 506 LINE",
"138 378 LINE",
"138 665 LINE",
"50 665 LINE",
"50 0 LINE",
"138 0 LINE",
"138 185 LINE",
"290 0 LINE",
"406 0 LINE"
);
}
);
width = 446;
}
);
leftKerningGroup = "vert-low";
note = k;
unicode = 006B;
},
{
glyphname = l;
lastChange = "2018-04-11 02:43:30 +0000";
layers = (
{
anchors = (
{
name = bottom;
position = "{89, 0}";
},
{
name = center;
position = "{89, 340}";
},
{
name = top;
position = "{89, 665}";
},
{
name = topright;
position = "{158, 500}";
}
);
layerId = "E1ADDF7C-A343-4E6D-B630-136BDFE64807";
paths = (
{
closed = 1;
nodes = (
"129 665 LINE",
"49 665 LINE",
"49 0 LINE",
"129 0 LINE"
);
}
);
width = 178;
}
);
leftKerningGroup = "vert-low";
note = l;
unicode = 006C;
},
{
glyphname = m;
lastChange = "2018-04-11 02:43:30 +0000";
layers = (
{
layerId = "E1ADDF7C-A343-4E6D-B630-136BDFE64807";
paths = (
{
closed = 1;
nodes = (
"715 313 LINE SMOOTH",
"715 365 OFFCURVE",
"694 412 OFFCURVE",
"660 446 CURVE SMOOTH",
"626 480 OFFCURVE",
"579 500 OFFCURVE",
"527 500 CURVE SMOOTH",
"467 500 OFFCURVE",
"417 474 OFFCURVE",
"382 434 CURVE",
"347 474 OFFCURVE",
"298 500 OFFCURVE",
"238 500 CURVE SMOOTH",
"203 500 OFFCURVE",
"163 479 OFFCURVE",
"140 451 CURVE",
"140 488 LINE",
"50 488 LINE",
"50 0 LINE",
"140 0 LINE",
"140 311 LINE SMOOTH",
"140 339 OFFCURVE",
"152 364 OFFCURVE",
"170 382 CURVE SMOOTH",
"188 400 OFFCURVE",
"211 410 OFFCURVE",
"238 410 CURVE SMOOTH",
"266 410 OFFCURVE",
"291 399 OFFCURVE",
"309 382 CURVE SMOOTH",
"327 365 OFFCURVE",
"337 341 OFFCURVE",
"337 314 CURVE SMOOTH",
"337 0 LINE",
"428 0 LINE",
"428 314 LINE SMOOTH",
"428 341 OFFCURVE",
"439 365 OFFCURVE",
"457 382 CURVE SMOOTH",
"475 399 OFFCURVE",
"499 410 OFFCURVE",
"527 410 CURVE SMOOTH",
"582 410 OFFCURVE",
"625 368 OFFCURVE",
"625 313 CURVE SMOOTH",
"625 0 LINE",
"715 0 LINE"
);
}
);
width = 765;
}
);
leftKerningGroup = "angled-low";
note = m;
unicode = 006D;
},
{
glyphname = n;
lastChange = "2018-04-11 02:43:30 +0000";
layers = (
{
anchors = (
{
name = bottom;
position = "{244, 0}";
},
{
name = top;
position = "{244, 500}";
}
);
layerId = "E1ADDF7C-A343-4E6D-B630-136BDFE64807";
paths = (
{
closed = 1;
nodes = (
"447 300 LINE SMOOTH",
"447 355 OFFCURVE",
"425 405 OFFCURVE",
"389 441 CURVE SMOOTH",
"353 477 OFFCURVE",
"303 500 OFFCURVE",
"248 500 CURVE SMOOTH",
"208 500 OFFCURVE",
"162 478 OFFCURVE",
"137 447 CURVE",
"137 488 LINE",
"50 488 LINE",
"50 0 LINE",
"137 0 LINE",
"137 300 LINE SMOOTH",
"137 329 OFFCURVE",
"150 357 OFFCURVE",
"170 377 CURVE SMOOTH",
"190 397 OFFCURVE",
"217 410 OFFCURVE",
"248 410 CURVE SMOOTH",
"279 410 OFFCURVE",
"306 398 OFFCURVE",
"326 378 CURVE SMOOTH",
"346 358 OFFCURVE",
"359 331 OFFCURVE",
"359 300 CURVE SMOOTH",
"359 0 LINE",
"447 0 LINE"
);
}
);
width = 487;
}
);
leftKerningGroup = "angled-low";
note = n;
unicode = 006E;
},
{
glyphname = o;
lastChange = "2018-04-11 02:43:30 +0000";
layers = (
{
anchors = (
{
name = bottom;
position = "{293, 0}";
},
{
name = center;
position = "{294, 250}";
},
{
name = ogonek;
position = "{529, 10}";
},
{
name = top;
position = "{293, 503}";
},
{
name = topright;
position = "{568, 500}";
}
);
layerId = "E1ADDF7C-A343-4E6D-B630-136BDFE64807";
paths = (
{
closed = 1;
nodes = (
"364 -5 OFFCURVE",
"428 24 OFFCURVE",
"474 70 CURVE SMOOTH",
"520 116 OFFCURVE",
"548 179 OFFCURVE",
"548 248 CURVE SMOOTH",
"548 319 OFFCURVE",
"520 383 OFFCURVE",
"474 429 CURVE SMOOTH",
"428 475 OFFCURVE",
"364 503 OFFCURVE",
"293 503 CURVE SMOOTH",
"224 503 OFFCURVE",
"161 475 OFFCURVE",
"115 429 CURVE SMOOTH",
"69 383 OFFCURVE",
"40 319 OFFCURVE",
"40 248 CURVE SMOOTH",
"40 179 OFFCURVE",
"69 116 OFFCURVE",
"115 70 CURVE SMOOTH",
"161 24 OFFCURVE",
"224 -5 OFFCURVE",
"293 -5 CURVE SMOOTH"
);
},
{
closed = 1;
nodes = (
"338 414 OFFCURVE",
"381 396 OFFCURVE",
"410 366 CURVE SMOOTH",
"439 336 OFFCURVE",
"458 293 OFFCURVE",
"458 248 CURVE SMOOTH",
"458 203 OFFCURVE",
"439 162 OFFCURVE",
"410 132 CURVE SMOOTH",
"381 102 OFFCURVE",
"338 83 OFFCURVE",
"293 83 CURVE SMOOTH",
"248 83 OFFCURVE",
"208 102 OFFCURVE",
"178 132 CURVE SMOOTH",
"148 162 OFFCURVE",
"129 203 OFFCURVE",
"129 248 CURVE SMOOTH",
"129 293 OFFCURVE",
"148 336 OFFCURVE",
"178 366 CURVE SMOOTH",
"208 396 OFFCURVE",
"248 414 OFFCURVE",
"293 414 CURVE SMOOTH"
);
}
);
width = 588;
}
);
leftKerningGroup = "rounded-low";
note = o;
unicode = 006F;
},
{
glyphname = p;
lastChange = "2018-04-11 02:43:30 +0000";
layers = (
{
layerId = "E1ADDF7C-A343-4E6D-B630-136BDFE64807";
paths = (
{
closed = 1;
nodes = (
"372 -9 OFFCURVE",
"436 20 OFFCURVE",
"481 66 CURVE SMOOTH",
"526 112 OFFCURVE",
"555 175 OFFCURVE",
"555 246 CURVE SMOOTH",
"555 317 OFFCURVE",
"526 380 OFFCURVE",
"481 427 CURVE SMOOTH",
"436 474 OFFCURVE",
"372 502 OFFCURVE",
"303 502 CURVE SMOOTH",
"239 502 OFFCURVE",
"179 467 OFFCURVE",
"139 418 CURVE",
"139 488 LINE",
"50 488 LINE",
"50 -213 LINE",
"139 -213 LINE",
"139 68 LINE",
"180 15 OFFCURVE",
"226 -9 OFFCURVE",
"303 -9 CURVE SMOOTH"
);
},
{
closed = 1;
nodes = (
"348 411 OFFCURVE",
"389 393 OFFCURVE",
"418 363 CURVE SMOOTH",
"447 333 OFFCURVE",
"465 291 OFFCURVE",
"465 246 CURVE SMOOTH",
"465 201 OFFCURVE",
"447 160 OFFCURVE",
"418 130 CURVE SMOOTH",
"389 100 OFFCURVE",
"348 81 OFFCURVE",
"303 81 CURVE SMOOTH",
"258 81 OFFCURVE",
"217 100 OFFCURVE",
"188 130 CURVE SMOOTH",
"159 160 OFFCURVE",
"140 201 OFFCURVE",
"140 246 CURVE SMOOTH",
"140 291 OFFCURVE",
"159 333 OFFCURVE",
"188 363 CURVE SMOOTH",
"217 393 OFFCURVE",
"258 411 OFFCURVE",
"303 411 CURVE SMOOTH"
);
}
);
width = 595;
}
);
leftKerningGroup = "angled-low";
note = p;
unicode = 0070;
},
{
glyphname = thorn;
lastChange = "2018-04-11 02:35:28 +0000";
layers = (
{
layerId = "E1ADDF7C-A343-4E6D-B630-136BDFE64807";
paths = (
{
closed = 1;
nodes = (
"372 -9 OFFCURVE",
"436 20 OFFCURVE",
"481 66 CURVE SMOOTH",
"526 112 OFFCURVE",
"555 175 OFFCURVE",
"555 246 CURVE SMOOTH",
"555 317 OFFCURVE",
"526 380 OFFCURVE",
"481 427 CURVE SMOOTH",
"436 474 OFFCURVE",
"372 502 OFFCURVE",
"303 502 CURVE SMOOTH",
"239 502 OFFCURVE",
"179 467 OFFCURVE",
"139 418 CURVE",
"139 644 LINE",
"50 644 LINE",
"50 -154 LINE",
"139 -154 LINE",
"139 68 LINE",
"180 15 OFFCURVE",
"226 -9 OFFCURVE",
"303 -9 CURVE SMOOTH"
);
},
{
closed = 1;
nodes = (
"348 411 OFFCURVE",
"389 393 OFFCURVE",
"418 363 CURVE SMOOTH",
"447 333 OFFCURVE",
"465 291 OFFCURVE",
"465 246 CURVE SMOOTH",
"465 201 OFFCURVE",
"447 160 OFFCURVE",
"418 130 CURVE SMOOTH",
"389 100 OFFCURVE",
"348 81 OFFCURVE",
"303 81 CURVE SMOOTH",
"258 81 OFFCURVE",
"217 100 OFFCURVE",
"188 130 CURVE SMOOTH",
"159 160 OFFCURVE",
"140 201 OFFCURVE",
"140 246 CURVE SMOOTH",
"140 291 OFFCURVE",
"159 333 OFFCURVE",
"188 363 CURVE SMOOTH",
"217 393 OFFCURVE",
"258 411 OFFCURVE",
"303 411 CURVE SMOOTH"
);
}
);
width = 595;
}
);
unicode = 00FE;
},
{
glyphname = q;
lastChange = "2018-04-11 02:43:30 +0000";
layers = (
{
layerId = "E1ADDF7C-A343-4E6D-B630-136BDFE64807";
paths = (
{
closed = 1;
nodes = (
"545 488 LINE",
"456 488 LINE",
"456 419 LINE",
"416 468 OFFCURVE",
"356 502 OFFCURVE",
"292 502 CURVE SMOOTH",
"223 502 OFFCURVE",
"159 474 OFFCURVE",
"114 427 CURVE SMOOTH",
"69 380 OFFCURVE",
"40 317 OFFCURVE",
"40 246 CURVE SMOOTH",
"40 175 OFFCURVE",
"69 112 OFFCURVE",
"114 66 CURVE SMOOTH",
"159 20 OFFCURVE",
"223 -9 OFFCURVE",
"292 -9 CURVE SMOOTH",
"352 -9 OFFCURVE",
"416 21 OFFCURVE",
"456 67 CURVE",
"456 -213 LINE",
"545 -213 LINE"
);
},
{
closed = 1;
nodes = (
"337 411 OFFCURVE",
"378 393 OFFCURVE",
"407 363 CURVE SMOOTH",
"436 333 OFFCURVE",
"455 291 OFFCURVE",
"455 246 CURVE SMOOTH",
"455 201 OFFCURVE",
"436 160 OFFCURVE",
"407 130 CURVE SMOOTH",
"378 100 OFFCURVE",
"337 81 OFFCURVE",
"292 81 CURVE SMOOTH",
"247 81 OFFCURVE",
"206 100 OFFCURVE",
"177 130 CURVE SMOOTH",
"148 160 OFFCURVE",
"130 201 OFFCURVE",
"130 246 CURVE SMOOTH",
"130 291 OFFCURVE",
"148 333 OFFCURVE",
"177 363 CURVE SMOOTH",
"206 393 OFFCURVE",
"247 411 OFFCURVE",
"292 411 CURVE SMOOTH"
);
}
);
width = 595;
}
);
leftKerningGroup = "rounded-low";
note = q;
unicode = 0071;
},
{
glyphname = r;
lastChange = "2018-04-11 02:31:27 +0000";
layers = (
{
anchors = (
{
name = bottom;
position = "{194, 0}";
},
{
name = top;
position = "{194, 500}";
}
);
layerId = "E1ADDF7C-A343-4E6D-B630-136BDFE64807";
paths = (
{
closed = 1;
nodes = (
"311 490 OFFCURVE",
"273 504 OFFCURVE",
"230 504 CURVE SMOOTH",
"201 504 OFFCURVE",
"176 498 OFFCURVE",
"153 487 CURVE",
"90 454 OFFCURVE",
"50 391 OFFCURVE",
"50 318 CURVE SMOOTH",
"50 0 LINE",
"136 0 LINE",
"136 318 LINE SMOOTH",
"136 345 OFFCURVE",
"147 369 OFFCURVE",
"164 387 CURVE SMOOTH",
"181 405 OFFCURVE",
"205 415 OFFCURVE",
"230 415 CURVE SMOOTH",
"243 415 OFFCURVE",
"258 411 OFFCURVE",
"273 404 CURVE",
"356 453 LINE"
);
}
);
width = 387;
}
);
note = r;
unicode = 0072;
},
{
glyphname = s;
lastChange = "2018-04-11 02:43:30 +0000";
layers = (
{
anchors = (
{
name = bottom;
position = "{216, 0}";
},
{
name = top;
position = "{216, 500}";
}
);
layerId = "E1ADDF7C-A343-4E6D-B630-136BDFE64807";
paths = (
{
closed = 1;
nodes = (
"387 351 LINE",
"389 352 LINE",
"385 383 OFFCURVE",
"378 408 OFFCURVE",
"363 432 CURVE SMOOTH",
"352 449 OFFCURVE",
"336 468 OFFCURVE",
"313 482 CURVE SMOOTH",
"289 496 OFFCURVE",
"257 506 OFFCURVE",
"217 506 CURVE SMOOTH",
"118 506 OFFCURVE",
"54 460 OFFCURVE",
"43 372 CURVE SMOOTH",
"38 329 OFFCURVE",
"49 287 OFFCURVE",
"76 256 CURVE SMOOTH",
"96 232 OFFCURVE",
"133 206 OFFCURVE",
"197 206 CURVE SMOOTH",
"238 206 OFFCURVE",
"266 203 OFFCURVE",
"282 195 CURVE SMOOTH",
"298 187 OFFCURVE",
"304 172 OFFCURVE",
"304 148 CURVE SMOOTH",
"304 115 OFFCURVE",
"277 88 OFFCURVE",
"229 85 CURVE",
"202 82 OFFCURVE",
"170 86 OFFCURVE",
"149 106 CURVE SMOOTH",
"140 115 OFFCURVE",
"133 126 OFFCURVE",
"129 145 CURVE",
"40 145 LINE",
"47 98 OFFCURVE",
"63 66 OFFCURVE",
"90 41 CURVE SMOOTH",
"123 10 OFFCURVE",
"166 -5 OFFCURVE",
"219 -5 CURVE SMOOTH",
"234 -5 LINE SMOOTH",
"279 -5 OFFCURVE",
"319 15 OFFCURVE",
"347 42 CURVE SMOOTH",
"377 71 OFFCURVE",
"393 106 OFFCURVE",
"392 148 CURVE SMOOTH",
"389 265 OFFCURVE",
"318 289 OFFCURVE",
"197 295 CURVE SMOOTH",
"169 296 OFFCURVE",
"153 303 OFFCURVE",
"142 315 CURVE SMOOTH",
"116 342 OFFCURVE",
"120 392 OFFCURVE",
"168 411 CURVE SMOOTH",
"191 420 OFFCURVE",
"264 428 OFFCURVE",
"289 385 CURVE",
"296 374 OFFCURVE",
"300 363 OFFCURVE",
"302 351 CURVE"
);
}
);
width = 432;
}
);
leftKerningGroup = "rounded-low";
note = s;
unicode = 0073;
},
{
glyphname = germandbls;
lastChange = "2018-03-18 23:54:44 +0000";
layers = (
{
layerId = "E1ADDF7C-A343-4E6D-B630-136BDFE64807";
paths = (
{
closed = 1;
nodes = (
"50 666 LINE",
"50 0 LINE",
"138 0 LINE",
"138 288 LINE",
"268 288 LINE SMOOTH",
"295 288 OFFCURVE",
"320 277 OFFCURVE",
"337 259 CURVE SMOOTH",
"354 241 OFFCURVE",
"365 216 OFFCURVE",
"365 188 CURVE SMOOTH",
"365 133 OFFCURVE",
"323 91 OFFCURVE",
"268 90 CURVE SMOOTH",
"220 89 LINE",
"220 0 LINE",
"268 0 LINE SMOOTH",
"319 0 OFFCURVE",
"366 21 OFFCURVE",
"399 55 CURVE SMOOTH",
"432 89 OFFCURVE",
"453 136 OFFCURVE",
"453 188 CURVE SMOOTH",
"453 253 OFFCURVE",
"423 308 OFFCURVE",
"376 343 CURVE",
"409 378 OFFCURVE",
"430 425 OFFCURVE",
"430 478 CURVE SMOOTH",
"430 530 OFFCURVE",
"409 579 OFFCURVE",
"376 615 CURVE SMOOTH",
"343 650 OFFCURVE",
"313 667 OFFCURVE",
"245 667 CURVE"
);
},
{
closed = 1;
nodes = (
"272 576 OFFCURVE",
"296 566 OFFCURVE",
"314 548 CURVE SMOOTH",
"332 530 OFFCURVE",
"342 505 OFFCURVE",
"342 478 CURVE SMOOTH",
"342 450 OFFCURVE",
"332 425 OFFCURVE",
"314 407 CURVE SMOOTH",
"296 389 OFFCURVE",
"272 378 OFFCURVE",
"245 378 CURVE SMOOTH",
"138 378 LINE",
"138 576 LINE",
"245 576 LINE SMOOTH"
);
}
);
width = 493;
}
);
note = germandbls;
unicode = 00DF;
},
{
glyphname = t;
lastChange = "2018-04-11 02:43:30 +0000";
layers = (
{
anchors = (
{
name = bottom;
position = "{158, 0}";
},
{
name = center;
position = "{158, 590}";
},
{
name = top;
position = "{158, 665}";
},
{
name = topright;
position = "{295, 500}";
}
);
layerId = "E1ADDF7C-A343-4E6D-B630-136BDFE64807";
paths = (
{
closed = 1;
nodes = (
"275 500 LINE",
"200 500 LINE",
"200 665 LINE",
"115 665 LINE",
"115 500 LINE",
"40 500 LINE",
"40 410 LINE",
"115 410 LINE",
"115 0 LINE",
"200 0 LINE",
"200 410 LINE",
"275 410 LINE"
);
}
);
width = 315;
}
);
leftKerningGroup = "vert-low";
note = t;
unicode = 0074;
},
{
glyphname = u;
lastChange = "2018-04-16 03:19:53 +0000";
layers = (
{
anchors = (
{
name = bottom;
position = "{239, 0}";
},
{
name = ogonek;
position = "{409, 10}";
},
{
name = top;
position = "{239, 500}";
},
{
name = topright;
position = "{467, 500}";
}
);
layerId = "E1ADDF7C-A343-4E6D-B630-136BDFE64807";
paths = (
{
closed = 1;
nodes = (
"437 500 LINE",
"350 500 LINE",
"350 197 LINE SMOOTH",
"350 166 OFFCURVE",
"337 138 OFFCURVE",
"317 118 CURVE SMOOTH",
"297 98 OFFCURVE",
"268 85 OFFCURVE",
"239 85 CURVE SMOOTH",
"208 85 OFFCURVE",
"181 98 OFFCURVE",
"161 118 CURVE SMOOTH",
"141 138 OFFCURVE",
"128 166 OFFCURVE",
"128 197 CURVE SMOOTH",
"128 500 LINE",
"40 500 LINE",
"40 197 LINE SMOOTH",
"40 141 OFFCURVE",
"62 91 OFFCURVE",
"98 55 CURVE SMOOTH",
"134 19 OFFCURVE",
"184 -4 OFFCURVE",
"239 -4 CURVE SMOOTH",
"279 -4 OFFCURVE",
"324 17 OFFCURVE",
"350 45 CURVE",
"350 3 LINE",
"437 3 LINE"
);
}
);
width = 487;
}
);
leftKerningGroup = "angled-low";
note = u;
unicode = 0075;
},
{
glyphname = v;
lastChange = "2018-04-11 02:43:30 +0000";
layers = (
{
layerId = "E1ADDF7C-A343-4E6D-B630-136BDFE64807";
paths = (
{
closed = 1;
nodes = (
"424 500 LINE",
"280 135 LINE",
"135 500 LINE",
"40 500 LINE",
"237 0 LINE",
"322 0 LINE",
"519 500 LINE"
);
}
);
width = 559;
}
);
leftKerningGroup = "v-w-low";
note = v;
unicode = 0076;
},
{
glyphname = w;
lastChange = "2018-04-11 02:43:30 +0000";
layers = (
{
anchors = (
{
name = bottom;
position = "{419, 0}";
},
{
name = top;
position = "{419, 500}";
}
);
layerId = "E1ADDF7C-A343-4E6D-B630-136BDFE64807";
paths = (
{
closed = 1;
nodes = (
"701 500 LINE",
"554 135 LINE",
"407 500 LINE",
"309 500 LINE",
"371 346 LINE",
"285 135 LINE",
"138 500 LINE",
"40 500 LINE",
"242 0 LINE",
"329 0 LINE",
"420 226 LINE",
"511 0 LINE",
"598 0 LINE",
"798 500 LINE"
);
}
);
width = 838;
}
);
leftKerningGroup = "v-w-low";
note = w;
unicode = 0077;
},
{
glyphname = x;
lastChange = "2018-04-11 02:43:30 +0000";
layers = (
{
layerId = "E1ADDF7C-A343-4E6D-B630-136BDFE64807";
paths = (
{
closed = 1;
nodes = (
"349 500 LINE",
"246 329 LINE",
"142 500 LINE",
"40 500 LINE",
"194 244 LINE",
"47 0 LINE",
"149 0 LINE",
"246 159 LINE",
"342 0 LINE",
"446 0 LINE",
"297 244 LINE",
"452 500 LINE"
);
}
);
width = 492;
}
);
leftKerningGroup = "v-w-low";
note = x;
unicode = 0078;
},
{
glyphname = y;
lastChange = "2018-04-11 02:43:30 +0000";
layers = (
{
anchors = (
{
name = bottom;
position = "{262, 0}";
},
{
name = top;
position = "{262, 500}";
}
);
layerId = "E1ADDF7C-A343-4E6D-B630-136BDFE64807";
paths = (
{
closed = 1;
nodes = (
"317 -213 OFFCURVE",
"371 -188 OFFCURVE",
"411 -148 CURVE SMOOTH",
"450 -108 OFFCURVE",
"474 -52 OFFCURVE",
"474 9 CURVE SMOOTH",
"474 500 LINE",
"386 500 LINE",
"386 213 LINE SMOOTH",
"386 140 OFFCURVE",
"329 81 OFFCURVE",
"257 81 CURVE SMOOTH",
"186 81 OFFCURVE",
"128 141 OFFCURVE",
"128 213 CURVE SMOOTH",
"128 500 LINE",
"40 500 LINE",
"40 207 LINE SMOOTH",
"40 147 OFFCURVE",
"65 93 OFFCURVE",
"105 54 CURVE SMOOTH",
"144 15 OFFCURVE",
"198 -9 OFFCURVE",
"257 -9 CURVE SMOOTH",
"306 -9 OFFCURVE",
"356 13 OFFCURVE",
"386 44 CURVE",
"386 9 LINE SMOOTH",
"386 -27 OFFCURVE",
"372 -60 OFFCURVE",
"349 -84 CURVE SMOOTH",
"325 -108 OFFCURVE",
"293 -123 OFFCURVE",
"257 -123 CURVE SMOOTH",
"213 -123 OFFCURVE",
"173 -100 OFFCURVE",
"145 -55 CURVE",
"67 -100 LINE",
"114 -172 OFFCURVE",
"180 -213 OFFCURVE",
"257 -213 CURVE SMOOTH"
);
}
);
width = 524;
}
);
leftKerningGroup = "angled-low";
note = y;
unicode = 0079;
},
{
glyphname = z;
lastChange = "2018-04-11 02:31:56 +0000";
layers = (
{
anchors = (
{
name = bottom;
position = "{243, 0}";
},
{
name = top;
position = "{243, 500}";
}
);
layerId = "E1ADDF7C-A343-4E6D-B630-136BDFE64807";
paths = (
{
closed = 1;
nodes = (
"445 89 LINE",
"165 89 LINE",
"445 414 LINE",
"445 496 LINE",
"40 496 LINE",
"40 407 LINE",
"321 407 LINE",
"40 81 LINE",
"40 0 LINE",
"445 0 LINE"
);
}
);
width = 485;
}
);
note = z;
unicode = 007A;
},
{
glyphname = ordfeminine;
lastChange = "2018-07-19 01:28:16 +0000";
layers = (
{
layerId = "E1ADDF7C-A343-4E6D-B630-136BDFE64807";
paths = (
{
closed = 1;
nodes = (
"249 391 LINE",
"316 391 LINE",
"316 665 LINE",
"249 665 LINE"
);
},
{
closed = 1;
nodes = (
"214 394 OFFCURVE",
"250 409 OFFCURVE",
"275 434 CURVE SMOOTH",
"300 459 OFFCURVE",
"315 492 OFFCURVE",
"315 531 CURVE SMOOTH",
"315 568 OFFCURVE",
"299 603 OFFCURVE",
"275 628 CURVE SMOOTH",
"250 654 OFFCURVE",
"214 668 OFFCURVE",
"177 668 CURVE SMOOTH",
"138 668 OFFCURVE",
"105 653 OFFCURVE",
"80 628 CURVE SMOOTH",
"55 603 OFFCURVE",
"40 568 OFFCURVE",
"40 531 CURVE SMOOTH",
"40 492 OFFCURVE",
"55 459 OFFCURVE",
"80 434 CURVE SMOOTH",
"105 409 OFFCURVE",
"138 394 OFFCURVE",
"177 394 CURVE SMOOTH"
);
},
{
closed = 1;
nodes = (
"216 601 OFFCURVE",
"247 570 OFFCURVE",
"247 531 CURVE SMOOTH",
"247 492 OFFCURVE",
"216 461 OFFCURVE",
"177 461 CURVE SMOOTH",
"138 461 OFFCURVE",
"107 492 OFFCURVE",
"107 531 CURVE SMOOTH",
"107 570 OFFCURVE",
"138 601 OFFCURVE",
"177 601 CURVE SMOOTH"
);
}
);
width = 356;
}
);
note = ordfeminine;
unicode = 00AA;
},
{
glyphname = ordmasculine;
lastChange = "2018-07-19 01:27:34 +0000";
layers = (
{
layerId = "E1ADDF7C-A343-4E6D-B630-136BDFE64807";
paths = (
{
closed = 1;
nodes = (
"214 394 OFFCURVE",
"250 409 OFFCURVE",
"275 434 CURVE SMOOTH",
"300 459 OFFCURVE",
"315 492 OFFCURVE",
"315 531 CURVE SMOOTH",
"315 568 OFFCURVE",
"299 603 OFFCURVE",
"275 628 CURVE SMOOTH",
"250 654 OFFCURVE",
"214 668 OFFCURVE",
"177 668 CURVE SMOOTH",
"138 668 OFFCURVE",
"105 653 OFFCURVE",
"80 628 CURVE SMOOTH",
"55 603 OFFCURVE",
"40 568 OFFCURVE",
"40 531 CURVE SMOOTH",
"40 492 OFFCURVE",
"55 459 OFFCURVE",
"80 434 CURVE SMOOTH",
"105 409 OFFCURVE",
"138 394 OFFCURVE",
"177 394 CURVE SMOOTH"
);
},
{
closed = 1;
nodes = (
"216 601 OFFCURVE",
"247 570 OFFCURVE",
"247 531 CURVE SMOOTH",
"247 492 OFFCURVE",
"216 461 OFFCURVE",
"177 461 CURVE SMOOTH",
"138 461 OFFCURVE",
"107 492 OFFCURVE",
"107 531 CURVE SMOOTH",
"107 570 OFFCURVE",
"138 601 OFFCURVE",
"177 601 CURVE SMOOTH"
);
}
);
width = 355;
}
);
note = ordmasculine;
unicode = 00BA;
},
{
glyphname = zero;
lastChange = "2018-03-18 23:32:31 +0000";
layers = (
{
layerId = "E1ADDF7C-A343-4E6D-B630-136BDFE64807";
paths = (
{
closed = 1;
nodes = (
"323 -5 OFFCURVE",
"372 17 OFFCURVE",
"408 53 CURVE SMOOTH",
"443 89 OFFCURVE",
"464 138 OFFCURVE",
"464 193 CURVE SMOOTH",
"464 472 LINE SMOOTH",
"464 527 OFFCURVE",
"443 576 OFFCURVE",
"408 612 CURVE SMOOTH",
"372 648 OFFCURVE",
"323 670 OFFCURVE",
"270 670 CURVE SMOOTH",
"234 670 LINE SMOOTH",
"181 670 OFFCURVE",
"132 648 OFFCURVE",
"97 612 CURVE SMOOTH",
"62 576 OFFCURVE",
"40 527 OFFCURVE",
"40 472 CURVE SMOOTH",
"40 193 LINE SMOOTH",
"40 138 OFFCURVE",
"62 89 OFFCURVE",
"97 53 CURVE SMOOTH",
"132 17 OFFCURVE",
"181 -5 OFFCURVE",
"234 -5 CURVE SMOOTH",
"270 -5 LINE SMOOTH"
);
},
{
closed = 1;
nodes = (
"376 134 OFFCURVE",
"329 85 OFFCURVE",
"270 85 CURVE SMOOTH",
"234 85 LINE SMOOTH",
"177 85 OFFCURVE",
"128 136 OFFCURVE",
"128 193 CURVE SMOOTH",
"128 472 LINE SMOOTH",
"128 529 OFFCURVE",
"177 580 OFFCURVE",
"234 580 CURVE SMOOTH",
"270 580 LINE SMOOTH",
"329 580 OFFCURVE",
"376 531 OFFCURVE",
"376 472 CURVE SMOOTH",
"376 193 LINE SMOOTH"
);
}
);
width = 504;
}
);
note = zero;
unicode = 0030;
},
{
glyphname = one;
lastChange = "2018-03-18 23:32:31 +0000";
layers = (
{
layerId = "E1ADDF7C-A343-4E6D-B630-136BDFE64807";
paths = (
{
closed = 1;
nodes = (
"255 665 LINE",
"152 665 LINE",
"31 453 LINE",
"129 453 LINE",
"172 528 LINE",
"172 0 LINE",
"255 0 LINE"
);
}
);
width = 305;
}
);
note = one;
unicode = 0031;
},
{
glyphname = two;
lastChange = "2018-07-19 01:40:48 +0000";
layers = (
{
guideLines = (
{
angle = 90;
position = "{38, 418}";
}
);
layerId = "E1ADDF7C-A343-4E6D-B630-136BDFE64807";
paths = (
{
closed = 1;
nodes = (
"387 357 OFFCURVE",
"407 404 OFFCURVE",
"407 459 CURVE SMOOTH",
"407 516 OFFCURVE",
"384 568 OFFCURVE",
"348 605 CURVE SMOOTH",
"312 642 OFFCURVE",
"262 665 OFFCURVE",
"207 665 CURVE SMOOTH",
"56 665 LINE",
"56 575 LINE",
"207 575 LINE SMOOTH",
"238 575 OFFCURVE",
"266 562 OFFCURVE",
"286 541 CURVE SMOOTH",
"306 520 OFFCURVE",
"319 491 OFFCURVE",
"319 459 CURVE SMOOTH",
"319 422 OFFCURVE",
"301 396 OFFCURVE",
"277 377 CURVE SMOOTH",
"252 358 OFFCURVE",
"221 347 OFFCURVE",
"197 342 CURVE",
"52 306 OFFCURVE",
"28 156 OFFCURVE",
"44 0 CURVE",
"375 0 LINE",
"375 90 LINE",
"127 90 LINE",
"127 173 OFFCURVE",
"138 235 OFFCURVE",
"217 255 CURVE SMOOTH",
"268 268 OFFCURVE",
"313 289 OFFCURVE",
"346 320 CURVE SMOOTH"
);
}
);
width = 447;
}
);
note = two;
unicode = 0032;
},
{
glyphname = three;
lastChange = "2018-03-18 23:32:31 +0000";
layers = (
{
layerId = "E1ADDF7C-A343-4E6D-B630-136BDFE64807";
paths = (
{
closed = 1;
nodes = (
"242 0 OFFCURVE",
"287 21 OFFCURVE",
"320 55 CURVE SMOOTH",
"353 89 OFFCURVE",
"373 136 OFFCURVE",
"373 188 CURVE SMOOTH",
"373 245 OFFCURVE",
"348 297 OFFCURVE",
"309 332 CURVE",
"348 367 OFFCURVE",
"373 419 OFFCURVE",
"373 476 CURVE SMOOTH",
"373 528 OFFCURVE",
"353 576 OFFCURVE",
"320 610 CURVE SMOOTH",
"287 644 OFFCURVE",
"242 665 OFFCURVE",
"191 665 CURVE SMOOTH",
"40 665 LINE",
"40 574 LINE",
"191 574 LINE SMOOTH",
"244 574 OFFCURVE",
"286 532 OFFCURVE",
"286 476 CURVE SMOOTH",
"286 448 OFFCURVE",
"275 424 OFFCURVE",
"259 406 CURVE SMOOTH",
"242 388 OFFCURVE",
"218 377 OFFCURVE",
"191 377 CURVE SMOOTH",
"127 377 LINE",
"127 287 LINE",
"191 287 LINE SMOOTH",
"218 287 OFFCURVE",
"242 277 OFFCURVE",
"259 259 CURVE SMOOTH",
"275 241 OFFCURVE",
"286 216 OFFCURVE",
"286 188 CURVE SMOOTH",
"286 132 OFFCURVE",
"244 90 OFFCURVE",
"191 90 CURVE SMOOTH",
"40 90 LINE",
"40 0 LINE",
"191 0 LINE SMOOTH"
);
}
);
width = 413;
}
);
note = three;
unicode = 0033;
},
{
glyphname = four;
lastChange = "2018-03-18 23:32:31 +0000";
layers = (
{
layerId = "E1ADDF7C-A343-4E6D-B630-136BDFE64807";
paths = (
{
closed = 1;
nodes = (
"464 258 LINE",
"380 258 LINE",
"380 359 LINE",
"293 359 LINE",
"293 258 LINE",
"164 258 LINE",
"333 664 LINE",
"238 664 LINE",
"34 169 LINE",
"293 169 LINE",
"293 -1 LINE",
"380 -1 LINE",
"380 169 LINE",
"464 169 LINE"
);
}
);
width = 504;
}
);
note = four;
unicode = 0034;
},
{
glyphname = five;
lastChange = "2018-03-18 23:32:31 +0000";
layers = (
{
layerId = "E1ADDF7C-A343-4E6D-B630-136BDFE64807";
paths = (
{
closed = 1;
nodes = (
"271 0 OFFCURVE",
"321 23 OFFCURVE",
"357 60 CURVE SMOOTH",
"393 97 OFFCURVE",
"415 149 OFFCURVE",
"415 206 CURVE SMOOTH",
"415 262 OFFCURVE",
"393 314 OFFCURVE",
"357 351 CURVE SMOOTH",
"321 388 OFFCURVE",
"271 412 OFFCURVE",
"215 412 CURVE SMOOTH",
"138 412 LINE",
"138 575 LINE",
"383 575 LINE",
"383 665 LINE",
"50 665 LINE",
"50 322 LINE",
"215 322 LINE SMOOTH",
"246 322 OFFCURVE",
"274 308 OFFCURVE",
"295 288 CURVE",
"315 267 OFFCURVE",
"328 238 OFFCURVE",
"328 206 CURVE SMOOTH",
"328 174 OFFCURVE",
"315 145 OFFCURVE",
"295 124 CURVE SMOOTH",
"274 103 OFFCURVE",
"246 90 OFFCURVE",
"215 90 CURVE SMOOTH",
"55 90 LINE",
"55 0 LINE",
"215 0 LINE SMOOTH"
);
}
);
width = 465;
}
);
note = five;
unicode = 0035;
},
{
glyphname = six;
lastChange = "2018-03-18 23:32:31 +0000";
layers = (
{
layerId = "E1ADDF7C-A343-4E6D-B630-136BDFE64807";
paths = (
{
closed = 1;
nodes = (
"298 -4 OFFCURVE",
"349 20 OFFCURVE",
"385 57 CURVE SMOOTH",
"421 94 OFFCURVE",
"444 146 OFFCURVE",
"444 203 CURVE SMOOTH",
"444 260 OFFCURVE",
"421 312 OFFCURVE",
"385 350 CURVE SMOOTH",
"349 388 OFFCURVE",
"298 411 OFFCURVE",
"242 411 CURVE SMOOTH",
"231 411 OFFCURVE",
"218 409 OFFCURVE",
"203 406 CURVE",
"311 665 LINE",
"215 665 LINE",
"57 288 LINE SMOOTH",
"46 261 OFFCURVE",
"40 233 OFFCURVE",
"40 203 CURVE SMOOTH",
"40 146 OFFCURVE",
"63 94 OFFCURVE",
"99 57 CURVE SMOOTH",
"135 20 OFFCURVE",
"186 -4 OFFCURVE",
"242 -4 CURVE SMOOTH"
);
},
{
closed = 1;
nodes = (
"274 320 OFFCURVE",
"302 307 OFFCURVE",
"323 286 CURVE SMOOTH",
"343 265 OFFCURVE",
"356 235 OFFCURVE",
"356 203 CURVE SMOOTH",
"356 171 OFFCURVE",
"343 141 OFFCURVE",
"323 121 CURVE SMOOTH",
"302 100 OFFCURVE",
"274 87 OFFCURVE",
"242 87 CURVE SMOOTH",
"210 87 OFFCURVE",
"181 100 OFFCURVE",
"161 121 CURVE SMOOTH",
"141 141 OFFCURVE",
"128 171 OFFCURVE",
"128 203 CURVE SMOOTH",
"128 235 OFFCURVE",
"141 265 OFFCURVE",
"161 286 CURVE SMOOTH",
"181 307 OFFCURVE",
"210 320 OFFCURVE",
"242 320 CURVE SMOOTH"
);
}
);
width = 484;
}
);
note = six;
unicode = 0036;
},
{
glyphname = seven;
lastChange = "2018-03-18 23:32:31 +0000";
layers = (
{
layerId = "E1ADDF7C-A343-4E6D-B630-136BDFE64807";
paths = (
{
closed = 1;
nodes = (
"40 665 LINE",
"40 574 LINE",
"273 574 LINE",
"153 0 LINE",
"242 0 LINE",
"381 665 LINE"
);
}
);
width = 428;
}
);
note = seven;
unicode = 0037;
},
{
glyphname = eight;
lastChange = "2018-03-18 23:58:44 +0000";
layers = (
{
layerId = "E1ADDF7C-A343-4E6D-B630-136BDFE64807";
paths = (
{
closed = 1;
nodes = (
"343 22 OFFCURVE",
"365 38 OFFCURVE",
"383 58 CURVE SMOOTH",
"419 97 OFFCURVE",
"438 148 OFFCURVE",
"438 202 CURVE",
"437 256 OFFCURVE",
"414 321 OFFCURVE",
"358 362 CURVE",
"406 413 OFFCURVE",
"422 487 OFFCURVE",
"394 555 CURVE SMOOTH",
"366 620 OFFCURVE",
"305 660 OFFCURVE",
"238 660 CURVE SMOOTH",
"193 660 OFFCURVE",
"146 641 OFFCURVE",
"116 607 CURVE SMOOTH",
"86 573 OFFCURVE",
"69 531 OFFCURVE",
"69 485 CURVE SMOOTH",
"69 439 OFFCURVE",
"88 394 OFFCURVE",
"119 362 CURVE",
"83 334 OFFCURVE",
"58 296 OFFCURVE",
"47 253 CURVE SMOOTH",
"35 209 OFFCURVE",
"37 161 OFFCURVE",
"56 117 CURVE SMOOTH",
"89 40 OFFCURVE",
"162 -5 OFFCURVE",
"239 -5 CURVE SMOOTH",
"266 -5 OFFCURVE",
"293 0 OFFCURVE",
"318 11 CURVE SMOOTH"
);
},
{
closed = 1;
nodes = (
"355 414 OFFCURVE",
"207 355 OFFCURVE",
"163 452 CURVE SMOOTH",
"143 496 OFFCURVE",
"165 547 OFFCURVE",
"205 564 CURVE SMOOTH",
"215 568 OFFCURVE",
"226 570 OFFCURVE",
"239 570 CURVE SMOOTH",
"271 570 OFFCURVE",
"302 551 OFFCURVE",
"315 520 CURVE"
);
},
{
closed = 1;
nodes = (
"301 337 OFFCURVE",
"341 245 CURVE SMOOTH",
"366 185 OFFCURVE",
"340 120 OFFCURVE",
"283 93 CURVE SMOOTH",
"270 87 OFFCURVE",
"255 84 OFFCURVE",
"239 84 CURVE SMOOTH",
"194 84 OFFCURVE",
"155 110 OFFCURVE",
"136 153 CURVE SMOOTH",
"124 182 OFFCURVE",
"123 213 OFFCURVE",
"134 241 CURVE SMOOTH",
"174 337 OFFCURVE"
);
}
);
width = 478;
}
);
note = eight;
unicode = 0038;
},
{
glyphname = nine;
lastChange = "2018-03-18 23:32:31 +0000";
layers = (
{
layerId = "E1ADDF7C-A343-4E6D-B630-136BDFE64807";
paths = (
{
closed = 1;
nodes = (
"438 404 OFFCURVE",
"444 432 OFFCURVE",
"444 462 CURVE SMOOTH",
"444 519 OFFCURVE",
"421 571 OFFCURVE",
"385 608 CURVE SMOOTH",
"349 645 OFFCURVE",
"298 669 OFFCURVE",
"242 669 CURVE SMOOTH",
"186 669 OFFCURVE",
"135 645 OFFCURVE",
"99 608 CURVE SMOOTH",
"63 571 OFFCURVE",
"40 519 OFFCURVE",
"40 462 CURVE SMOOTH",
"40 405 OFFCURVE",
"63 354 OFFCURVE",
"99 316 CURVE SMOOTH",
"135 278 OFFCURVE",
"186 254 OFFCURVE",
"242 254 CURVE SMOOTH",
"253 254 OFFCURVE",
"266 256 OFFCURVE",
"281 259 CURVE",
"173 0 LINE",
"269 0 LINE",
"427 377 LINE SMOOTH"
);
},
{
closed = 1;
nodes = (
"274 578 OFFCURVE",
"303 565 OFFCURVE",
"323 545 CURVE SMOOTH",
"343 524 OFFCURVE",
"356 494 OFFCURVE",
"356 462 CURVE SMOOTH",
"356 430 OFFCURVE",
"343 400 OFFCURVE",
"323 379 CURVE SMOOTH",
"303 358 OFFCURVE",
"274 345 OFFCURVE",
"242 345 CURVE SMOOTH",
"210 345 OFFCURVE",
"182 358 OFFCURVE",
"162 379 CURVE SMOOTH",
"141 400 OFFCURVE",
"128 430 OFFCURVE",
"128 462 CURVE SMOOTH",
"128 494 OFFCURVE",
"141 524 OFFCURVE",
"162 545 CURVE SMOOTH",
"182 565 OFFCURVE",
"210 578 OFFCURVE",
"242 578 CURVE SMOOTH"
);
}
);
width = 484;
}
);
note = nine;
unicode = 0039;
},
{
glyphname = zero.dnom;
lastChange = "2018-07-19 01:35:50 +0000";
layers = (
{
layerId = "E1ADDF7C-A343-4E6D-B630-136BDFE64807";
paths = (
{
closed = 1;
nodes = (
"223 -3 OFFCURVE",
"257 12 OFFCURVE",
"282 37 CURVE SMOOTH",
"306 61 OFFCURVE",
"320 95 OFFCURVE",
"320 133 CURVE SMOOTH",
"320 326 LINE SMOOTH",
"320 364 OFFCURVE",
"306 397 OFFCURVE",
"282 422 CURVE SMOOTH",
"257 447 OFFCURVE",
"223 462 OFFCURVE",
"186 462 CURVE SMOOTH",
"161 462 LINE SMOOTH",
"125 462 OFFCURVE",
"91 447 OFFCURVE",
"67 422 CURVE SMOOTH",
"43 397 OFFCURVE",
"28 364 OFFCURVE",
"28 326 CURVE SMOOTH",
"28 133 LINE SMOOTH",
"28 95 OFFCURVE",
"43 61 OFFCURVE",
"67 37 CURVE SMOOTH",
"91 12 OFFCURVE",
"125 -3 OFFCURVE",
"161 -3 CURVE SMOOTH",
"186 -3 LINE SMOOTH"
);
},
{
closed = 1;
nodes = (
"259 92 OFFCURVE",
"227 59 OFFCURVE",
"186 59 CURVE SMOOTH",
"161 59 LINE SMOOTH",
"122 59 OFFCURVE",
"88 94 OFFCURVE",
"88 133 CURVE SMOOTH",
"88 326 LINE SMOOTH",
"88 365 OFFCURVE",
"122 400 OFFCURVE",
"161 400 CURVE SMOOTH",
"186 400 LINE SMOOTH",
"227 400 OFFCURVE",
"259 366 OFFCURVE",
"259 326 CURVE SMOOTH",
"259 133 LINE SMOOTH"
);
}
);
width = 348;
}
);
note = zero;
},
{
glyphname = one.dnom;
lastChange = "2018-07-19 01:38:36 +0000";
layers = (
{
layerId = "E1ADDF7C-A343-4E6D-B630-136BDFE64807";
paths = (
{
closed = 1;
nodes = (
"176 459 LINE",
"105 459 LINE",
"21 313 LINE",
"89 313 LINE",
"119 364 LINE",
"119 0 LINE",
"176 0 LINE"
);
}
);
width = 210;
}
);
note = one;
},
{
glyphname = two.dnom;
lastChange = "2018-07-19 01:40:30 +0000";
layers = (
{
guideLines = (
{
angle = 90;
position = "{28, 276}";
}
);
layerId = "E1ADDF7C-A343-4E6D-B630-136BDFE64807";
paths = (
{
closed = 1;
nodes = (
"267 246 OFFCURVE",
"281 279 OFFCURVE",
"281 317 CURVE SMOOTH",
"281 356 OFFCURVE",
"265 392 OFFCURVE",
"240 417 CURVE SMOOTH",
"215 443 OFFCURVE",
"181 459 OFFCURVE",
"143 459 CURVE SMOOTH",
"42 459 LINE",
"42 397 LINE",
"143 397 LINE SMOOTH",
"164 397 OFFCURVE",
"184 388 OFFCURVE",
"197 373 CURVE SMOOTH",
"211 359 OFFCURVE",
"220 339 OFFCURVE",
"220 317 CURVE SMOOTH",
"220 291 OFFCURVE",
"208 273 OFFCURVE",
"191 260 CURVE SMOOTH",
"174 247 OFFCURVE",
"152 239 OFFCURVE",
"136 236 CURVE",
"36 211 OFFCURVE",
"19 108 OFFCURVE",
"30 0 CURVE",
"259 0 LINE",
"259 62 LINE",
"88 62 LINE",
"88 119 OFFCURVE",
"95 162 OFFCURVE",
"150 176 CURVE SMOOTH",
"185 185 OFFCURVE",
"216 199 OFFCURVE",
"239 221 CURVE SMOOTH"
);
}
);
width = 308;
}
);
note = two;
},
{
glyphname = three.dnom;
lastChange = "2018-07-19 01:35:23 +0000";
layers = (
{
layerId = "E1ADDF7C-A343-4E6D-B630-136BDFE64807";
paths = (
{
closed = 1;
nodes = (
"167 0 OFFCURVE",
"198 14 OFFCURVE",
"221 38 CURVE SMOOTH",
"244 61 OFFCURVE",
"257 94 OFFCURVE",
"257 130 CURVE SMOOTH",
"257 169 OFFCURVE",
"240 205 OFFCURVE",
"213 229 CURVE",
"240 253 OFFCURVE",
"257 289 OFFCURVE",
"257 328 CURVE SMOOTH",
"257 364 OFFCURVE",
"244 397 OFFCURVE",
"221 421 CURVE SMOOTH",
"198 444 OFFCURVE",
"167 459 OFFCURVE",
"132 459 CURVE SMOOTH",
"28 459 LINE",
"28 396 LINE",
"132 396 LINE SMOOTH",
"168 396 OFFCURVE",
"197 367 OFFCURVE",
"197 328 CURVE SMOOTH",
"197 309 OFFCURVE",
"190 293 OFFCURVE",
"179 280 CURVE SMOOTH",
"167 268 OFFCURVE",
"150 260 OFFCURVE",
"132 260 CURVE SMOOTH",
"88 260 LINE",
"88 198 LINE",
"132 198 LINE SMOOTH",
"150 198 OFFCURVE",
"167 191 OFFCURVE",
"179 179 CURVE SMOOTH",
"190 166 OFFCURVE",
"197 149 OFFCURVE",
"197 130 CURVE SMOOTH",
"197 91 OFFCURVE",
"168 62 OFFCURVE",
"132 62 CURVE SMOOTH",
"28 62 LINE",
"28 0 LINE",
"132 0 LINE SMOOTH"
);
}
);
width = 285;
}
);
note = three;
},
{
glyphname = four.dnom;
lastChange = "2018-07-19 01:35:23 +0000";
layers = (
{
layerId = "E1ADDF7C-A343-4E6D-B630-136BDFE64807";
paths = (
{
closed = 1;
nodes = (
"320 178 LINE",
"262 178 LINE",
"262 248 LINE",
"202 248 LINE",
"202 178 LINE",
"113 178 LINE",
"230 458 LINE",
"164 458 LINE",
"23 117 LINE",
"202 117 LINE",
"202 -1 LINE",
"262 -1 LINE",
"262 117 LINE",
"320 117 LINE"
);
}
);
width = 348;
}
);
note = four;
},
{
glyphname = five.dnom;
lastChange = "2018-07-19 01:35:23 +0000";
layers = (
{
layerId = "E1ADDF7C-A343-4E6D-B630-136BDFE64807";
paths = (
{
closed = 1;
nodes = (
"187 0 OFFCURVE",
"221 16 OFFCURVE",
"246 41 CURVE SMOOTH",
"271 67 OFFCURVE",
"286 103 OFFCURVE",
"286 142 CURVE SMOOTH",
"286 181 OFFCURVE",
"271 217 OFFCURVE",
"246 242 CURVE SMOOTH",
"221 268 OFFCURVE",
"187 284 OFFCURVE",
"148 284 CURVE SMOOTH",
"95 284 LINE",
"95 397 LINE",
"264 397 LINE",
"264 459 LINE",
"35 459 LINE",
"35 222 LINE",
"148 222 LINE SMOOTH",
"170 222 OFFCURVE",
"189 213 OFFCURVE",
"204 199 CURVE",
"217 184 OFFCURVE",
"226 164 OFFCURVE",
"226 142 CURVE SMOOTH",
"226 120 OFFCURVE",
"217 100 OFFCURVE",
"204 86 CURVE SMOOTH",
"189 71 OFFCURVE",
"170 62 OFFCURVE",
"148 62 CURVE SMOOTH",
"38 62 LINE",
"38 0 LINE",
"148 0 LINE SMOOTH"
);
}
);
width = 321;
}
);
note = five;
},
{
glyphname = six.dnom;
lastChange = "2018-07-19 01:35:23 +0000";
layers = (
{
layerId = "E1ADDF7C-A343-4E6D-B630-136BDFE64807";
paths = (
{
closed = 1;
nodes = (
"206 -3 OFFCURVE",
"241 14 OFFCURVE",
"266 39 CURVE SMOOTH",
"290 65 OFFCURVE",
"306 101 OFFCURVE",
"306 140 CURVE SMOOTH",
"306 179 OFFCURVE",
"290 215 OFFCURVE",
"266 241 CURVE SMOOTH",
"241 268 OFFCURVE",
"206 284 OFFCURVE",
"167 284 CURVE SMOOTH",
"159 284 OFFCURVE",
"150 282 OFFCURVE",
"140 280 CURVE",
"215 459 LINE",
"148 459 LINE",
"39 199 LINE SMOOTH",
"32 180 OFFCURVE",
"28 161 OFFCURVE",
"28 140 CURVE SMOOTH",
"28 101 OFFCURVE",
"43 65 OFFCURVE",
"68 39 CURVE SMOOTH",
"93 14 OFFCURVE",
"128 -3 OFFCURVE",
"167 -3 CURVE SMOOTH"
);
},
{
closed = 1;
nodes = (
"189 221 OFFCURVE",
"208 212 OFFCURVE",
"223 197 CURVE SMOOTH",
"237 183 OFFCURVE",
"246 162 OFFCURVE",
"246 140 CURVE SMOOTH",
"246 118 OFFCURVE",
"237 97 OFFCURVE",
"223 83 CURVE SMOOTH",
"208 69 OFFCURVE",
"189 60 OFFCURVE",
"167 60 CURVE SMOOTH",
"145 60 OFFCURVE",
"125 69 OFFCURVE",
"111 83 CURVE SMOOTH",
"97 97 OFFCURVE",
"88 118 OFFCURVE",
"88 140 CURVE SMOOTH",
"88 162 OFFCURVE",
"97 183 OFFCURVE",
"111 197 CURVE SMOOTH",
"125 212 OFFCURVE",
"145 221 OFFCURVE",
"167 221 CURVE SMOOTH"
);
}
);
width = 334;
}
);
note = six;
},
{
glyphname = seven.dnom;
lastChange = "2018-07-19 01:35:23 +0000";
layers = (
{
layerId = "E1ADDF7C-A343-4E6D-B630-136BDFE64807";
paths = (
{
closed = 1;
nodes = (
"28 459 LINE",
"28 396 LINE",
"188 396 LINE",
"106 0 LINE",
"167 0 LINE",
"263 459 LINE"
);
}
);
width = 295;
}
);
note = seven;
},
{
glyphname = eight.dnom;
lastChange = "2018-07-19 01:35:23 +0000";
layers = (
{
layerId = "E1ADDF7C-A343-4E6D-B630-136BDFE64807";
paths = (
{
closed = 1;
nodes = (
"237 15 OFFCURVE",
"252 26 OFFCURVE",
"264 40 CURVE SMOOTH",
"289 67 OFFCURVE",
"302 102 OFFCURVE",
"302 139 CURVE",
"302 177 OFFCURVE",
"286 221 OFFCURVE",
"247 250 CURVE",
"280 285 OFFCURVE",
"291 336 OFFCURVE",
"272 383 CURVE SMOOTH",
"253 428 OFFCURVE",
"210 455 OFFCURVE",
"164 455 CURVE SMOOTH",
"133 455 OFFCURVE",
"101 442 OFFCURVE",
"80 419 CURVE SMOOTH",
"59 395 OFFCURVE",
"48 366 OFFCURVE",
"48 335 CURVE SMOOTH",
"48 303 OFFCURVE",
"61 272 OFFCURVE",
"82 250 CURVE",
"57 230 OFFCURVE",
"40 204 OFFCURVE",
"32 175 CURVE SMOOTH",
"24 144 OFFCURVE",
"26 111 OFFCURVE",
"39 81 CURVE SMOOTH",
"61 28 OFFCURVE",
"112 -3 OFFCURVE",
"165 -3 CURVE SMOOTH",
"184 -3 OFFCURVE",
"202 0 OFFCURVE",
"219 8 CURVE SMOOTH"
);
},
{
closed = 1;
nodes = (
"245 286 OFFCURVE",
"143 245 OFFCURVE",
"112 312 CURVE SMOOTH",
"99 342 OFFCURVE",
"114 377 OFFCURVE",
"141 389 CURVE SMOOTH",
"148 392 OFFCURVE",
"156 393 OFFCURVE",
"165 393 CURVE SMOOTH",
"187 393 OFFCURVE",
"208 380 OFFCURVE",
"217 359 CURVE"
);
},
{
closed = 1;
nodes = (
"208 233 OFFCURVE",
"235 169 CURVE SMOOTH",
"253 128 OFFCURVE",
"235 83 OFFCURVE",
"195 64 CURVE SMOOTH",
"186 60 OFFCURVE",
"176 58 OFFCURVE",
"165 58 CURVE SMOOTH",
"134 58 OFFCURVE",
"107 76 OFFCURVE",
"94 106 CURVE SMOOTH",
"86 126 OFFCURVE",
"85 147 OFFCURVE",
"92 166 CURVE SMOOTH",
"120 233 OFFCURVE"
);
}
);
width = 330;
}
);
note = eight;
},
{
glyphname = nine.dnom;
lastChange = "2018-07-19 01:35:23 +0000";
layers = (
{
layerId = "E1ADDF7C-A343-4E6D-B630-136BDFE64807";
paths = (
{
closed = 1;
nodes = (
"302 279 OFFCURVE",
"306 298 OFFCURVE",
"306 319 CURVE SMOOTH",
"306 358 OFFCURVE",
"290 394 OFFCURVE",
"266 420 CURVE SMOOTH",
"241 445 OFFCURVE",
"206 462 OFFCURVE",
"167 462 CURVE SMOOTH",
"128 462 OFFCURVE",
"93 445 OFFCURVE",
"68 420 CURVE SMOOTH",
"43 394 OFFCURVE",
"28 358 OFFCURVE",
"28 319 CURVE SMOOTH",
"28 279 OFFCURVE",
"43 244 OFFCURVE",
"68 218 CURVE SMOOTH",
"93 192 OFFCURVE",
"128 175 OFFCURVE",
"167 175 CURVE SMOOTH",
"175 175 OFFCURVE",
"184 177 OFFCURVE",
"194 179 CURVE",
"119 0 LINE",
"186 0 LINE",
"295 260 LINE SMOOTH"
);
},
{
closed = 1;
nodes = (
"189 399 OFFCURVE",
"209 390 OFFCURVE",
"223 376 CURVE SMOOTH",
"237 362 OFFCURVE",
"246 341 OFFCURVE",
"246 319 CURVE SMOOTH",
"246 297 OFFCURVE",
"237 276 OFFCURVE",
"223 262 CURVE SMOOTH",
"209 247 OFFCURVE",
"189 238 OFFCURVE",
"167 238 CURVE SMOOTH",
"145 238 OFFCURVE",
"126 247 OFFCURVE",
"112 262 CURVE SMOOTH",
"97 276 OFFCURVE",
"88 297 OFFCURVE",
"88 319 CURVE SMOOTH",
"88 341 OFFCURVE",
"97 362 OFFCURVE",
"112 376 CURVE SMOOTH",
"126 390 OFFCURVE",
"145 399 OFFCURVE",
"167 399 CURVE SMOOTH"
);
}
);
width = 334;
}
);
note = nine;
},
{
glyphname = fraction;
lastChange = "2018-07-19 01:39:38 +0000";
layers = (
{
layerId = "E1ADDF7C-A343-4E6D-B630-136BDFE64807";
paths = (
{
closed = 1;
nodes = (
"380 666 LINE",
"30 0 LINE",
"92 0 LINE",
"442 666 LINE"
);
}
);
width = 482;
}
);
note = fraction;
unicode = 2044;
},
{
glyphname = period;
lastChange = "2018-04-11 02:44:18 +0000";
layers = (
{
layerId = "E1ADDF7C-A343-4E6D-B630-136BDFE64807";
paths = (
{
closed = 1;
nodes = (
"88 0 OFFCURVE",
"108 19 OFFCURVE",
"108 44 CURVE SMOOTH",
"108 68 OFFCURVE",
"88 88 OFFCURVE",
"64 88 CURVE SMOOTH",
"39 88 OFFCURVE",
"20 68 OFFCURVE",
"20 44 CURVE SMOOTH",
"20 19 OFFCURVE",
"39 0 OFFCURVE",
"64 0 CURVE SMOOTH"
);
}
);
width = 159;
}
);
note = period;
unicode = 002E;
},
{
glyphname = comma;
lastChange = "2018-03-18 23:32:31 +0000";
layers = (
{
layerId = "E1ADDF7C-A343-4E6D-B630-136BDFE64807";
paths = (
{
closed = 1;
nodes = (
"92 107 LINE",
"37 -102 LINE",
"110 -102 LINE",
"175 107 LINE"
);
}
);
width = 221;
}
);
note = comma;
unicode = 002C;
},
{
glyphname = colon;
lastChange = "2018-03-18 23:49:30 +0000";
layers = (
{
layerId = "E1ADDF7C-A343-4E6D-B630-136BDFE64807";
paths = (
{
closed = 1;
nodes = (
"117 0 OFFCURVE",
"137 19 OFFCURVE",
"137 44 CURVE SMOOTH",
"137 68 OFFCURVE",
"117 88 OFFCURVE",
"93 88 CURVE SMOOTH",
"68 88 OFFCURVE",
"49 68 OFFCURVE",
"49 44 CURVE SMOOTH",
"49 19 OFFCURVE",
"68 0 OFFCURVE",
"93 0 CURVE SMOOTH"
);
},
{
closed = 1;
nodes = (
"117 322 OFFCURVE",
"137 341 OFFCURVE",
"137 366 CURVE SMOOTH",
"137 390 OFFCURVE",
"117 410 OFFCURVE",
"93 410 CURVE SMOOTH",
"68 410 OFFCURVE",
"49 390 OFFCURVE",
"49 366 CURVE SMOOTH",
"49 341 OFFCURVE",
"68 322 OFFCURVE",
"93 322 CURVE SMOOTH"
);
}
);
width = 189;
}
);
note = colon;
unicode = 003A;
},
{
glyphname = semicolon;
lastChange = "2018-03-19 00:59:10 +0000";
layers = (
{
layerId = "E1ADDF7C-A343-4E6D-B630-136BDFE64807";
paths = (
{
closed = 1;
nodes = (
"83 121 LINE",
"27 -102 LINE",
"101 -102 LINE",
"167 121 LINE"
);
},
{
closed = 1;
nodes = (
"153 268 OFFCURVE",
"174 288 OFFCURVE",
"174 314 CURVE SMOOTH",
"174 339 OFFCURVE",
"153 360 OFFCURVE",
"128 360 CURVE SMOOTH",
"102 360 OFFCURVE",
"82 339 OFFCURVE",
"82 314 CURVE SMOOTH",
"82 288 OFFCURVE",
"102 268 OFFCURVE",
"128 268 CURVE SMOOTH"
);
}
);
width = 225;
}
);
note = semicolon;
unicode = 003B;
},
{
glyphname = ellipsis;
lastChange = "2018-03-18 23:50:17 +0000";
layers = (
{
layerId = "E1ADDF7C-A343-4E6D-B630-136BDFE64807";
paths = (
{
closed = 1;
nodes = (
"118 0 OFFCURVE",
"138 19 OFFCURVE",
"138 44 CURVE SMOOTH",
"138 68 OFFCURVE",
"118 88 OFFCURVE",
"94 88 CURVE SMOOTH",
"69 88 OFFCURVE",
"50 68 OFFCURVE",
"50 44 CURVE SMOOTH",
"50 19 OFFCURVE",
"69 0 OFFCURVE",
"94 0 CURVE SMOOTH"
);
},
{
closed = 1;
nodes = (
"290 0 OFFCURVE",
"310 19 OFFCURVE",
"310 44 CURVE SMOOTH",
"310 68 OFFCURVE",
"290 88 OFFCURVE",
"266 88 CURVE SMOOTH",
"241 88 OFFCURVE",
"222 68 OFFCURVE",
"222 44 CURVE SMOOTH",
"222 19 OFFCURVE",
"241 0 OFFCURVE",
"266 0 CURVE SMOOTH"
);
},
{
closed = 1;
nodes = (
"453 0 OFFCURVE",
"473 19 OFFCURVE",
"473 44 CURVE SMOOTH",
"473 68 OFFCURVE",
"453 88 OFFCURVE",
"429 88 CURVE SMOOTH",
"404 88 OFFCURVE",
"385 68 OFFCURVE",
"385 44 CURVE SMOOTH",
"385 19 OFFCURVE",
"404 0 OFFCURVE",
"429 0 CURVE SMOOTH"
);
}
);
width = 523;
}
);
note = ellipsis;
unicode = 2026;
},
{
glyphname = exclam;
lastChange = "2018-04-11 00:42:54 +0000";
layers = (
{
layerId = "E1ADDF7C-A343-4E6D-B630-136BDFE64807";
paths = (
{
closed = 1;
nodes = (
"134 665 LINE",
"56 665 LINE",
"60 141 LINE",
"130 141 LINE"
);
},
{
closed = 1;
nodes = (
"118 0 OFFCURVE",
"138 19 OFFCURVE",
"138 44 CURVE SMOOTH",
"138 68 OFFCURVE",
"118 88 OFFCURVE",
"94 88 CURVE SMOOTH",
"69 88 OFFCURVE",
"50 68 OFFCURVE",
"50 44 CURVE SMOOTH",
"50 19 OFFCURVE",
"69 0 OFFCURVE",
"94 0 CURVE SMOOTH"
);
}
);
width = 188;
}
);
note = exclam;
unicode = 0021;
},
{
glyphname = question;
lastChange = "2018-03-18 23:32:31 +0000";
layers = (
{
layerId = "E1ADDF7C-A343-4E6D-B630-136BDFE64807";
paths = (
{
closed = 1;
nodes = (
"440 360 OFFCURVE",
"469 419 OFFCURVE",
"469 488 CURVE SMOOTH",
"469 549 OFFCURVE",
"445 604 OFFCURVE",
"406 644 CURVE SMOOTH",
"367 684 OFFCURVE",
"314 708 OFFCURVE",
"255 708 CURVE SMOOTH",
"195 708 OFFCURVE",
"142 683 OFFCURVE",
"103 642 CURVE SMOOTH",
"64 601 OFFCURVE",
"40 543 OFFCURVE",
"40 476 CURVE",
"128 476 LINE",
"128 517 OFFCURVE",
"142 553 OFFCURVE",
"165 578 CURVE SMOOTH",
"188 603 OFFCURVE",
"220 617 OFFCURVE",
"255 617 CURVE SMOOTH",
"290 617 OFFCURVE",
"321 603 OFFCURVE",
"344 580 CURVE SMOOTH",
"367 556 OFFCURVE",
"381 524 OFFCURVE",
"381 488 CURVE SMOOTH",
"381 447 OFFCURVE",
"365 416 OFFCURVE",
"325 381 CURVE SMOOTH",
"227 297 LINE",
"227 152 LINE",
"315 152 LINE",
"315 255 LINE",
"382 311 LINE SMOOTH"
);
},
{
closed = 1;
nodes = (
"302 0 OFFCURVE",
"325 24 OFFCURVE",
"325 55 CURVE SMOOTH",
"325 86 OFFCURVE",
"302 110 OFFCURVE",
"271 110 CURVE SMOOTH",
"242 110 OFFCURVE",
"218 86 OFFCURVE",
"218 55 CURVE SMOOTH",
"218 24 OFFCURVE",
"242 0 OFFCURVE",
"271 0 CURVE SMOOTH"
);
}
);
width = 509;
}
);
note = question;
unicode = 003F;
},
{
glyphname = questiondown;
lastChange = "2018-03-18 23:32:31 +0000";
layers = (
{
layerId = "E1ADDF7C-A343-4E6D-B630-136BDFE64807";
paths = (
{
closed = 1;
nodes = (
"267 426 OFFCURVE",
"291 450 OFFCURVE",
"291 481 CURVE SMOOTH",
"291 512 OFFCURVE",
"267 536 OFFCURVE",
"238 536 CURVE SMOOTH",
"207 536 OFFCURVE",
"184 512 OFFCURVE",
"184 481 CURVE SMOOTH",
"184 450 OFFCURVE",
"207 426 OFFCURVE",
"238 426 CURVE SMOOTH"
);
},
{
closed = 1;
nodes = (
"314 -172 OFFCURVE",
"367 -147 OFFCURVE",
"406 -106 CURVE SMOOTH",
"445 -65 OFFCURVE",
"469 -7 OFFCURVE",
"469 60 CURVE",
"381 60 LINE",
"381 17 OFFCURVE",
"367 -17 OFFCURVE",
"344 -42 CURVE SMOOTH",
"320 -67 OFFCURVE",
"289 -81 OFFCURVE",
"254 -81 CURVE SMOOTH",
"219 -81 OFFCURVE",
"188 -67 OFFCURVE",
"165 -43 CURVE SMOOTH",
"142 -20 OFFCURVE",
"128 12 OFFCURVE",
"128 48 CURVE SMOOTH",
"128 89 OFFCURVE",
"144 120 OFFCURVE",
"184 155 CURVE SMOOTH",
"282 239 LINE",
"282 384 LINE",
"194 384 LINE",
"194 281 LINE",
"127 225 LINE SMOOTH",
"69 176 OFFCURVE",
"40 117 OFFCURVE",
"40 48 CURVE SMOOTH",
"40 -13 OFFCURVE",
"64 -68 OFFCURVE",
"103 -108 CURVE SMOOTH",
"142 -148 OFFCURVE",
"195 -172 OFFCURVE",
"254 -172 CURVE SMOOTH"
);
}
);
width = 509;
}
);
note = questiondown;
unicode = 00BF;
},
{
glyphname = periodcentered;
lastChange = "2018-03-18 23:50:53 +0000";
layers = (
{
layerId = "E1ADDF7C-A343-4E6D-B630-136BDFE64807";
paths = (
{
closed = 1;
nodes = (
"118 264 OFFCURVE",
"138 283 OFFCURVE",
"138 308 CURVE SMOOTH",
"138 332 OFFCURVE",
"118 352 OFFCURVE",
"94 352 CURVE SMOOTH",
"69 352 OFFCURVE",
"50 332 OFFCURVE",
"50 308 CURVE SMOOTH",
"50 283 OFFCURVE",
"69 264 OFFCURVE",
"94 264 CURVE SMOOTH"
);
}
);
width = 188;
}
);
note = periodcentered;
unicode = 00B7;
},
{
glyphname = bullet;
lastChange = "2018-03-18 23:32:31 +0000";
layers = (
{
layerId = "E1ADDF7C-A343-4E6D-B630-136BDFE64807";
paths = (
{
closed = 1;
nodes = (
"214 163 OFFCURVE",
"250 178 OFFCURVE",
"275 203 CURVE SMOOTH",
"299 228 OFFCURVE",
"315 261 OFFCURVE",
"315 300 CURVE SMOOTH",
"315 337 OFFCURVE",
"299 372 OFFCURVE",
"275 397 CURVE SMOOTH",
"250 422 OFFCURVE",
"214 437 OFFCURVE",
"177 437 CURVE SMOOTH",
"138 437 OFFCURVE",
"105 422 OFFCURVE",
"80 397 CURVE SMOOTH",
"55 372 OFFCURVE",
"40 337 OFFCURVE",
"40 300 CURVE SMOOTH",
"40 261 OFFCURVE",
"55 228 OFFCURVE",
"80 203 CURVE SMOOTH",
"105 178 OFFCURVE",
"138 163 OFFCURVE",
"177 163 CURVE SMOOTH"
);
}
);
width = 355;
}
);
note = bullet;
unicode = 2022;
},
{
glyphname = asterisk;
lastChange = "2018-03-18 23:32:31 +0000";
layers = (
{
layerId = "E1ADDF7C-A343-4E6D-B630-136BDFE64807";
paths = (
{
closed = 1;
nodes = (
"297 482 LINE",
"407 557 LINE",
"358 629 LINE",
"264 564 LINE",
"264 665 LINE",
"178 665 LINE",
"178 564 LINE",
"84 629 LINE",
"35 557 LINE",
"145 482 LINE",
"35 406 LINE",
"84 335 LINE",
"178 400 LINE",
"178 315 LINE",
"264 315 LINE",
"264 400 LINE",
"358 335 LINE",
"407 406 LINE"
);
}
);
width = 442;
}
);
note = asterisk;
unicode = 002A;
},
{
glyphname = numbersign;
lastChange = "2018-03-18 23:32:31 +0000";
layers = (
{
layerId = "E1ADDF7C-A343-4E6D-B630-136BDFE64807";
paths = (
{
closed = 1;
nodes = (
"715 269 LINE",
"535 269 LINE",
"535 395 LINE",
"715 395 LINE",
"715 485 LINE",
"535 485 LINE",
"535 665 LINE",
"445 665 LINE",
"445 485 LINE",
"319 485 LINE",
"319 665 LINE",
"229 665 LINE",
"229 485 LINE",
"50 485 LINE",
"50 395 LINE",
"229 395 LINE",
"229 269 LINE",
"50 269 LINE",
"50 179 LINE",
"229 179 LINE",
"229 0 LINE",
"319 0 LINE",
"319 179 LINE",
"445 179 LINE",
"445 0 LINE",
"535 0 LINE",
"535 179 LINE",
"715 179 LINE"
);
},
{
closed = 1;
nodes = (
"319 269 LINE",
"319 395 LINE",
"445 395 LINE",
"445 269 LINE"
);
}
);
width = 765;
}
);
note = numbersign;
unicode = 0023;
},
{
glyphname = slash;
lastChange = "2018-03-18 23:32:31 +0000";
layers = (
{
layerId = "E1ADDF7C-A343-4E6D-B630-136BDFE64807";
paths = (
{
closed = 1;
nodes = (
"383 666 LINE",
"32 0 LINE",
"132 0 LINE",
"483 666 LINE"
);
}
);
width = 515;
}
);
note = slash;
unicode = 002F;
},
{
glyphname = backslash;
lastChange = "2018-03-18 23:32:31 +0000";
layers = (
{
layerId = "E1ADDF7C-A343-4E6D-B630-136BDFE64807";
paths = (
{
closed = 1;
nodes = (
"132 666 LINE",
"32 666 LINE",
"383 0 LINE",
"483 0 LINE"
);
}
);
width = 515;
}
);
note = backslash;
unicode = 005C;
},
{
glyphname = parenleft;
lastChange = "2018-03-19 03:02:24 +0000";
layers = (
{
layerId = "E1ADDF7C-A343-4E6D-B630-136BDFE64807";
paths = (
{
closed = 1;
nodes = (
"126 387 OFFCURVE",
"137 520 OFFCURVE",
"161 665 CURVE",
"84 665 LINE",
"61 524 OFFCURVE",
"50 389 OFFCURVE",
"50 254 CURVE SMOOTH",
"50 130 OFFCURVE",
"59 10 OFFCURVE",
"79 -121 CURVE",
"155 -121 LINE",
"135 12 OFFCURVE",
"126 131 OFFCURVE",
"126 254 CURVE SMOOTH"
);
}
);
width = 191;
}
);
note = parenleft;
unicode = 0028;
},
{
glyphname = braceleft;
lastChange = "2018-03-19 01:01:28 +0000";
layers = (
{
layerId = "E1ADDF7C-A343-4E6D-B630-136BDFE64807";
paths = (
{
closed = 1;
nodes = (
"297 -34 LINE",
"203 -34 LINE SMOOTH",
"192 -34 OFFCURVE",
"185 -26 OFFCURVE",
"185 -15 CURVE SMOOTH",
"185 123 LINE SMOOTH",
"185 134 OFFCURVE",
"185 158 OFFCURVE",
"182 183 CURVE",
"178 207 OFFCURVE",
"172 235 OFFCURVE",
"153 254 CURVE SMOOTH",
"151 256 OFFCURVE",
"132 272 OFFCURVE",
"134 270 CURVE",
"136 272 LINE",
"142 276 OFFCURVE",
"148 281 OFFCURVE",
"153 286 CURVE SMOOTH",
"162 295 OFFCURVE",
"169 307 OFFCURVE",
"173 320 CURVE SMOOTH",
"181 346 OFFCURVE",
"185 372 OFFCURVE",
"185 393 CURVE",
"185 417 LINE",
"185 556 LINE SMOOTH",
"185 567 OFFCURVE",
"192 575 OFFCURVE",
"203 575 CURVE SMOOTH",
"297 575 LINE",
"297 665 LINE",
"203 665 LINE SMOOTH",
"175 665 OFFCURVE",
"150 653 OFFCURVE",
"131 633 CURVE SMOOTH",
"112 613 OFFCURVE",
"101 585 OFFCURVE",
"101 556 CURVE SMOOTH",
"101 415 LINE SMOOTH",
"101 388 OFFCURVE",
"99 357 OFFCURVE",
"93 349 CURVE SMOOTH",
"86 340 OFFCURVE",
"73 333 OFFCURVE",
"50 321 CURVE",
"50 220 LINE",
"73 208 OFFCURVE",
"86 201 OFFCURVE",
"93 192 CURVE SMOOTH",
"99 184 OFFCURVE",
"101 153 OFFCURVE",
"101 126 CURVE SMOOTH",
"101 -15 LINE SMOOTH",
"101 -46 OFFCURVE",
"112 -72 OFFCURVE",
"131 -92 CURVE SMOOTH",
"150 -112 OFFCURVE",
"175 -124 OFFCURVE",
"203 -124 CURVE SMOOTH",
"297 -124 LINE"
);
}
);
width = 327;
}
);
note = braceleft;
unicode = 007B;
},
{
glyphname = bracketleft;
lastChange = "2018-03-18 23:32:31 +0000";
layers = (
{
layerId = "E1ADDF7C-A343-4E6D-B630-136BDFE64807";
paths = (
{
closed = 1;
nodes = (
"259 -38 LINE",
"132 -38 LINE",
"132 574 LINE",
"259 574 LINE",
"259 664 LINE",
"50 664 LINE",
"50 -128 LINE",
"259 -128 LINE"
);
}
);
width = 289;
}
);
note = bracketleft;
unicode = 005B;
},
{
glyphname = bracketright;
lastChange = "2018-03-18 23:32:31 +0000";
layers = (
{
layerId = "E1ADDF7C-A343-4E6D-B630-136BDFE64807";
paths = (
{
closed = 1;
nodes = (
"259 664 LINE",
"50 664 LINE",
"50 574 LINE",
"177 574 LINE",
"177 -38 LINE",
"50 -38 LINE",
"50 -128 LINE",
"259 -128 LINE"
);
}
);
width = 289;
}
);
note = bracketright;
unicode = 005D;
},
{
glyphname = hyphen;
lastChange = "2018-03-19 01:00:28 +0000";
layers = (
{
layerId = "E1ADDF7C-A343-4E6D-B630-136BDFE64807";
paths = (
{
closed = 1;
nodes = (
"392 314 LINE",
"41 314 LINE",
"41 242 LINE",
"392 242 LINE"
);
}
);
width = 432;
}
);
note = hyphen;
unicode = 002D;
},
{
glyphname = endash;
lastChange = "2018-03-19 01:00:17 +0000";
layers = (
{
layerId = "E1ADDF7C-A343-4E6D-B630-136BDFE64807";
paths = (
{
closed = 1;
nodes = (
"510 314 LINE",
"41 314 LINE",
"41 242 LINE",
"510 242 LINE"
);
}
);
width = 550;
}
);
note = endash;
unicode = 2013;
},
{
glyphname = emdash;
lastChange = "2018-03-19 00:59:47 +0000";
layers = (
{
layerId = "E1ADDF7C-A343-4E6D-B630-136BDFE64807";
paths = (
{
closed = 1;
nodes = (
"664 314 LINE",
"41 314 LINE",
"41 242 LINE",
"664 242 LINE"
);
}
);
width = 705;
}
);
note = emdash;
unicode = 2014;
},
{
glyphname = underscore;
lastChange = "2018-04-11 02:20:05 +0000";
layers = (
{
layerId = "E1ADDF7C-A343-4E6D-B630-136BDFE64807";
paths = (
{
closed = 1;
nodes = (
"476 -47 LINE",
"40 -47 LINE",
"40 -99 LINE",
"476 -99 LINE"
);
}
);
width = 516;
}
);
note = underscore;
unicode = 005F;
},
{
glyphname = quotesinglbase;
lastChange = "2018-03-18 23:32:31 +0000";
layers = (
{
layerId = "E1ADDF7C-A343-4E6D-B630-136BDFE64807";
paths = (
{
closed = 1;
nodes = (
"92 107 LINE",
"37 -102 LINE",
"110 -102 LINE",
"175 107 LINE"
);
}
);
width = 211;
}
);
note = quotesinglbase;
unicode = 201A;
},
{
glyphname = quotedblbase;
lastChange = "2018-03-19 01:03:03 +0000";
layers = (
{
layerId = "E1ADDF7C-A343-4E6D-B630-136BDFE64807";
paths = (
{
closed = 1;
nodes = (
"243 107 LINE",
"182 -102 LINE",
"263 -102 LINE",
"333 107 LINE"
);
},
{
closed = 1;
nodes = (
"101 107 LINE",
"40 -102 LINE",
"121 -102 LINE",
"191 107 LINE"
);
}
);
width = 373;
}
);
note = quotedblbase;
unicode = 201E;
},
{
glyphname = quotedblleft;
lastChange = "2018-04-11 02:44:27 +0000";
layers = (
{
layerId = "E1ADDF7C-A343-4E6D-B630-136BDFE64807";
paths = (
{
closed = 1;
nodes = (
"272 688 LINE",
"182 688 LINE",
"253 479 LINE",
"333 479 LINE"
);
},
{
closed = 1;
nodes = (
"130 688 LINE",
"40 688 LINE",
"120 479 LINE",
"200 479 LINE"
);
}
);
width = 333;
}
);
note = quotedblleft;
unicode = 201C;
},
{
glyphname = quoteleft;
lastChange = "2018-04-11 02:44:40 +0000";
layers = (
{
layerId = "E1ADDF7C-A343-4E6D-B630-136BDFE64807";
paths = (
{
closed = 1;
nodes = (
"123 688 LINE",
"40 688 LINE",
"105 479 LINE",
"178 479 LINE"
);
}
);
width = 178;
}
);
note = quoteleft;
unicode = 2018;
},
{
glyphname = quoteright;
lastChange = "2018-04-11 02:44:47 +0000";
layers = (
{
layerId = "E1ADDF7C-A343-4E6D-B630-136BDFE64807";
paths = (
{
closed = 1;
nodes = (
"55 688 LINE",
"0 479 LINE",
"73 479 LINE",
"138 688 LINE"
);
}
);
width = 174;
}
);
note = quoteright;
unicode = 2019;
},
{
glyphname = guillemotleft;
lastChange = "2018-04-11 02:45:04 +0000";
layers = (
{
layerId = "E1ADDF7C-A343-4E6D-B630-136BDFE64807";
paths = (
{
closed = 1;
nodes = (
"383 280 LINE",
"563 471 LINE",
"441 471 LINE",
"260 278 LINE",
"451 87 LINE",
"575 87 LINE"
);
},
{
closed = 1;
nodes = (
"159 280 LINE",
"338 471 LINE",
"217 471 LINE",
"35 278 LINE",
"226 87 LINE",
"350 87 LINE"
);
}
);
width = 610;
}
);
note = guillemotleft;
unicode = 00AB;
},
{
glyphname = guilsinglleft;
lastChange = "2018-03-18 23:32:31 +0000";
layers = (
{
layerId = "E1ADDF7C-A343-4E6D-B630-136BDFE64807";
paths = (
{
closed = 1;
nodes = (
"155 280 LINE",
"329 471 LINE",
"211 471 LINE",
"36 278 LINE",
"220 87 LINE",
"341 87 LINE"
);
}
);
width = 365;
}
);
note = guilsinglleft;
unicode = 2039;
},
{
glyphname = guilsinglright;
lastChange = "2018-03-18 23:32:31 +0000";
layers = (
{
layerId = "E1ADDF7C-A343-4E6D-B630-136BDFE64807";
paths = (
{
closed = 1;
nodes = (
"154 471 LINE",
"36 471 LINE",
"210 280 LINE",
"24 87 LINE",
"145 87 LINE",
"329 278 LINE"
);
}
);
width = 365;
}
);
note = guilsinglright;
unicode = 203A;
},
{
glyphname = quotedbl;
lastChange = "2018-03-19 00:01:05 +0000";
layers = (
{
layerId = "E1ADDF7C-A343-4E6D-B630-136BDFE64807";
paths = (
{
closed = 1;
nodes = (
"161 664 LINE",
"167 454 LINE",
"238 454 LINE",
"244 664 LINE"
);
},
{
closed = 1;
nodes = (
"40 664 LINE",
"46 454 LINE",
"117 454 LINE",
"123 664 LINE"
);
}
);
width = 284;
}
);
note = quotedbl;
unicode = 0022;
},
{
glyphname = quotesingle;
lastChange = "2018-03-19 00:58:48 +0000";
layers = (
{
layerId = "E1ADDF7C-A343-4E6D-B630-136BDFE64807";
paths = (
{
closed = 1;
nodes = (
"40 664 LINE",
"46 454 LINE",
"117 454 LINE",
"123 664 LINE"
);
}
);
width = 163;
}
);
note = quotesingle;
unicode = 0027;
},
{
glyphname = cent;
lastChange = "2018-03-18 23:32:31 +0000";
layers = (
{
layerId = "E1ADDF7C-A343-4E6D-B630-136BDFE64807";
paths = (
{
closed = 1;
nodes = (
"390 79 OFFCURVE",
"444 112 OFFCURVE",
"491 168 CURVE",
"413 213 LINE",
"377 176 OFFCURVE",
"336 157 OFFCURVE",
"290 157 CURVE SMOOTH",
"246 157 OFFCURVE",
"205 176 OFFCURVE",
"176 206 CURVE SMOOTH",
"147 236 OFFCURVE",
"128 277 OFFCURVE",
"128 322 CURVE SMOOTH",
"128 367 OFFCURVE",
"147 409 OFFCURVE",
"176 439 CURVE SMOOTH",
"205 469 OFFCURVE",
"246 487 OFFCURVE",
"290 487 CURVE SMOOTH",
"336 487 OFFCURVE",
"377 468 OFFCURVE",
"413 431 CURVE",
"491 476 LINE",
"444 535 OFFCURVE",
"391 564 OFFCURVE",
"328 575 CURVE",
"328 624 LINE",
"239 624 LINE",
"239 572 LINE",
"182 560 OFFCURVE",
"132 528 OFFCURVE",
"97 484 CURVE SMOOTH",
"61 440 OFFCURVE",
"40 383 OFFCURVE",
"40 322 CURVE SMOOTH",
"40 261 OFFCURVE",
"61 205 OFFCURVE",
"97 161 CURVE SMOOTH",
"132 117 OFFCURVE",
"182 85 OFFCURVE",
"239 73 CURVE",
"239 22 LINE",
"328 22 LINE",
"328 70 LINE"
);
}
);
width = 525;
}
);
note = cent;
unicode = 00A2;
},
{
glyphname = currency;
lastChange = "2018-03-18 23:32:31 +0000";
layers = (
{
layerId = "E1ADDF7C-A343-4E6D-B630-136BDFE64807";
paths = (
{
closed = 1;
nodes = (
"529 147 OFFCURVE",
"546 197 OFFCURVE",
"546 250 CURVE SMOOTH",
"546 305 OFFCURVE",
"529 354 OFFCURVE",
"501 395 CURVE",
"545 439 LINE",
"482 502 LINE",
"438 458 LINE",
"397 486 OFFCURVE",
"348 503 OFFCURVE",
"293 503 CURVE SMOOTH",
"240 503 OFFCURVE",
"191 486 OFFCURVE",
"148 458 CURVE",
"104 502 LINE",
"42 439 LINE",
"86 395 LINE",
"57 354 OFFCURVE",
"40 305 OFFCURVE",
"40 250 CURVE SMOOTH",
"40 197 OFFCURVE",
"57 147 OFFCURVE",
"86 106 CURVE",
"42 62 LINE",
"104 -1 LINE",
"148 43 LINE",
"191 15 OFFCURVE",
"240 -2 OFFCURVE",
"293 -2 CURVE SMOOTH",
"348 -2 OFFCURVE",
"397 15 OFFCURVE",
"438 43 CURVE",
"482 -1 LINE",
"545 62 LINE",
"501 106 LINE"
);
},
{
closed = 1;
nodes = (
"447 316 OFFCURVE",
"456 285 OFFCURVE",
"456 250 CURVE SMOOTH",
"456 216 OFFCURVE",
"447 186 OFFCURVE",
"428 159 CURVE SMOOTH",
"416 142 OFFCURVE",
"402 126 OFFCURVE",
"385 115 CURVE",
"358 96 OFFCURVE",
"328 87 OFFCURVE",
"293 87 CURVE SMOOTH",
"258 87 OFFCURVE",
"228 96 OFFCURVE",
"202 115 CURVE SMOOTH",
"167 139 OFFCURVE",
"130 181 OFFCURVE",
"130 250 CURVE SMOOTH",
"130 285 OFFCURVE",
"139 316 OFFCURVE",
"158 342 CURVE SMOOTH",
"182 377 OFFCURVE",
"224 414 OFFCURVE",
"293 414 CURVE SMOOTH",
"328 414 OFFCURVE",
"358 405 OFFCURVE",
"385 386 CURVE",
"402 375 OFFCURVE",
"416 359 OFFCURVE",
"428 342 CURVE SMOOTH"
);
}
);
width = 586;
}
);
note = currency;
unicode = 00A4;
},
{
glyphname = dollar;
lastChange = "2018-03-19 01:07:11 +0000";
layers = (
{
layerId = "E1ADDF7C-A343-4E6D-B630-136BDFE64807";
paths = (
{
closed = 1;
nodes = (
"121 404 OFFCURVE",
"107 549 OFFCURVE",
"222 572 CURVE",
"222 383 LINE"
);
},
{
closed = 1;
nodes = (
"350 272 OFFCURVE",
"374 262 OFFCURVE",
"387 247 CURVE",
"430 190 OFFCURVE",
"391 108 OFFCURVE",
"310 91 CURVE",
"310 280 LINE"
);
},
{
closed = 1;
nodes = (
"40 199 LINE",
"48 137 OFFCURVE",
"69 91 OFFCURVE",
"104 58 CURVE SMOOTH",
"136 27 OFFCURVE",
"175 10 OFFCURVE",
"222 2 CURVE",
"222 -56 LINE",
"310 -56 LINE",
"310 0 LINE",
"361 7 OFFCURVE",
"403 28 OFFCURVE",
"435 59 CURVE SMOOTH",
"471 94 OFFCURVE",
"491 141 OFFCURVE",
"491 192 CURVE SMOOTH",
"491 255 OFFCURVE",
"468 303 OFFCURVE",
"419 334 CURVE SMOOTH",
"391 351 OFFCURVE",
"357 364 OFFCURVE",
"310 372 CURVE",
"310 573 LINE",
"341 566 OFFCURVE",
"364 550 OFFCURVE",
"380 524 CURVE SMOOTH",
"392 505 OFFCURVE",
"398 483 OFFCURVE",
"401 460 CURVE",
"488 460 LINE",
"490 461 LINE",
"485 510 OFFCURVE",
"468 557 OFFCURVE",
"440 593 CURVE SMOOTH",
"411 629 OFFCURVE",
"367 655 OFFCURVE",
"310 663 CURVE",
"310 721 LINE",
"222 721 LINE",
"222 663 LINE",
"178 657 OFFCURVE",
"142 640 OFFCURVE",
"114 612 CURVE SMOOTH",
"79 577 OFFCURVE",
"62 526 OFFCURVE",
"62 473 CURVE SMOOTH",
"62 369 OFFCURVE",
"118 310 OFFCURVE",
"222 291 CURVE",
"222 94 LINE",
"199 99 OFFCURVE",
"180 110 OFFCURVE",
"165 123 CURVE",
"147 140 OFFCURVE",
"135 163 OFFCURVE",
"130 199 CURVE"
);
}
);
width = 531;
}
);
note = dollar;
unicode = 0024;
},
{
glyphname = euro;
lastChange = "2018-03-23 02:19:02 +0000";
layers = (
{
layerId = "E1ADDF7C-A343-4E6D-B630-136BDFE64807";
paths = (
{
closed = 1;
nodes = (
"483 -7 OFFCURVE",
"515 -2 OFFCURVE",
"554 10 CURVE",
"554 105 LINE",
"511 89 OFFCURVE",
"482 84 OFFCURVE",
"451 84 CURVE SMOOTH",
"355 84 OFFCURVE",
"272 138 OFFCURVE",
"232 221 CURVE",
"423 221 LINE",
"423 311 LINE",
"207 311 LINE",
"205 316 OFFCURVE",
"206 348 OFFCURVE",
"207 352 CURVE",
"423 352 LINE",
"423 442 LINE",
"232 442 LINE",
"272 525 OFFCURVE",
"355 579 OFFCURVE",
"451 579 CURVE SMOOTH",
"482 579 OFFCURVE",
"511 574 OFFCURVE",
"554 558 CURVE",
"554 653 LINE",
"515 665 OFFCURVE",
"483 670 OFFCURVE",
"451 670 CURVE SMOOTH",
"378 670 OFFCURVE",
"311 646 OFFCURVE",
"256 606 CURVE SMOOTH",
"200 566 OFFCURVE",
"158 509 OFFCURVE",
"135 442 CURVE",
"40 442 LINE",
"40 352 LINE",
"117 352 LINE",
"116 347 OFFCURVE",
"116 315 OFFCURVE",
"117 311 CURVE",
"40 311 LINE",
"40 221 LINE",
"135 221 LINE",
"158 154 OFFCURVE",
"200 97 OFFCURVE",
"255 57 CURVE SMOOTH",
"310 17 OFFCURVE",
"378 -7 OFFCURVE",
"451 -7 CURVE SMOOTH"
);
}
);
width = 594;
}
);
note = Euro;
unicode = 20AC;
},
{
glyphname = sterling;
lastChange = "2018-03-18 23:32:31 +0000";
layers = (
{
layerId = "E1ADDF7C-A343-4E6D-B630-136BDFE64807";
paths = (
{
closed = 1;
nodes = (
"358 91 LINE",
"188 91 LINE",
"188 355 LINE",
"296 355 LINE",
"296 446 LINE",
"188 446 LINE",
"188 500 LINE SMOOTH",
"188 527 OFFCURVE",
"199 552 OFFCURVE",
"216 570 CURVE SMOOTH",
"233 588 OFFCURVE",
"257 599 OFFCURVE",
"284 599 CURVE SMOOTH",
"358 599 LINE",
"358 690 LINE",
"283 690 LINE SMOOTH",
"232 690 OFFCURVE",
"188 669 OFFCURVE",
"155 634 CURVE SMOOTH",
"122 599 OFFCURVE",
"102 552 OFFCURVE",
"102 500 CURVE SMOOTH",
"102 446 LINE",
"53 446 LINE",
"53 355 LINE",
"102 355 LINE",
"102 91 LINE",
"40 91 LINE",
"40 0 LINE",
"358 0 LINE"
);
}
);
width = 398;
}
);
note = sterling;
unicode = 00A3;
},
{
glyphname = yen;
lastChange = "2018-03-19 01:07:35 +0000";
layers = (
{
layerId = "E1ADDF7C-A343-4E6D-B630-136BDFE64807";
paths = (
{
closed = 1;
nodes = (
"90 185 LINE",
"90 94 LINE",
"237 94 LINE",
"237 0 LINE",
"326 0 LINE",
"326 94 LINE",
"473 94 LINE",
"473 185 LINE",
"326 185 LINE",
"326 238 LINE",
"473 238 LINE",
"473 329 LINE",
"366 329 LINE",
"528 665 LINE",
"429 665 LINE",
"281 359 LINE",
"135 665 LINE",
"35 665 LINE",
"196 329 LINE",
"90 329 LINE",
"90 238 LINE",
"237 238 LINE",
"237 185 LINE"
);
}
);
width = 563;
}
);
note = yen;
unicode = 00A5;
},
{
glyphname = plus;
lastChange = "2018-03-18 23:32:31 +0000";
layers = (
{
layerId = "E1ADDF7C-A343-4E6D-B630-136BDFE64807";
paths = (
{
closed = 1;
nodes = (
"510 324 LINE",
"319 324 LINE",
"319 515 LINE",
"231 515 LINE",
"231 324 LINE",
"40 324 LINE",
"40 236 LINE",
"231 236 LINE",
"231 45 LINE",
"319 45 LINE",
"319 236 LINE",
"510 236 LINE"
);
}
);
width = 550;
}
);
note = plus;
unicode = 002B;
},
{
glyphname = minus;
lastChange = "2018-03-19 01:07:52 +0000";
layers = (
{
layerId = "E1ADDF7C-A343-4E6D-B630-136BDFE64807";
paths = (
{
closed = 1;
nodes = (
"509 325 LINE",
"40 325 LINE",
"40 237 LINE",
"509 237 LINE"
);
}
);
width = 550;
}
);
note = minus;
unicode = 2212;
},
{
glyphname = multiply;
lastChange = "2018-03-18 23:32:31 +0000";
layers = (
{
layerId = "E1ADDF7C-A343-4E6D-B630-136BDFE64807";
paths = (
{
closed = 1;
nodes = (
"293 280 LINE",
"426 413 LINE",
"364 475 LINE",
"231 342 LINE",
"98 475 LINE",
"35 413 LINE",
"168 280 LINE",
"35 147 LINE",
"98 85 LINE",
"231 218 LINE",
"364 85 LINE",
"426 147 LINE"
);
}
);
width = 461;
}
);
note = multiply;
unicode = 00D7;
},
{
glyphname = divide;
lastChange = "2018-03-19 01:08:13 +0000";
layers = (
{
layerId = "E1ADDF7C-A343-4E6D-B630-136BDFE64807";
paths = (
{
closed = 1;
nodes = (
"305 363 OFFCURVE",
"329 387 OFFCURVE",
"329 416 CURVE SMOOTH",
"329 447 OFFCURVE",
"305 470 OFFCURVE",
"274 470 CURVE SMOOTH",
"245 470 OFFCURVE",
"220 447 OFFCURVE",
"220 416 CURVE SMOOTH",
"220 387 OFFCURVE",
"245 363 OFFCURVE",
"274 363 CURVE SMOOTH"
);
},
{
closed = 1;
nodes = (
"509 325 LINE",
"40 325 LINE",
"40 237 LINE",
"509 237 LINE"
);
},
{
closed = 1;
nodes = (
"305 94 OFFCURVE",
"329 117 OFFCURVE",
"329 148 CURVE SMOOTH",
"329 177 OFFCURVE",
"305 201 OFFCURVE",
"274 201 CURVE SMOOTH",
"245 201 OFFCURVE",
"220 177 OFFCURVE",
"220 148 CURVE SMOOTH",
"220 117 OFFCURVE",
"245 94 OFFCURVE",
"274 94 CURVE SMOOTH"
);
}
);
width = 549;
}
);
note = divide;
unicode = 00F7;
},
{
glyphname = equal;
lastChange = "2018-03-19 01:08:30 +0000";
layers = (
{
layerId = "E1ADDF7C-A343-4E6D-B630-136BDFE64807";
paths = (
{
closed = 1;
nodes = (
"510 406 LINE",
"40 406 LINE",
"40 321 LINE",
"510 321 LINE"
);
},
{
closed = 1;
nodes = (
"510 247 LINE",
"40 247 LINE",
"40 163 LINE",
"510 163 LINE"
);
}
);
width = 550;
}
);
note = equal;
unicode = 003D;
},
{
glyphname = notequal;
lastChange = "2018-03-18 23:32:31 +0000";
layers = (
{
layerId = "E1ADDF7C-A343-4E6D-B630-136BDFE64807";
paths = (
{
closed = 1;
nodes = (
"510 243 LINE",
"308 243 LINE",
"366 314 LINE",
"510 314 LINE",
"510 404 LINE",
"438 404 LINE",
"484 461 LINE",
"416 517 LINE",
"323 404 LINE",
"40 404 LINE",
"40 314 LINE",
"251 314 LINE",
"193 243 LINE",
"40 243 LINE",
"40 154 LINE",
"121 154 LINE",
"66 86 LINE",
"135 29 LINE",
"236 154 LINE",
"510 154 LINE"
);
}
);
width = 550;
}
);
note = notequal;
unicode = 2260;
},
{
glyphname = greater;
lastChange = "2018-03-18 23:32:31 +0000";
layers = (
{
layerId = "E1ADDF7C-A343-4E6D-B630-136BDFE64807";
paths = (
{
closed = 1;
nodes = (
"628 309 LINE",
"40 557 LINE",
"40 460 LINE",
"486 271 LINE",
"40 91 LINE",
"40 -6 LINE",
"628 233 LINE"
);
}
);
width = 668;
}
);
note = greater;
unicode = 003E;
},
{
glyphname = less;
lastChange = "2018-03-18 23:32:31 +0000";
layers = (
{
layerId = "E1ADDF7C-A343-4E6D-B630-136BDFE64807";
paths = (
{
closed = 1;
nodes = (
"628 91 LINE",
"182 271 LINE",
"628 460 LINE",
"628 557 LINE",
"40 309 LINE",
"40 233 LINE",
"628 -6 LINE"
);
}
);
width = 668;
}
);
note = less;
unicode = 003C;
},
{
glyphname = greaterequal;
lastChange = "2018-03-19 01:08:50 +0000";
layers = (
{
layerId = "E1ADDF7C-A343-4E6D-B630-136BDFE64807";
paths = (
{
closed = 1;
nodes = (
"40 523 LINE",
"40 430 LINE",
"396 320 LINE",
"40 217 LINE",
"40 123 LINE",
"572 278 LINE",
"573 359 LINE"
);
},
{
closed = 1;
nodes = (
"563 90 LINE",
"40 90 LINE",
"40 0 LINE",
"563 0 LINE"
);
}
);
width = 613;
}
);
note = greaterequal;
unicode = 2265;
},
{
glyphname = lessequal;
lastChange = "2018-03-19 01:08:58 +0000";
layers = (
{
layerId = "E1ADDF7C-A343-4E6D-B630-136BDFE64807";
paths = (
{
closed = 1;
nodes = (
"573 217 LINE",
"217 320 LINE",
"573 430 LINE",
"573 523 LINE",
"40 359 LINE",
"41 278 LINE",
"573 123 LINE"
);
},
{
closed = 1;
nodes = (
"573 90 LINE",
"50 90 LINE",
"50 0 LINE",
"573 0 LINE"
);
}
);
width = 613;
}
);
note = lessequal;
unicode = 2264;
},
{
glyphname = plusminus;
lastChange = "2018-03-19 01:09:12 +0000";
layers = (
{
layerId = "E1ADDF7C-A343-4E6D-B630-136BDFE64807";
paths = (
{
closed = 1;
nodes = (
"510 398 LINE",
"319 398 LINE",
"319 516 LINE",
"231 516 LINE",
"231 398 LINE",
"40 398 LINE",
"40 309 LINE",
"231 309 LINE",
"231 191 LINE",
"319 191 LINE",
"319 309 LINE",
"510 309 LINE"
);
},
{
closed = 1;
nodes = (
"510 164 LINE",
"40 164 LINE",
"40 75 LINE",
"510 75 LINE"
);
}
);
width = 550;
}
);
note = plusminus;
unicode = 00B1;
},
{
glyphname = approxequal;
lastChange = "2018-03-19 01:10:36 +0000";
layers = (
{
layerId = "E1ADDF7C-A343-4E6D-B630-136BDFE64807";
paths = (
{
closed = 1;
nodes = (
"468 292 OFFCURVE",
"522 316 OFFCURVE",
"564 387 CURVE",
"488 424 LINE",
"464 384 OFFCURVE",
"416 367 OFFCURVE",
"366 388 CURVE SMOOTH",
"335 401 OFFCURVE",
"311 414 OFFCURVE",
"293 423 CURVE",
"284 428 OFFCURVE",
"274 432 OFFCURVE",
"264 435 CURVE",
"243 443 OFFCURVE",
"222 448 OFFCURVE",
"195 448 CURVE SMOOTH",
"192 448 LINE SMOOTH",
"133 448 OFFCURVE",
"82 412 OFFCURVE",
"40 341 CURVE",
"118 297 LINE",
"131 322 OFFCURVE",
"144 339 OFFCURVE",
"157 348 CURVE SMOOTH",
"182 366 OFFCURVE",
"206 365 OFFCURVE",
"235 354 CURVE",
"250 347 OFFCURVE",
"263 341 OFFCURVE",
"278 333 CURVE",
"297 324 OFFCURVE",
"315 314 OFFCURVE",
"338 306 CURVE SMOOTH",
"361 298 OFFCURVE",
"387 292 OFFCURVE",
"415 292 CURVE SMOOTH"
);
},
{
closed = 1;
nodes = (
"150 279 OFFCURVE",
"102 244 OFFCURVE",
"60 173 CURVE",
"137 130 LINE",
"152 155 OFFCURVE",
"165 172 OFFCURVE",
"175 181 CURVE",
"196 198 OFFCURVE",
"221 196 OFFCURVE",
"252 183 CURVE SMOOTH",
"283 170 OFFCURVE",
"307 157 OFFCURVE",
"325 148 CURVE",
"334 143 OFFCURVE",
"344 139 OFFCURVE",
"354 136 CURVE",
"375 128 OFFCURVE",
"396 123 OFFCURVE",
"423 123 CURVE SMOOTH",
"426 123 LINE SMOOTH",
"485 123 OFFCURVE",
"542 148 OFFCURVE",
"584 219 CURVE",
"512 259 LINE",
"492 221 OFFCURVE",
"431 199 OFFCURVE",
"383 217 CURVE",
"368 224 OFFCURVE",
"355 230 OFFCURVE",
"340 238 CURVE",
"321 247 OFFCURVE",
"303 257 OFFCURVE",
"280 265 CURVE SMOOTH",
"257 273 OFFCURVE",
"231 279 OFFCURVE",
"203 279 CURVE SMOOTH"
);
}
);
width = 624;
}
);
note = approxequal;
unicode = 2248;
},
{
glyphname = asciitilde;
lastChange = "2018-03-18 23:32:31 +0000";
layers = (
{
layerId = "E1ADDF7C-A343-4E6D-B630-136BDFE64807";
paths = (
{
closed = 1;
nodes = (
"464 290 OFFCURVE",
"512 323 OFFCURVE",
"553 389 CURVE",
"477 429 LINE",
"462 406 OFFCURVE",
"449 390 OFFCURVE",
"439 382 CURVE SMOOTH",
"418 365 OFFCURVE",
"393 367 OFFCURVE",
"362 379 CURVE SMOOTH",
"331 391 OFFCURVE",
"307 403 OFFCURVE",
"288 412 CURVE SMOOTH",
"279 416 OFFCURVE",
"269 420 OFFCURVE",
"260 423 CURVE SMOOTH",
"239 430 OFFCURVE",
"218 435 OFFCURVE",
"191 435 CURVE SMOOTH",
"188 435 LINE SMOOTH",
"129 435 OFFCURVE",
"78 402 OFFCURVE",
"36 336 CURVE",
"114 295 LINE",
"141 340 OFFCURVE",
"166 355 OFFCURVE",
"189 355 CURVE SMOOTH",
"196 355 OFFCURVE",
"203 354 OFFCURVE",
"210 353 CURVE",
"223 350 OFFCURVE",
"239 346 OFFCURVE",
"253 339 CURVE",
"260 336 OFFCURVE",
"267 332 OFFCURVE",
"274 329 CURVE",
"293 320 OFFCURVE",
"311 311 OFFCURVE",
"334 303 CURVE",
"357 296 OFFCURVE",
"382 290 OFFCURVE",
"411 290 CURVE SMOOTH"
);
}
);
width = 589;
}
);
note = asciitilde;
unicode = 007E;
},
{
glyphname = logicalnot;
lastChange = "2018-03-18 23:32:31 +0000";
layers = (
{
layerId = "E1ADDF7C-A343-4E6D-B630-136BDFE64807";
paths = (
{
closed = 1;
nodes = (
"541 333 LINE",
"40 332 LINE",
"40 248 LINE",
"452 248 LINE",
"452 108 LINE",
"541 108 LINE"
);
}
);
width = 581;
}
);
note = logicalnot;
unicode = 00AC;
},
{
glyphname = asciicircum;
lastChange = "2018-03-18 23:32:31 +0000";
layers = (
{
layerId = "E1ADDF7C-A343-4E6D-B630-136BDFE64807";
paths = (
{
closed = 1;
nodes = (
"242 665 LINE",
"147 665 LINE",
"35 344 LINE",
"125 344 LINE",
"194 542 LINE",
"264 344 LINE",
"354 344 LINE"
);
}
);
width = 389;
}
);
note = asciicircum;
unicode = 005E;
},
{
glyphname = emptyset;
lastChange = "2018-03-18 23:32:31 +0000";
layers = (
{
layerId = "E1ADDF7C-A343-4E6D-B630-136BDFE64807";
paths = (
{
closed = 1;
nodes = (
"465 -2 OFFCURVE",
"549 35 OFFCURVE",
"609 96 CURVE SMOOTH",
"669 156 OFFCURVE",
"707 239 OFFCURVE",
"707 331 CURVE SMOOTH",
"707 444 OFFCURVE",
"651 543 OFFCURVE",
"566 604 CURVE",
"599 666 LINE",
"506 666 LINE",
"493 643 LINE",
"454 658 OFFCURVE",
"414 665 OFFCURVE",
"373 665 CURVE SMOOTH",
"281 665 OFFCURVE",
"198 627 OFFCURVE",
"138 567 CURVE SMOOTH",
"77 507 OFFCURVE",
"40 423 OFFCURVE",
"40 331 CURVE SMOOTH",
"40 218 OFFCURVE",
"95 120 OFFCURVE",
"180 60 CURVE",
"148 0 LINE",
"242 0 LINE",
"252 21 LINE",
"291 5 OFFCURVE",
"330 -2 OFFCURVE",
"373 -2 CURVE SMOOTH"
);
},
{
closed = 1;
nodes = (
"590 486 OFFCURVE",
"628 414 OFFCURVE",
"628 331 CURVE SMOOTH",
"628 260 OFFCURVE",
"600 198 OFFCURVE",
"554 152 CURVE SMOOTH",
"508 106 OFFCURVE",
"443 77 OFFCURVE",
"374 77 CURVE SMOOTH",
"345 77 OFFCURVE",
"318 82 OFFCURVE",
"291 91 CURVE",
"527 533 LINE"
);
},
{
closed = 1;
nodes = (
"401 585 OFFCURVE",
"428 580 OFFCURVE",
"455 571 CURVE",
"218 131 LINE",
"158 178 OFFCURVE",
"120 250 OFFCURVE",
"120 331 CURVE SMOOTH",
"120 400 OFFCURVE",
"149 465 OFFCURVE",
"195 511 CURVE SMOOTH",
"241 557 OFFCURVE",
"303 585 OFFCURVE",
"374 585 CURVE SMOOTH"
);
}
);
width = 747;
}
);
note = emptyset;
unicode = 2205;
},
{
glyphname = infinity;
lastChange = "2018-03-19 01:10:57 +0000";
layers = (
{
layerId = "E1ADDF7C-A343-4E6D-B630-136BDFE64807";
paths = (
{
closed = 1;
nodes = (
"323 213 OFFCURVE",
"368 193 OFFCURVE",
"412 193 CURVE SMOOTH",
"451 193 OFFCURVE",
"487 208 OFFCURVE",
"513 233 CURVE SMOOTH",
"539 257 OFFCURVE",
"554 291 OFFCURVE",
"554 328 CURVE SMOOTH",
"554 365 OFFCURVE",
"539 400 OFFCURVE",
"513 425 CURVE SMOOTH",
"487 449 OFFCURVE",
"451 464 OFFCURVE",
"412 464 CURVE SMOOTH",
"368 464 OFFCURVE",
"325 442 OFFCURVE",
"298 407 CURVE",
"298 407 OFFCURVE",
"298 406 OFFCURVE",
"297 405 CURVE",
"269 442 OFFCURVE",
"228 464 OFFCURVE",
"181 464 CURVE SMOOTH",
"142 464 OFFCURVE",
"106 449 OFFCURVE",
"81 425 CURVE SMOOTH",
"56 400 OFFCURVE",
"40 365 OFFCURVE",
"40 328 CURVE SMOOTH",
"40 291 OFFCURVE",
"56 257 OFFCURVE",
"82 233 CURVE SMOOTH",
"108 208 OFFCURVE",
"142 193 OFFCURVE",
"181 193 CURVE SMOOTH",
"228 193 OFFCURVE",
"270 212 OFFCURVE",
"297 251 CURVE",
"298 249 LINE"
);
},
{
closed = 1;
nodes = (
"441 378 OFFCURVE",
"464 356 OFFCURVE",
"464 328 CURVE SMOOTH",
"464 300 OFFCURVE",
"441 278 OFFCURVE",
"412 278 CURVE SMOOTH",
"395 278 OFFCURVE",
"381 285 OFFCURVE",
"371 299 CURVE",
"373 297 OFFCURVE",
"356 321 OFFCURVE",
"350 329 CURVE",
"355 336 OFFCURVE",
"360 343 OFFCURVE",
"364 348 CURVE",
"367 353 OFFCURVE",
"370 356 OFFCURVE",
"371 357 CURVE",
"381 371 OFFCURVE",
"395 378 OFFCURVE",
"412 378 CURVE SMOOTH"
);
},
{
closed = 1;
nodes = (
"239 322 OFFCURVE",
"234 316 OFFCURVE",
"231 311 CURVE",
"227 305 OFFCURVE",
"224 301 OFFCURVE",
"223 299 CURVE",
"212 285 OFFCURVE",
"198 278 OFFCURVE",
"181 278 CURVE SMOOTH",
"152 278 OFFCURVE",
"129 300 OFFCURVE",
"129 328 CURVE SMOOTH",
"129 356 OFFCURVE",
"152 378 OFFCURVE",
"181 378 CURVE SMOOTH",
"199 378 OFFCURVE",
"213 371 OFFCURVE",
"223 357 CURVE SMOOTH",
"244 329 LINE"
);
}
);
width = 594;
}
);
note = infinity;
unicode = 221E;
},
{
glyphname = integral;
lastChange = "2018-03-18 23:32:31 +0000";
layers = (
{
layerId = "E1ADDF7C-A343-4E6D-B630-136BDFE64807";
paths = (
{
closed = 1;
nodes = (
"232 574 OFFCURVE",
"242 599 OFFCURVE",
"262 617 CURVE SMOOTH",
"281 635 OFFCURVE",
"307 646 OFFCURVE",
"339 646 CURVE",
"339 737 LINE",
"283 737 OFFCURVE",
"235 716 OFFCURVE",
"201 682 CURVE SMOOTH",
"167 648 OFFCURVE",
"146 599 OFFCURVE",
"146 547 CURVE SMOOTH",
"146 10 LINE SMOOTH",
"146 -45 OFFCURVE",
"104 -89 OFFCURVE",
"40 -89 CURVE",
"40 -180 LINE",
"96 -180 OFFCURVE",
"144 -158 OFFCURVE",
"178 -124 CURVE SMOOTH",
"212 -90 OFFCURVE",
"232 -42 OFFCURVE",
"232 10 CURVE SMOOTH",
"232 547 LINE SMOOTH"
);
}
);
width = 379;
}
);
note = integral;
unicode = 222B;
},
{
glyphname = product;
lastChange = "2018-03-18 23:32:31 +0000";
layers = (
{
layerId = "E1ADDF7C-A343-4E6D-B630-136BDFE64807";
paths = (
{
closed = 1;
nodes = (
"537 666 LINE",
"40 666 LINE",
"40 573 LINE",
"149 573 LINE",
"149 1 LINE",
"241 1 LINE",
"241 573 LINE",
"345 573 LINE",
"345 1 LINE",
"437 1 LINE",
"437 573 LINE",
"537 573 LINE"
);
}
);
width = 577;
}
);
note = product;
unicode = 220F;
},
{
glyphname = summation;
lastChange = "2018-03-18 23:32:31 +0000";
layers = (
{
layerId = "E1ADDF7C-A343-4E6D-B630-136BDFE64807";
paths = (
{
closed = 1;
nodes = (
"430 87 LINE",
"149 87 LINE",
"296 331 LINE",
"149 579 LINE",
"430 579 LINE",
"430 670 LINE",
"40 670 LINE",
"40 588 LINE",
"192 332 LINE",
"40 77 LINE",
"40 -4 LINE",
"430 -4 LINE"
);
}
);
width = 470;
}
);
note = summation;
unicode = 2211;
},
{
glyphname = radical;
lastChange = "2018-03-18 23:32:31 +0000";
layers = (
{
layerId = "E1ADDF7C-A343-4E6D-B630-136BDFE64807";
paths = (
{
closed = 1;
nodes = (
"532 666 LINE",
"338 666 LINE",
"185 152 LINE",
"131 281 LINE",
"34 281 LINE",
"153 0 LINE",
"233 0 LINE",
"404 576 LINE",
"532 576 LINE"
);
}
);
width = 572;
}
);
note = radical;
unicode = 221A;
},
{
glyphname = partialdiff;
lastChange = "2018-03-19 01:11:55 +0000";
layers = (
{
layerId = "E1ADDF7C-A343-4E6D-B630-136BDFE64807";
paths = (
{
closed = 1;
nodes = (
"151 578 OFFCURVE",
"205 578 OFFCURVE",
"234 531 CURVE SMOOTH",
"241 520 OFFCURVE",
"253 490 OFFCURVE",
"264 457 CURVE SMOOTH",
"275 424 OFFCURVE",
"285 392 OFFCURVE",
"289 380 CURVE SMOOTH",
"296 359 LINE",
"283 364 OFFCURVE",
"269 366 OFFCURVE",
"256 367 CURVE SMOOTH",
"228 369 OFFCURVE",
"201 366 OFFCURVE",
"176 357 CURVE SMOOTH",
"125 339 OFFCURVE",
"86 302 OFFCURVE",
"62 254 CURVE SMOOTH",
"37 205 OFFCURVE",
"33 145 OFFCURVE",
"51 93 CURVE SMOOTH",
"69 41 OFFCURVE",
"103 0 OFFCURVE",
"151 -25 CURVE SMOOTH",
"199 -50 OFFCURVE",
"259 -54 OFFCURVE",
"309 -36 CURVE SMOOTH",
"359 -18 OFFCURVE",
"399 18 OFFCURVE",
"423 67 CURVE SMOOTH",
"447 115 OFFCURVE",
"452 176 OFFCURVE",
"433 232 CURVE SMOOTH",
"430 241 OFFCURVE",
"427 251 OFFCURVE",
"424 260 CURVE SMOOTH",
"421 269 OFFCURVE",
"417 278 OFFCURVE",
"414 287 CURVE SMOOTH",
"407 306 OFFCURVE",
"379 392 OFFCURVE",
"337 513 CURVE SMOOTH",
"332 527 OFFCURVE",
"327 541 OFFCURVE",
"321 555 CURVE SMOOTH",
"309 583 OFFCURVE",
"284 620 OFFCURVE",
"237 643 CURVE SMOOTH",
"188 667 OFFCURVE",
"128 668 OFFCURVE",
"69 649 CURVE",
"105 565 LINE"
);
},
{
closed = 1;
nodes = (
"282 275 OFFCURVE",
"309 261 OFFCURVE",
"329 238 CURVE",
"348 214 OFFCURVE",
"359 184 OFFCURVE",
"356 152 CURVE SMOOTH",
"353 120 OFFCURVE",
"340 91 OFFCURVE",
"318 71 CURVE SMOOTH",
"296 51 OFFCURVE",
"266 40 OFFCURVE",
"234 43 CURVE",
"203 44 OFFCURVE",
"176 60 OFFCURVE",
"157 83 CURVE SMOOTH",
"137 106 OFFCURVE",
"125 136 OFFCURVE",
"128 168 CURVE SMOOTH",
"131 200 OFFCURVE",
"146 229 OFFCURVE",
"168 249 CURVE SMOOTH",
"190 269 OFFCURVE",
"219 279 OFFCURVE",
"251 278 CURVE"
);
}
);
width = 485;
}
);
note = partialdiff;
unicode = 2202;
},
{
glyphname = percent;
lastChange = "2018-03-19 01:12:16 +0000";
layers = (
{
layerId = "E1ADDF7C-A343-4E6D-B630-136BDFE64807";
paths = (
{
closed = 1;
nodes = (
"506 666 LINE",
"148 0 LINE",
"249 0 LINE",
"607 666 LINE"
);
},
{
closed = 1;
nodes = (
"49 481 OFFCURVE",
"65 446 OFFCURVE",
"91 420 CURVE SMOOTH",
"117 394 OFFCURVE",
"153 377 OFFCURVE",
"193 377 CURVE SMOOTH",
"233 377 OFFCURVE",
"269 394 OFFCURVE",
"295 420 CURVE SMOOTH",
"321 446 OFFCURVE",
"337 481 OFFCURVE",
"337 521 CURVE SMOOTH",
"337 561 OFFCURVE",
"321 598 OFFCURVE",
"295 624 CURVE SMOOTH",
"269 650 OFFCURVE",
"233 666 OFFCURVE",
"193 666 CURVE SMOOTH",
"153 666 OFFCURVE",
"117 650 OFFCURVE",
"91 624 CURVE SMOOTH",
"65 598 OFFCURVE",
"49 561 OFFCURVE",
"49 521 CURVE SMOOTH"
);
},
{
closed = 1;
nodes = (
"139 552 OFFCURVE",
"162 575 OFFCURVE",
"193 575 CURVE SMOOTH",
"224 575 OFFCURVE",
"248 552 OFFCURVE",
"248 521 CURVE SMOOTH",
"248 490 OFFCURVE",
"224 466 OFFCURVE",
"193 466 CURVE SMOOTH",
"162 466 OFFCURVE",
"139 490 OFFCURVE",
"139 521 CURVE SMOOTH"
);
},
{
closed = 1;
nodes = (
"427 102 OFFCURVE",
"443 66 OFFCURVE",
"469 40 CURVE SMOOTH",
"495 14 OFFCURVE",
"531 -2 OFFCURVE",
"571 -2 CURVE SMOOTH",
"611 -2 OFFCURVE",
"648 14 OFFCURVE",
"674 40 CURVE SMOOTH",
"700 66 OFFCURVE",
"716 102 OFFCURVE",
"716 142 CURVE SMOOTH",
"716 182 OFFCURVE",
"700 218 OFFCURVE",
"674 244 CURVE SMOOTH",
"648 270 OFFCURVE",
"611 286 OFFCURVE",
"571 286 CURVE SMOOTH",
"531 286 OFFCURVE",
"495 270 OFFCURVE",
"469 244 CURVE SMOOTH",
"443 218 OFFCURVE",
"427 182 OFFCURVE",
"427 142 CURVE SMOOTH"
);
},
{
closed = 1;
nodes = (
"516 173 OFFCURVE",
"540 197 OFFCURVE",
"571 197 CURVE SMOOTH",
"602 197 OFFCURVE",
"625 173 OFFCURVE",
"625 142 CURVE SMOOTH",
"625 111 OFFCURVE",
"602 88 OFFCURVE",
"571 88 CURVE SMOOTH",
"540 88 OFFCURVE",
"516 111 OFFCURVE",
"516 142 CURVE SMOOTH"
);
}
);
width = 764;
}
);
note = percent;
unicode = 0025;
},
{
glyphname = perthousand;
lastChange = "2018-03-19 01:13:13 +0000";
layers = (
{
layerId = "E1ADDF7C-A343-4E6D-B630-136BDFE64807";
paths = (
{
closed = 1;
nodes = (
"467 666 LINE",
"106 0 LINE",
"208 0 LINE",
"570 666 LINE"
);
},
{
closed = 1;
nodes = (
"521 -2 OFFCURVE",
"557 14 OFFCURVE",
"584 40 CURVE SMOOTH",
"611 66 OFFCURVE",
"627 102 OFFCURVE",
"627 142 CURVE SMOOTH",
"627 182 OFFCURVE",
"611 218 OFFCURVE",
"584 244 CURVE SMOOTH",
"557 270 OFFCURVE",
"521 286 OFFCURVE",
"481 286 CURVE SMOOTH",
"441 286 OFFCURVE",
"404 270 OFFCURVE",
"378 244 CURVE SMOOTH",
"352 218 OFFCURVE",
"335 182 OFFCURVE",
"335 142 CURVE SMOOTH",
"335 102 OFFCURVE",
"352 66 OFFCURVE",
"378 40 CURVE SMOOTH",
"404 14 OFFCURVE",
"441 -2 OFFCURVE",
"481 -2 CURVE SMOOTH"
);
},
{
closed = 1;
nodes = (
"512 197 OFFCURVE",
"536 173 OFFCURVE",
"536 142 CURVE SMOOTH",
"536 111 OFFCURVE",
"512 88 OFFCURVE",
"481 88 CURVE SMOOTH",
"450 88 OFFCURVE",
"426 111 OFFCURVE",
"426 142 CURVE SMOOTH",
"426 173 OFFCURVE",
"450 197 OFFCURVE",
"481 197 CURVE SMOOTH"
);
},
{
closed = 1;
nodes = (
"40 481 OFFCURVE",
"57 446 OFFCURVE",
"83 420 CURVE SMOOTH",
"109 394 OFFCURVE",
"145 377 OFFCURVE",
"185 377 CURVE SMOOTH",
"225 377 OFFCURVE",
"263 394 OFFCURVE",
"289 420 CURVE SMOOTH",
"315 446 OFFCURVE",
"331 481 OFFCURVE",
"331 521 CURVE SMOOTH",
"331 561 OFFCURVE",
"315 598 OFFCURVE",
"289 624 CURVE SMOOTH",
"263 650 OFFCURVE",
"225 666 OFFCURVE",
"185 666 CURVE SMOOTH",
"145 666 OFFCURVE",
"109 650 OFFCURVE",
"83 624 CURVE SMOOTH",
"57 598 OFFCURVE",
"40 561 OFFCURVE",
"40 521 CURVE SMOOTH"
);
},
{
closed = 1;
nodes = (
"130 552 OFFCURVE",
"154 575 OFFCURVE",
"185 575 CURVE SMOOTH",
"216 575 OFFCURVE",
"240 552 OFFCURVE",
"240 521 CURVE SMOOTH",
"240 490 OFFCURVE",
"216 466 OFFCURVE",
"185 466 CURVE SMOOTH",
"154 466 OFFCURVE",
"130 490 OFFCURVE",
"130 521 CURVE SMOOTH"
);
},
{
closed = 1;
nodes = (
"661 102 OFFCURVE",
"678 66 OFFCURVE",
"704 40 CURVE SMOOTH",
"730 14 OFFCURVE",
"767 -2 OFFCURVE",
"807 -2 CURVE SMOOTH",
"847 -2 OFFCURVE",
"883 14 OFFCURVE",
"910 40 CURVE SMOOTH",
"937 66 OFFCURVE",
"953 102 OFFCURVE",
"953 142 CURVE SMOOTH",
"953 182 OFFCURVE",
"937 218 OFFCURVE",
"910 244 CURVE SMOOTH",
"883 270 OFFCURVE",
"847 286 OFFCURVE",
"807 286 CURVE SMOOTH",
"767 286 OFFCURVE",
"730 270 OFFCURVE",
"704 244 CURVE SMOOTH",
"678 218 OFFCURVE",
"661 182 OFFCURVE",
"661 142 CURVE SMOOTH"
);
},
{
closed = 1;
nodes = (
"752 173 OFFCURVE",
"776 197 OFFCURVE",
"807 197 CURVE SMOOTH",
"838 197 OFFCURVE",
"862 173 OFFCURVE",
"862 142 CURVE SMOOTH",
"862 111 OFFCURVE",
"838 88 OFFCURVE",
"807 88 CURVE SMOOTH",
"776 88 OFFCURVE",
"752 111 OFFCURVE",
"752 142 CURVE SMOOTH"
);
}
);
width = 993;
}
);
note = perthousand;
unicode = 2030;
},
{
glyphname = lozenge;
lastChange = "2018-03-18 23:32:31 +0000";
layers = (
{
layerId = "E1ADDF7C-A343-4E6D-B630-136BDFE64807";
paths = (
{
closed = 1;
nodes = (
"242 641 LINE",
"147 641 LINE",
"39 321 LINE",
"147 0 LINE",
"242 0 LINE",
"350 321 LINE"
);
},
{
closed = 1;
nodes = (
"195 127 LINE",
"130 321 LINE",
"195 514 LINE",
"260 321 LINE"
);
}
);
width = 389;
}
);
note = lozenge;
unicode = 25CA;
},
{
glyphname = at;
lastChange = "2018-03-19 01:13:44 +0000";
layers = (
{
layerId = "E1ADDF7C-A343-4E6D-B630-136BDFE64807";
paths = (
{
closed = 1;
nodes = (
"40 240 OFFCURVE",
"78 156 OFFCURVE",
"139 96 CURVE SMOOTH",
"199 35 OFFCURVE",
"283 -3 OFFCURVE",
"375 -3 CURVE SMOOTH",
"396 -3 OFFCURVE",
"416 -2 OFFCURVE",
"440 3 CURVE",
"440 96 LINE",
"412 89 OFFCURVE",
"394 87 OFFCURVE",
"375 87 CURVE SMOOTH",
"307 87 OFFCURVE",
"246 115 OFFCURVE",
"202 159 CURVE SMOOTH",
"158 203 OFFCURVE",
"131 264 OFFCURVE",
"131 332 CURVE SMOOTH",
"131 400 OFFCURVE",
"158 461 OFFCURVE",
"202 505 CURVE SMOOTH",
"246 549 OFFCURVE",
"307 576 OFFCURVE",
"375 576 CURVE SMOOTH",
"443 576 OFFCURVE",
"504 549 OFFCURVE",
"548 505 CURVE SMOOTH",
"592 461 OFFCURVE",
"620 400 OFFCURVE",
"620 332 CURVE SMOOTH",
"620 263 OFFCURVE",
"606 220 OFFCURVE",
"582 197 CURVE",
"567 184 OFFCURVE",
"542 182 OFFCURVE",
"531 186 CURVE",
"531 493 LINE",
"441 493 LINE",
"441 470 LINE",
"416 485 OFFCURVE",
"389 493 OFFCURVE",
"358 493 CURVE SMOOTH",
"314 493 OFFCURVE",
"274 475 OFFCURVE",
"245 447 CURVE SMOOTH",
"216 418 OFFCURVE",
"198 378 OFFCURVE",
"198 334 CURVE SMOOTH",
"198 290 OFFCURVE",
"216 249 OFFCURVE",
"245 221 CURVE SMOOTH",
"274 192 OFFCURVE",
"314 174 OFFCURVE",
"358 174 CURVE SMOOTH",
"389 174 OFFCURVE",
"417 182 OFFCURVE",
"441 197 CURVE",
"441 186 LINE SMOOTH",
"441 149 OFFCURVE",
"461 118 OFFCURVE",
"496 103 CURVE SMOOTH",
"543 83 OFFCURVE",
"604 95 OFFCURVE",
"643 131 CURVE SMOOTH",
"690 174 OFFCURVE",
"710 240 OFFCURVE",
"710 332 CURVE SMOOTH",
"710 424 OFFCURVE",
"672 508 OFFCURVE",
"612 569 CURVE SMOOTH",
"551 629 OFFCURVE",
"467 667 OFFCURVE",
"375 667 CURVE SMOOTH",
"283 667 OFFCURVE",
"199 629 OFFCURVE",
"139 569 CURVE SMOOTH",
"78 508 OFFCURVE",
"40 424 OFFCURVE",
"40 332 CURVE SMOOTH"
);
},
{
closed = 1;
nodes = (
"289 373 OFFCURVE",
"319 403 OFFCURVE",
"358 403 CURVE SMOOTH",
"397 403 OFFCURVE",
"428 373 OFFCURVE",
"428 334 CURVE SMOOTH",
"428 295 OFFCURVE",
"397 264 OFFCURVE",
"358 264 CURVE SMOOTH",
"319 264 OFFCURVE",
"289 295 OFFCURVE",
"289 334 CURVE SMOOTH"
);
}
);
width = 750;
}
);
note = at;
unicode = 0040;
},
{
glyphname = ampersand;
lastChange = "2018-03-19 01:14:12 +0000";
layers = (
{
layerId = "E1ADDF7C-A343-4E6D-B630-136BDFE64807";
paths = (
{
closed = 1;
nodes = (
"511 0 LINE",
"451 86 LINE",
"479 125 OFFCURVE",
"492 173 OFFCURVE",
"492 221 CURVE SMOOTH",
"492 254 LINE",
"404 254 LINE",
"404 219 LINE SMOOTH",
"404 200 OFFCURVE",
"401 183 OFFCURVE",
"395 166 CURVE",
"187 466 LINE SMOOTH",
"152 515 OFFCURVE",
"199 576 OFFCURVE",
"257 576 CURVE SMOOTH",
"304 576 OFFCURVE",
"341 539 OFFCURVE",
"341 479 CURVE",
"429 479 LINE",
"429 532 OFFCURVE",
"410 580 OFFCURVE",
"379 613 CURVE SMOOTH",
"347 646 OFFCURVE",
"305 666 OFFCURVE",
"257 666 CURVE SMOOTH",
"210 666 OFFCURVE",
"167 646 OFFCURVE",
"136 615 CURVE SMOOTH",
"105 583 OFFCURVE",
"86 539 OFFCURVE",
"86 491 CURVE SMOOTH",
"86 469 OFFCURVE",
"96 441 OFFCURVE",
"115 415 CURVE",
"127 397 LINE",
"87 365 OFFCURVE",
"62 318 OFFCURVE",
"53 266 CURVE SMOOTH",
"42 207 OFFCURVE",
"56 150 OFFCURVE",
"89 99 CURVE SMOOTH",
"133 31 OFFCURVE",
"204 -4 OFFCURVE",
"276 -4 CURVE SMOOTH",
"313 -4 OFFCURVE",
"351 5 OFFCURVE",
"383 28 CURVE",
"402 0 LINE"
);
},
{
closed = 1;
nodes = (
"305 84 OFFCURVE",
"273 82 OFFCURVE",
"242 91 CURVE SMOOTH",
"211 99 OFFCURVE",
"183 118 OFFCURVE",
"163 149 CURVE SMOOTH",
"120 213 OFFCURVE",
"138 285 OFFCURVE",
"178 324 CURVE",
"333 100 LINE"
);
}
);
width = 550;
}
);
note = ampersand;
unicode = 0026;
},
{
glyphname = paragraph;
lastChange = "2018-03-19 01:14:32 +0000";
layers = (
{
layerId = "E1ADDF7C-A343-4E6D-B630-136BDFE64807";
paths = (
{
closed = 1;
nodes = (
"462 665 LINE",
"374 665 LINE",
"374 0 LINE",
"462 0 LINE"
);
},
{
closed = 1;
nodes = (
"322 665 LINE",
"199 665 LINE SMOOTH",
"155 665 OFFCURVE",
"115 646 OFFCURVE",
"87 617 CURVE SMOOTH",
"58 588 OFFCURVE",
"40 547 OFFCURVE",
"40 503 CURVE SMOOTH",
"40 458 OFFCURVE",
"58 416 OFFCURVE",
"87 387 CURVE SMOOTH",
"115 358 OFFCURVE",
"155 339 OFFCURVE",
"199 339 CURVE SMOOTH",
"234 339 LINE",
"234 0 LINE",
"322 0 LINE"
);
}
);
width = 512;
}
);
note = paragraph;
unicode = 00B6;
},
{
glyphname = section;
lastChange = "2018-03-19 01:14:59 +0000";
layers = (
{
layerId = "E1ADDF7C-A343-4E6D-B630-136BDFE64807";
paths = (
{
closed = 1;
nodes = (
"40 274 OFFCURVE",
"62 232 OFFCURVE",
"106 208 CURVE SMOOTH",
"145 187 OFFCURVE",
"194 184 OFFCURVE",
"235 184 CURVE SMOOTH",
"257 184 OFFCURVE",
"273 180 OFFCURVE",
"282 172 CURVE",
"290 164 LINE",
"300 151 OFFCURVE",
"304 135 OFFCURVE",
"302 118 CURVE SMOOTH",
"301 109 OFFCURVE",
"299 95 OFFCURVE",
"287 83 CURVE SMOOTH",
"275 71 OFFCURVE",
"254 61 OFFCURVE",
"214 61 CURVE SMOOTH",
"179 61 OFFCURVE",
"156 72 OFFCURVE",
"143 94 CURVE",
"137 103 OFFCURVE",
"133 113 OFFCURVE",
"131 124 CURVE",
"42 124 LINE",
"47 94 OFFCURVE",
"53 69 OFFCURVE",
"69 45 CURVE SMOOTH",
"80 28 OFFCURVE",
"96 10 OFFCURVE",
"120 -4 CURVE SMOOTH",
"143 -18 OFFCURVE",
"175 -29 OFFCURVE",
"215 -29 CURVE SMOOTH",
"314 -29 OFFCURVE",
"377 18 OFFCURVE",
"388 106 CURVE SMOOTH",
"392.754 146.886 OFFCURVE",
"384.851 186.867 OFFCURVE",
"360.853 217.349 CURVE",
"380.284 243.014 OFFCURVE",
"390 274.507 OFFCURVE",
"390 306 CURVE SMOOTH",
"390 366 OFFCURVE",
"368 408 OFFCURVE",
"324 432 CURVE SMOOTH",
"285 453 OFFCURVE",
"236 456 OFFCURVE",
"195 456 CURVE SMOOTH",
"172 456 OFFCURVE",
"157 460 OFFCURVE",
"148 468 CURVE SMOOTH",
"139 476 LINE",
"130 487 OFFCURVE",
"125 503 OFFCURVE",
"128 522 CURVE",
"128 533 OFFCURVE",
"132 546 OFFCURVE",
"141 557 CURVE",
"152 568 OFFCURVE",
"172 579 OFFCURVE",
"216 579 CURVE SMOOTH",
"252 579 OFFCURVE",
"274 569 OFFCURVE",
"287 546 CURVE",
"292 536 OFFCURVE",
"296 526 OFFCURVE",
"298 515 CURVE",
"388 515 LINE",
"383 545 OFFCURVE",
"377 570 OFFCURVE",
"361 595 CURVE SMOOTH",
"350 612 OFFCURVE",
"334 631 OFFCURVE",
"311 645 CURVE SMOOTH",
"287 659 OFFCURVE",
"255 669 OFFCURVE",
"215 669 CURVE SMOOTH",
"166 669 OFFCURVE",
"126 658 OFFCURVE",
"95 635 CURVE SMOOTH",
"34 589 OFFCURVE",
"21 486 OFFCURVE",
"69 423 CURVE",
"50 396 OFFCURVE",
"40 367 OFFCURVE",
"40 334 CURVE SMOOTH"
);
},
{
closed = 1;
nodes = (
"128 349 OFFCURVE",
"133 362 OFFCURVE",
"142 373 CURVE",
"157 368 OFFCURVE",
"174 366 OFFCURVE",
"195 366 CURVE SMOOTH",
"236 366 OFFCURVE",
"264 363 OFFCURVE",
"280 355 CURVE",
"296 346 OFFCURVE",
"302 330 OFFCURVE",
"302 306 CURVE SMOOTH",
"302 291 OFFCURVE",
"297 278 OFFCURVE",
"288 267 CURVE",
"273 272 OFFCURVE",
"256 274 OFFCURVE",
"235 274 CURVE SMOOTH",
"192 274 OFFCURVE",
"166 277 OFFCURVE",
"150 286 CURVE",
"134 294 OFFCURVE",
"128 310 OFFCURVE",
"128 334 CURVE SMOOTH"
);
}
);
width = 430;
}
);
note = section;
unicode = 00A7;
},
{
glyphname = copyright;
lastChange = "2018-03-19 01:15:13 +0000";
layers = (
{
layerId = "E1ADDF7C-A343-4E6D-B630-136BDFE64807";
paths = (
{
closed = 1;
nodes = (
"467 -4 OFFCURVE",
"551 33 OFFCURVE",
"612 94 CURVE SMOOTH",
"672 154 OFFCURVE",
"710 238 OFFCURVE",
"710 331 CURVE SMOOTH",
"710 423 OFFCURVE",
"672 507 OFFCURVE",
"612 568 CURVE SMOOTH",
"551 628 OFFCURVE",
"467 666 OFFCURVE",
"375 666 CURVE SMOOTH",
"283 666 OFFCURVE",
"199 628 OFFCURVE",
"139 568 CURVE SMOOTH",
"78 507 OFFCURVE",
"40 423 OFFCURVE",
"40 331 CURVE SMOOTH",
"40 238 OFFCURVE",
"78 154 OFFCURVE",
"139 94 CURVE SMOOTH",
"199 33 OFFCURVE",
"283 -4 OFFCURVE",
"375 -4 CURVE SMOOTH"
);
},
{
closed = 1;
nodes = (
"443 575 OFFCURVE",
"504 547 OFFCURVE",
"548 503 CURVE SMOOTH",
"592 459 OFFCURVE",
"620 398 OFFCURVE",
"620 331 CURVE SMOOTH",
"620 263 OFFCURVE",
"592 202 OFFCURVE",
"548 158 CURVE SMOOTH",
"504 114 OFFCURVE",
"443 86 OFFCURVE",
"375 86 CURVE SMOOTH",
"308 86 OFFCURVE",
"247 114 OFFCURVE",
"203 158 CURVE SMOOTH",
"159 202 OFFCURVE",
"131 263 OFFCURVE",
"131 331 CURVE SMOOTH",
"131 398 OFFCURVE",
"159 459 OFFCURVE",
"203 503 CURVE SMOOTH",
"247 547 OFFCURVE",
"308 575 OFFCURVE",
"375 575 CURVE SMOOTH"
);
},
{
closed = 1;
nodes = (
"437 152 OFFCURVE",
"488 175 OFFCURVE",
"529 225 CURVE",
"464 281 LINE",
"438 250 OFFCURVE",
"414 238 OFFCURVE",
"384 238 CURVE SMOOTH",
"358 238 OFFCURVE",
"336 249 OFFCURVE",
"318 266 CURVE SMOOTH",
"301 283 OFFCURVE",
"290 306 OFFCURVE",
"290 333 CURVE SMOOTH",
"290 359 OFFCURVE",
"301 383 OFFCURVE",
"318 400 CURVE SMOOTH",
"336 417 OFFCURVE",
"358 427 OFFCURVE",
"384 427 CURVE SMOOTH",
"414 427 OFFCURVE",
"438 415 OFFCURVE",
"464 384 CURVE",
"529 440 LINE",
"488 490 OFFCURVE",
"437 513 OFFCURVE",
"384 513 CURVE SMOOTH",
"335 513 OFFCURVE",
"290 493 OFFCURVE",
"256 461 CURVE SMOOTH",
"223 428 OFFCURVE",
"203 383 OFFCURVE",
"203 333 CURVE SMOOTH",
"203 283 OFFCURVE",
"223 238 OFFCURVE",
"256 205 CURVE SMOOTH",
"290 173 OFFCURVE",
"335 152 OFFCURVE",
"384 152 CURVE SMOOTH"
);
}
);
width = 750;
}
);
note = copyright;
unicode = 00A9;
},
{
glyphname = registered;
lastChange = "2018-03-19 01:16:12 +0000";
layers = (
{
layerId = "E1ADDF7C-A343-4E6D-B630-136BDFE64807";
paths = (
{
closed = 1;
nodes = (
"334 209 OFFCURVE",
"391 235 OFFCURVE",
"433 277 CURVE SMOOTH",
"475 319 OFFCURVE",
"500 375 OFFCURVE",
"500 439 CURVE SMOOTH",
"500 502 OFFCURVE",
"475 560 OFFCURVE",
"433 602 CURVE SMOOTH",
"391 644 OFFCURVE",
"334 669 OFFCURVE",
"270 669 CURVE SMOOTH",
"206 669 OFFCURVE",
"150 644 OFFCURVE",
"108 602 CURVE SMOOTH",
"66 560 OFFCURVE",
"40 502 OFFCURVE",
"40 439 CURVE SMOOTH",
"40 375 OFFCURVE",
"66 319 OFFCURVE",
"108 277 CURVE SMOOTH",
"150 235 OFFCURVE",
"206 209 OFFCURVE",
"270 209 CURVE SMOOTH"
);
},
{
closed = 1;
nodes = (
"314 599 OFFCURVE",
"354 581 OFFCURVE",
"383 552 CURVE SMOOTH",
"412 523 OFFCURVE",
"430 483 OFFCURVE",
"430 439 CURVE SMOOTH",
"430 395 OFFCURVE",
"412 354 OFFCURVE",
"383 326 CURVE SMOOTH",
"354 297 OFFCURVE",
"314 278 OFFCURVE",
"270 278 CURVE SMOOTH",
"226 278 OFFCURVE",
"186 297 OFFCURVE",
"157 326 CURVE SMOOTH",
"128 354 OFFCURVE",
"110 395 OFFCURVE",
"110 439 CURVE SMOOTH",
"110 483 OFFCURVE",
"128 523 OFFCURVE",
"157 552 CURVE SMOOTH",
"186 581 OFFCURVE",
"226 599 OFFCURVE",
"270 599 CURVE SMOOTH"
);
},
{
closed = 1;
nodes = (
"312 409 LINE",
"336 422 OFFCURVE",
"352 448 OFFCURVE",
"352 479 CURVE SMOOTH",
"352 500 OFFCURVE",
"343 521 OFFCURVE",
"329 535 CURVE SMOOTH",
"314 549 OFFCURVE",
"293 558 OFFCURVE",
"272 558 CURVE SMOOTH",
"205 558 LINE",
"205 341 LINE",
"257 341 LINE",
"257 384 LINE",
"293 341 LINE",
"372 341 LINE"
);
},
{
closed = 1;
nodes = (
"290 507 OFFCURVE",
"301 495 OFFCURVE",
"301 479 CURVE SMOOTH",
"301 461 OFFCURVE",
"290 449 OFFCURVE",
"271 449 CURVE SMOOTH",
"257 449 LINE",
"257 507 LINE",
"271 507 LINE SMOOTH"
);
}
);
width = 540;
}
);
note = registered;
unicode = 00AE;
},
{
glyphname = trademark;
lastChange = "2018-03-19 01:16:48 +0000";
layers = (
{
layerId = "E1ADDF7C-A343-4E6D-B630-136BDFE64807";
paths = (
{
closed = 1;
nodes = (
"453 665 LINE",
"398 665 LINE",
"333 583 LINE",
"266 665 LINE",
"211 665 LINE",
"211 449 LINE",
"271 449 LINE",
"271 565 LINE",
"310 516 LINE",
"355 516 LINE",
"394 565 LINE",
"394 449 LINE",
"453 449 LINE"
);
},
{
closed = 1;
nodes = (
"182 665 LINE",
"40 665 LINE",
"40 608 LINE",
"81 608 LINE",
"81 449 LINE",
"141 449 LINE",
"141 608 LINE",
"182 608 LINE"
);
}
);
width = 493;
}
);
note = trademark;
unicode = 2122;
},
{
glyphname = degree;
lastChange = "2018-03-18 23:32:31 +0000";
layers = (
{
layerId = "E1ADDF7C-A343-4E6D-B630-136BDFE64807";
paths = (
{
closed = 1;
nodes = (
"214 428 OFFCURVE",
"250 443 OFFCURVE",
"275 468 CURVE SMOOTH",
"299 493 OFFCURVE",
"315 526 OFFCURVE",
"315 565 CURVE SMOOTH",
"315 602 OFFCURVE",
"299 637 OFFCURVE",
"275 662 CURVE SMOOTH",
"250 687 OFFCURVE",
"214 702 OFFCURVE",
"177 702 CURVE SMOOTH",
"138 702 OFFCURVE",
"105 687 OFFCURVE",
"80 662 CURVE SMOOTH",
"55 637 OFFCURVE",
"40 602 OFFCURVE",
"40 565 CURVE SMOOTH",
"40 526 OFFCURVE",
"55 493 OFFCURVE",
"80 468 CURVE SMOOTH",
"105 443 OFFCURVE",
"138 428 OFFCURVE",
"177 428 CURVE SMOOTH"
);
},
{
closed = 1;
nodes = (
"216 635 OFFCURVE",
"247 604 OFFCURVE",
"247 565 CURVE SMOOTH",
"247 526 OFFCURVE",
"216 495 OFFCURVE",
"177 495 CURVE SMOOTH",
"138 495 OFFCURVE",
"107 526 OFFCURVE",
"107 565 CURVE SMOOTH",
"107 604 OFFCURVE",
"138 635 OFFCURVE",
"177 635 CURVE SMOOTH"
);
}
);
width = 355;
}
);
note = degree;
unicode = 00B0;
},
{
glyphname = bar;
lastChange = "2018-03-19 01:17:07 +0000";
layers = (
{
layerId = "E1ADDF7C-A343-4E6D-B630-136BDFE64807";
paths = (
{
closed = 1;
nodes = (
"129 665 LINE",
"43 665 LINE",
"43 0 LINE",
"129 0 LINE"
);
}
);
width = 172;
}
);
note = bar;
unicode = 007C;
},
{
glyphname = brokenbar;
lastChange = "2018-03-19 01:17:35 +0000";
layers = (
{
layerId = "E1ADDF7C-A343-4E6D-B630-136BDFE64807";
paths = (
{
closed = 1;
nodes = (
"136 666 LINE",
"50 666 LINE",
"50 388 LINE",
"136 388 LINE"
);
},
{
closed = 1;
nodes = (
"136 278 LINE",
"50 278 LINE",
"50 0 LINE",
"136 0 LINE"
);
}
);
width = 186;
}
);
note = brokenbar;
unicode = 00A6;
},
{
glyphname = dagger;
lastChange = "2018-03-18 23:32:31 +0000";
layers = (
{
layerId = "E1ADDF7C-A343-4E6D-B630-136BDFE64807";
paths = (
{
closed = 1;
nodes = (
"331 526 LINE",
"230 526 LINE",
"230 665 LINE",
"140 665 LINE",
"140 526 LINE",
"40 526 LINE",
"40 434 LINE",
"140 434 LINE",
"140 187 LINE",
"230 187 LINE",
"230 434 LINE",
"331 434 LINE"
);
}
);
width = 371;
}
);
note = dagger;
unicode = 2020;
},
{
glyphname = daggerdbl;
lastChange = "2018-03-19 01:17:56 +0000";
layers = (
{
layerId = "E1ADDF7C-A343-4E6D-B630-136BDFE64807";
paths = (
{
closed = 1;
nodes = (
"331 380 LINE",
"230 380 LINE",
"230 444 LINE",
"331 444 LINE",
"331 536 LINE",
"230 536 LINE",
"230 665 LINE",
"140 665 LINE",
"140 536 LINE",
"40 536 LINE",
"40 444 LINE",
"140 444 LINE",
"140 380 LINE",
"40 380 LINE",
"40 288 LINE",
"140 288 LINE",
"140 187 LINE",
"230 187 LINE",
"230 288 LINE",
"331 288 LINE"
);
}
);
width = 371;
}
);
note = daggerdbl;
unicode = 2021;
},
{
glyphname = dieresiscomb;
lastChange = "2018-04-11 02:20:33 +0000";
layers = (
{
anchors = (
{
name = _top;
position = "{130, 500}";
},
{
name = top;
position = "{130, 633}";
}
);
layerId = "E1ADDF7C-A343-4E6D-B630-136BDFE64807";
paths = (
{
closed = 1;
nodes = (
"68 545 OFFCURVE",
"88 564 OFFCURVE",
"88 589 CURVE SMOOTH",
"88 613 OFFCURVE",
"68 633 OFFCURVE",
"44 633 CURVE SMOOTH",
"19 633 OFFCURVE",
"0 613 OFFCURVE",
"0 589 CURVE SMOOTH",
"0 564 OFFCURVE",
"19 545 OFFCURVE",
"44 545 CURVE SMOOTH"
);
},
{
closed = 1;
nodes = (
"240 545 OFFCURVE",
"260 564 OFFCURVE",
"260 589 CURVE SMOOTH",
"260 613 OFFCURVE",
"240 633 OFFCURVE",
"216 633 CURVE SMOOTH",
"191 633 OFFCURVE",
"172 613 OFFCURVE",
"172 589 CURVE SMOOTH",
"172 564 OFFCURVE",
"191 545 OFFCURVE",
"216 545 CURVE SMOOTH"
);
}
);
width = 260;
}
);
unicode = 0308;
},
{
glyphname = dotaccentcomb;
lastChange = "2018-04-11 02:20:33 +0000";
layers = (
{
anchors = (
{
name = _top;
position = "{44, 500}";
},
{
name = top;
position = "{44, 633}";
}
);
layerId = "E1ADDF7C-A343-4E6D-B630-136BDFE64807";
paths = (
{
closed = 1;
nodes = (
"68 545 OFFCURVE",
"88 564 OFFCURVE",
"88 589 CURVE SMOOTH",
"88 613 OFFCURVE",
"68 633 OFFCURVE",
"44 633 CURVE SMOOTH",
"19 633 OFFCURVE",
"0 613 OFFCURVE",
"0 589 CURVE SMOOTH",
"0 564 OFFCURVE",
"19 545 OFFCURVE",
"44 545 CURVE SMOOTH"
);
}
);
width = 88;
}
);
unicode = 0307;
},
{
glyphname = gravecomb;
lastChange = "2018-04-11 02:28:28 +0000";
layers = (
{
anchors = (
{
name = _top;
position = "{62, 500}";
},
{
name = top;
position = "{62, 712}";
}
);
layerId = "E1ADDF7C-A343-4E6D-B630-136BDFE64807";
paths = (
{
closed = 1;
nodes = (
"8 687 LINE",
"56 549 LINE",
"123 549 LINE",
"87 687 LINE"
);
}
);
width = 123;
}
);
note = gravecomb;
unicode = 0300;
},
{
glyphname = acutecomb;
lastChange = "2018-04-11 02:28:22 +0000";
layers = (
{
anchors = (
{
name = _top;
position = "{62, 500}";
},
{
name = top;
position = "{62, 712}";
}
);
layerId = "E1ADDF7C-A343-4E6D-B630-136BDFE64807";
paths = (
{
closed = 1;
nodes = (
"37 687 LINE",
"0 549 LINE",
"67 549 LINE",
"115 687 LINE"
);
}
);
width = 123;
}
);
note = acutecomb;
unicode = 0301;
},
{
glyphname = hungarumlautcomb;
lastChange = "2018-04-11 02:28:14 +0000";
layers = (
{
anchors = (
{
name = _top;
position = "{131, 500}";
},
{
name = top;
position = "{131, 711}";
}
);
layerId = "E1ADDF7C-A343-4E6D-B630-136BDFE64807";
paths = (
{
closed = 1;
nodes = (
"178 687 LINE",
"137 548 LINE",
"201 548 LINE",
"254 687 LINE"
);
},
{
closed = 1;
nodes = (
"33 687 LINE",
"0 548 LINE",
"64 548 LINE",
"109 687 LINE"
);
}
);
width = 262;
}
);
unicode = 030B;
},
{
glyphname = circumflexcomb;
lastChange = "2018-04-11 02:24:47 +0000";
layers = (
{
anchors = (
{
name = _top;
position = "{146, 500}";
},
{
name = top;
position = "{146, 680}";
}
);
layerId = "E1ADDF7C-A343-4E6D-B630-136BDFE64807";
paths = (
{
closed = 1;
nodes = (
"149 680 LINE",
"40 545 LINE",
"103 545 LINE",
"148 605 LINE",
"190 545 LINE",
"252 545 LINE"
);
}
);
width = 292;
}
);
unicode = 0302;
},
{
glyphname = caroncomb;
lastChange = "2018-04-11 02:25:14 +0000";
layers = (
{
anchors = (
{
name = _top;
position = "{146, 500}";
},
{
name = top;
position = "{146, 676}";
}
);
layerId = "E1ADDF7C-A343-4E6D-B630-136BDFE64807";
paths = (
{
closed = 1;
nodes = (
"190 680 LINE",
"148 620 LINE",
"103 680 LINE",
"40 680 LINE",
"149 545 LINE",
"252 680 LINE"
);
}
);
width = 292;
}
);
unicode = 030C;
},
{
glyphname = brevecomb;
lastChange = "2018-04-11 02:25:42 +0000";
layers = (
{
anchors = (
{
name = _top;
position = "{137, 500}";
},
{
name = top;
position = "{137, 682}";
}
);
layerId = "E1ADDF7C-A343-4E6D-B630-136BDFE64807";
paths = (
{
closed = 1;
nodes = (
"242.502 602.548 OFFCURVE",
"262.489 634.092 OFFCURVE",
"267.473 677 CURVE",
"204.313 677 LINE",
"200.708 656.043 OFFCURVE",
"190.509 639.875 OFFCURVE",
"173.572 629.713 CURVE SMOOTH",
"157.08 619.817 OFFCURVE",
"140.853 616.949 OFFCURVE",
"123.131 620.076 CURVE SMOOTH",
"92.23 626.628 OFFCURVE",
"76.606 642.746 OFFCURVE",
"68.049 677 CURVE",
"5.564 677 LINE",
"8.558 651.651 OFFCURVE",
"14.726 633.947 OFFCURVE",
"27.127 615.823 CURVE",
"52.225 582.366 OFFCURVE",
"93.033 562 OFFCURVE",
"137 562 CURVE SMOOTH",
"162.476 562 OFFCURVE",
"186.695 569.059 OFFCURVE",
"208.4 582.271 CURVE SMOOTH"
);
}
);
width = 273;
}
);
unicode = 0306;
},
{
glyphname = ringcomb;
lastChange = "2018-04-11 02:25:52 +0000";
layers = (
{
anchors = (
{
name = _top;
position = "{91, 500}";
},
{
name = top;
position = "{91, 717}";
}
);
layerId = "E1ADDF7C-A343-4E6D-B630-136BDFE64807";
paths = (
{
closed = 1;
nodes = (
"161 564 OFFCURVE",
"175 586 OFFCURVE",
"180 609 CURVE",
"184 632 OFFCURVE",
"179 656 OFFCURVE",
"166 677 CURVE SMOOTH",
"153 697 OFFCURVE",
"132 711 OFFCURVE",
"109 716 CURVE",
"86 720 OFFCURVE",
"61 715 OFFCURVE",
"41 702 CURVE SMOOTH",
"0 675 OFFCURVE",
"-13 620 OFFCURVE",
"15 577 CURVE",
"34 550 OFFCURVE",
"60 536 OFFCURVE",
"91 536 CURVE SMOOTH",
"108 536 OFFCURVE",
"125 541 OFFCURVE",
"141 551 CURVE SMOOTH"
);
},
{
closed = 1;
nodes = (
"120 672 OFFCURVE",
"140 643 OFFCURVE",
"135 620 CURVE SMOOTH",
"129 596 OFFCURVE",
"105 578 OFFCURVE",
"81 584 CURVE SMOOTH",
"58 589 OFFCURVE",
"42 614 OFFCURVE",
"47 637 CURVE",
"48 659 OFFCURVE",
"69 672 OFFCURVE",
"91 672 CURVE SMOOTH"
);
}
);
width = 181;
}
);
unicode = 030A;
},
{
glyphname = tildecomb;
lastChange = "2018-04-11 02:26:03 +0000";
layers = (
{
anchors = (
{
name = _top;
position = "{158, 481}";
},
{
name = top;
position = "{158, 662}";
}
);
layerId = "E1ADDF7C-A343-4E6D-B630-136BDFE64807";
paths = (
{
closed = 1;
nodes = (
"254.795 543.247 OFFCURVE",
"276.849 559.749 OFFCURVE",
"307.765 598.867 CURVE",
"260.431 630.987 LINE",
"240.939 601.885 OFFCURVE",
"216.417 588.848 OFFCURVE",
"195.143 597.358 CURVE SMOOTH",
"182.075 602.383 OFFCURVE",
"162.094 611.375 OFFCURVE",
"138.244 620.318 CURVE",
"97.069 633.488 OFFCURVE",
"62.505 627.923 OFFCURVE",
"34.293 603.237 CURVE SMOOTH",
"24.978 595.613 OFFCURVE",
"17.746 587.28 OFFCURVE",
"6.805 570.365 CURVE",
"59.7 533.68 LINE",
"70.818 560.347 OFFCURVE",
"81.494 572 OFFCURVE",
"96 572 CURVE",
"126.413 569.914 OFFCURVE",
"147.816 550.692 OFFCURVE",
"181.279 541.834 CURVE SMOOTH",
"196.001 537.908 OFFCURVE",
"208.963 536.056 OFFCURVE",
"227.22 538.939 CURVE SMOOTH"
);
}
);
width = 315;
}
);
note = tildecomb;
unicode = 0303;
},
{
glyphname = macroncomb;
lastChange = "2018-04-11 02:20:33 +0000";
layers = (
{
anchors = (
{
name = _top;
position = "{139, 500}";
},
{
name = top;
position = "{139, 623}";
}
);
layerId = "E1ADDF7C-A343-4E6D-B630-136BDFE64807";
paths = (
{
closed = 1;
nodes = (
"278 620 LINE",
"0 620 LINE",
"0 570 LINE",
"278 570 LINE"
);
}
);
width = 278;
}
);
unicode = 0304;
},
{
glyphname = commaturnedabovecomb;
lastChange = "2018-04-11 02:28:39 +0000";
layers = (
{
anchors = (
{
name = _top;
position = "{62, 500}";
},
{
name = top;
position = "{62, 733}";
}
);
layerId = "E1ADDF7C-A343-4E6D-B630-136BDFE64807";
paths = (
{
closed = 1;
nodes = (
"41 700 LINE",
"0 570 LINE",
"65 570 LINE",
"114 700 LINE"
);
}
);
width = 123;
}
);
unicode = 0312;
},
{
glyphname = commaaccentcomb;
lastChange = "2018-04-11 02:28:51 +0000";
layers = (
{
anchors = (
{
name = _bottom;
position = "{62, 0}";
},
{
name = bottom;
position = "{62, -199}";
}
);
layerId = "E1ADDF7C-A343-4E6D-B630-136BDFE64807";
paths = (
{
closed = 1;
nodes = (
"43 -36 LINE",
"5 -199 LINE",
"72 -199 LINE",
"123 -36 LINE"
);
}
);
width = 123;
}
);
unicode = 0326;
},
{
glyphname = cedillacomb;
lastChange = "2018-04-11 02:26:29 +0000";
layers = (
{
anchors = (
{
name = _bottom;
position = "{83, 0}";
},
{
name = bottom;
position = "{83, -210}";
}
);
layerId = "E1ADDF7C-A343-4E6D-B630-136BDFE64807";
paths = (
{
closed = 1;
nodes = (
"95.76 -205 OFFCURVE",
"119.383 -194.489 OFFCURVE",
"135.365 -177.567 CURVE SMOOTH",
"152.224 -159.716 OFFCURVE",
"161 -136.61 OFFCURVE",
"161 -112 CURVE SMOOTH",
"161 -70.883 OFFCURVE",
"136.031 -36.856 OFFCURVE",
"96.467 -22.869 CURVE",
"109.615 10 LINE",
"49.465 10 LINE",
"33.356 -32.958 LINE",
"52.889 -82.678 LINE",
"63.784 -78.89 OFFCURVE",
"67.785 -78 OFFCURVE",
"72 -78 CURVE SMOOTH",
"89.239 -78 OFFCURVE",
"104 -93.725 OFFCURVE",
"104 -112 CURVE SMOOTH",
"104 -130.769 OFFCURVE",
"89.704 -146 OFFCURVE",
"72 -146 CURVE SMOOTH",
"68.225 -146 OFFCURVE",
"63.664 -144.922 OFFCURVE",
"58.764 -142.472 CURVE SMOOTH",
"55.494 -140.837 OFFCURVE",
"51.942 -138.354 OFFCURVE",
"45.507 -132.982 CURVE",
"7.079 -176.534 LINE",
"30.078 -196.122 OFFCURVE",
"50.008 -205 OFFCURVE",
"72 -205 CURVE SMOOTH"
);
}
);
width = 166;
}
);
unicode = 0327;
},
{
glyphname = ogonekcomb;
lastChange = "2018-04-11 02:29:22 +0000";
layers = (
{
anchors = (
{
name = _ogonek;
position = "{98, 10}";
}
);
layerId = "E1ADDF7C-A343-4E6D-B630-136BDFE64807";
paths = (
{
closed = 1;
nodes = (
"133.55 -201.666 OFFCURVE",
"156.759 -188.978 OFFCURVE",
"179.048 -164.323 CURVE",
"135.325 -123.172 LINE",
"104.734 -155.114 OFFCURVE",
"57.391 -140.752 OFFCURVE",
"65.087 -100.071 CURVE",
"72.565 -66.942 OFFCURVE",
"97.801 -67.738 OFFCURVE",
"123.068 -71.236 CURVE",
"123.939 1.925 LINE",
"66 2 LINE",
"64.825 -16.451 LINE",
"34.276 -28.17 OFFCURVE",
"13.952 -52.736 OFFCURVE",
"6.903 -87.981 CURVE SMOOTH",
"2.354 -112.548 OFFCURVE",
"7.311 -137.464 OFFCURVE",
"20.251 -158.368 CURVE",
"31.632 -178.278 OFFCURVE",
"52.518 -194.513 OFFCURVE",
"76.348 -201.185 CURVE",
"82.844 -202.07 OFFCURVE",
"92.33 -203.967 OFFCURVE",
"106.667 -203.011 CURVE SMOOTH"
);
}
);
width = 186;
}
);
unicode = 0328;
},
{
glyphname = strokeshortcomb;
lastChange = "2018-04-11 02:23:25 +0000";
layers = (
{
anchors = (
{
name = _center;
position = "{213, 278}";
}
);
layerId = "E1ADDF7C-A343-4E6D-B630-136BDFE64807";
paths = (
{
closed = 1;
nodes = (
"425 308 LINE",
"0 308 LINE",
"0 248 LINE",
"425 248 LINE"
);
}
);
width = 425;
}
);
unicode = 0335;
},
{
glyphname = strokelongcomb;
lastChange = "2018-04-11 02:33:13 +0000";
layers = (
{
anchors = (
{
name = _center;
position = "{300, 278}";
}
);
layerId = "E1ADDF7C-A343-4E6D-B630-136BDFE64807";
paths = (
{
closed = 1;
nodes = (
"600 308 LINE",
"0 308 LINE",
"0 248 LINE",
"600 248 LINE"
);
}
);
width = 600;
}
);
unicode = 0336;
},
{
glyphname = slashshortcomb;
lastChange = "2018-04-11 02:27:45 +0000";
layers = (
{
anchors = (
{
name = _center;
position = "{195, 250}";
}
);
layerId = "E1ADDF7C-A343-4E6D-B630-136BDFE64807";
paths = (
{
closed = 1;
nodes = (
"311 500 LINE",
"0 0 LINE",
"80 0 LINE",
"390 500 LINE"
);
}
);
width = 390;
}
);
unicode = 0337;
},
{
glyphname = slashlongcomb;
lastChange = "2018-04-11 02:27:41 +0000";
layers = (
{
anchors = (
{
name = _center;
position = "{216, 333}";
}
);
layerId = "E1ADDF7C-A343-4E6D-B630-136BDFE64807";
paths = (
{
closed = 1;
nodes = (
"351 666 LINE",
"0 0 LINE",
"80 0 LINE",
"431 666 LINE"
);
}
);
width = 431;
}
);
unicode = 0338;
},
